G04 #@! TF.GenerationSoftware,KiCad,Pcbnew,(5.1.4)-1*
G04 #@! TF.CreationDate,2020-03-14T09:34:49+01:00*
G04 #@! TF.ProjectId,wave_gen_amp,77617665-5f67-4656-9e5f-616d702e6b69,rev?*
G04 #@! TF.SameCoordinates,Original*
G04 #@! TF.FileFunction,Legend,Top*
G04 #@! TF.FilePolarity,Positive*
%FSLAX46Y46*%
G04 Gerber Fmt 4.6, Leading zero omitted, Abs format (unit mm)*
G04 Created by KiCad (PCBNEW (5.1.4)-1) date 2020-03-14 09:34:49*
%MOMM*%
%LPD*%
G04 APERTURE LIST*
%ADD10C,0.300000*%
%ADD11C,0.120000*%
%ADD12C,0.152400*%
%ADD13C,0.100000*%
%ADD14C,0.500000*%
%ADD15C,0.150000*%
G04 APERTURE END LIST*
D10*
X179414285Y-68314285D02*
X181700000Y-68314285D01*
X180557142Y-69457142D02*
X180557142Y-67171428D01*
X184700000Y-69457142D02*
X182985714Y-69457142D01*
X183842857Y-69457142D02*
X183842857Y-66457142D01*
X183557142Y-66885714D01*
X183271428Y-67171428D01*
X182985714Y-67314285D01*
X185700000Y-66457142D02*
X187700000Y-66457142D01*
X186414285Y-69457142D01*
X188414285Y-66457142D02*
X189414285Y-69457142D01*
X190414285Y-66457142D01*
X163714285Y-66600000D02*
X163428571Y-66457142D01*
X163000000Y-66457142D01*
X162571428Y-66600000D01*
X162285714Y-66885714D01*
X162142857Y-67171428D01*
X162000000Y-67742857D01*
X162000000Y-68171428D01*
X162142857Y-68742857D01*
X162285714Y-69028571D01*
X162571428Y-69314285D01*
X163000000Y-69457142D01*
X163285714Y-69457142D01*
X163714285Y-69314285D01*
X163857142Y-69171428D01*
X163857142Y-68171428D01*
X163285714Y-68171428D01*
X165142857Y-69457142D02*
X165142857Y-66457142D01*
X166857142Y-69457142D01*
X166857142Y-66457142D01*
X168285714Y-69457142D02*
X168285714Y-66457142D01*
X169000000Y-66457142D01*
X169428571Y-66600000D01*
X169714285Y-66885714D01*
X169857142Y-67171428D01*
X170000000Y-67742857D01*
X170000000Y-68171428D01*
X169857142Y-68742857D01*
X169714285Y-69028571D01*
X169428571Y-69314285D01*
X169000000Y-69457142D01*
X168285714Y-69457142D01*
X141114285Y-68314285D02*
X143400000Y-68314285D01*
X146400000Y-69457142D02*
X144685714Y-69457142D01*
X145542857Y-69457142D02*
X145542857Y-66457142D01*
X145257142Y-66885714D01*
X144971428Y-67171428D01*
X144685714Y-67314285D01*
X147400000Y-66457142D02*
X149400000Y-66457142D01*
X148114285Y-69457142D01*
X150114285Y-66457142D02*
X151114285Y-69457142D01*
X152114285Y-66457142D01*
D11*
X196000000Y-56000000D02*
X136000000Y-56000000D01*
X196000000Y-116000000D02*
X196000000Y-56000000D01*
X136000000Y-116000000D02*
X196000000Y-116000000D01*
X136000000Y-56000000D02*
X136000000Y-116000000D01*
X187100000Y-89400000D02*
X153100000Y-89400000D01*
X187100000Y-117400000D02*
X187100000Y-89400000D01*
X153100000Y-117400000D02*
X187100000Y-117400000D01*
X153100000Y-89400000D02*
X153100000Y-117400000D01*
X145060000Y-100435000D02*
X145535000Y-100435000D01*
X142315000Y-97215000D02*
X142315000Y-97690000D01*
X142790000Y-97215000D02*
X142315000Y-97215000D01*
X145535000Y-97215000D02*
X145535000Y-97690000D01*
X145060000Y-97215000D02*
X145535000Y-97215000D01*
X142315000Y-100435000D02*
X142315000Y-99960000D01*
X142790000Y-100435000D02*
X142315000Y-100435000D01*
X147837221Y-95510000D02*
X148162779Y-95510000D01*
X147837221Y-94490000D02*
X148162779Y-94490000D01*
X154212779Y-76340000D02*
X153887221Y-76340000D01*
X154212779Y-77360000D02*
X153887221Y-77360000D01*
X153740000Y-71270000D02*
X155200000Y-71270000D01*
X153740000Y-74430000D02*
X155900000Y-74430000D01*
X153740000Y-74430000D02*
X153740000Y-73500000D01*
X153740000Y-71270000D02*
X153740000Y-72200000D01*
D12*
X154402260Y-63077999D02*
X153963000Y-63077999D01*
X156697740Y-68922001D02*
X157137000Y-68922001D01*
X153963000Y-68922001D02*
X154402260Y-68922001D01*
X153963000Y-63077999D02*
X153963000Y-68922001D01*
X157137000Y-63077999D02*
X156697740Y-63077999D01*
X157137000Y-68922001D02*
X157137000Y-63077999D01*
X154915000Y-69557001D02*
X156185000Y-69557001D01*
X155550000Y-70319001D02*
X155677000Y-69557001D01*
X155550000Y-70319001D02*
X155804000Y-69557001D01*
X155550000Y-70319001D02*
X155931000Y-69557001D01*
X155550000Y-70319001D02*
X156058000Y-69557001D01*
X155550000Y-70319001D02*
X156185000Y-69557001D01*
X155550000Y-70319001D02*
X155423000Y-69557001D01*
X155550000Y-70319001D02*
X155296000Y-69557001D01*
X155550000Y-70319001D02*
X155169000Y-69557001D01*
X155550000Y-70319001D02*
X155042000Y-69557001D01*
X155550000Y-70319001D02*
X154915000Y-69557001D01*
X154915000Y-70319001D02*
X156185000Y-70319001D01*
X155550000Y-69303001D02*
X155550000Y-70573001D01*
D11*
X138100000Y-77140000D02*
X144110000Y-77140000D01*
X140350000Y-83960000D02*
X144110000Y-83960000D01*
X144110000Y-77140000D02*
X144110000Y-78400000D01*
X144110000Y-83960000D02*
X144110000Y-82700000D01*
X172900000Y-75750000D02*
X172900000Y-70050000D01*
X158550000Y-75750000D02*
X158550000Y-70050000D01*
X172900000Y-70050000D02*
X158550000Y-70050000D01*
X172900000Y-75750000D02*
X158550000Y-75750000D01*
X140097936Y-75810000D02*
X141302064Y-75810000D01*
X140097936Y-73090000D02*
X141302064Y-73090000D01*
X140990000Y-87197936D02*
X140990000Y-88402064D01*
X143710000Y-87197936D02*
X143710000Y-88402064D01*
X137090000Y-87197936D02*
X137090000Y-88402064D01*
X139810000Y-87197936D02*
X139810000Y-88402064D01*
D13*
X146400000Y-107700000D02*
X146400000Y-108050000D01*
X146200000Y-107700000D02*
X146400000Y-107700000D01*
X146200000Y-107450000D02*
X146200000Y-107700000D01*
X150000000Y-107700000D02*
X150000000Y-107450000D01*
X150000000Y-107700000D02*
X149800000Y-107700000D01*
X150000000Y-103700000D02*
X149750000Y-103700000D01*
X150000000Y-103700000D02*
X150000000Y-103950000D01*
X146200000Y-103700000D02*
X146450000Y-103700000D01*
X146200000Y-103700000D02*
X146200000Y-103950000D01*
X137750000Y-105550000D02*
X137750000Y-105900000D01*
X137550000Y-105550000D02*
X137750000Y-105550000D01*
X137550000Y-105300000D02*
X137550000Y-105550000D01*
X141350000Y-105550000D02*
X141350000Y-105300000D01*
X141350000Y-105550000D02*
X141150000Y-105550000D01*
X141350000Y-101550000D02*
X141100000Y-101550000D01*
X141350000Y-101550000D02*
X141350000Y-101800000D01*
X137550000Y-101550000D02*
X137800000Y-101550000D01*
X137550000Y-101550000D02*
X137550000Y-101800000D01*
D11*
X143262779Y-102990000D02*
X142937221Y-102990000D01*
X143262779Y-104010000D02*
X142937221Y-104010000D01*
X141110000Y-98162779D02*
X141110000Y-97837221D01*
X140090000Y-98162779D02*
X140090000Y-97837221D01*
X144137221Y-95510000D02*
X144462779Y-95510000D01*
X144137221Y-94490000D02*
X144462779Y-94490000D01*
X150510000Y-98962779D02*
X150510000Y-98637221D01*
X149490000Y-98962779D02*
X149490000Y-98637221D01*
X147390000Y-98587221D02*
X147390000Y-98912779D01*
X148410000Y-98587221D02*
X148410000Y-98912779D01*
X140950279Y-94490000D02*
X140624721Y-94490000D01*
X140950279Y-95510000D02*
X140624721Y-95510000D01*
X182170000Y-112002064D02*
X182170000Y-109197936D01*
X179450000Y-112002064D02*
X179450000Y-109197936D01*
X162550000Y-64950000D02*
X169550000Y-64950000D01*
X162550000Y-56050000D02*
X162550000Y-64950000D01*
X169550000Y-56050000D02*
X162550000Y-56050000D01*
X169550000Y-64950000D02*
X169550000Y-56050000D01*
X181550000Y-64950000D02*
X188550000Y-64950000D01*
X181550000Y-56050000D02*
X181550000Y-64950000D01*
X188550000Y-56050000D02*
X181550000Y-56050000D01*
X188550000Y-64950000D02*
X188550000Y-56050000D01*
X143490000Y-64850000D02*
X150490000Y-64850000D01*
X143490000Y-55950000D02*
X143490000Y-64850000D01*
X150490000Y-55950000D02*
X143490000Y-55950000D01*
X150490000Y-64850000D02*
X150490000Y-55950000D01*
D14*
X172850000Y-102000000D02*
G75*
G03X172850000Y-102000000I-250000J0D01*
G01*
D11*
X169390000Y-105210000D02*
X169865000Y-105210000D01*
X169390000Y-104735000D02*
X169390000Y-105210000D01*
X169390000Y-101990000D02*
X169865000Y-101990000D01*
X169390000Y-102465000D02*
X169390000Y-101990000D01*
X172610000Y-105210000D02*
X172135000Y-105210000D01*
X172610000Y-104735000D02*
X172610000Y-105210000D01*
D14*
X162950000Y-102000000D02*
G75*
G03X162950000Y-102000000I-250000J0D01*
G01*
D11*
X159490000Y-105210000D02*
X159965000Y-105210000D01*
X159490000Y-104735000D02*
X159490000Y-105210000D01*
X159490000Y-101990000D02*
X159965000Y-101990000D01*
X159490000Y-102465000D02*
X159490000Y-101990000D01*
X162710000Y-105210000D02*
X162235000Y-105210000D01*
X162710000Y-104735000D02*
X162710000Y-105210000D01*
D14*
X182650000Y-102000000D02*
G75*
G03X182650000Y-102000000I-250000J0D01*
G01*
D11*
X179190000Y-105210000D02*
X179665000Y-105210000D01*
X179190000Y-104735000D02*
X179190000Y-105210000D01*
X179190000Y-101990000D02*
X179665000Y-101990000D01*
X179190000Y-102465000D02*
X179190000Y-101990000D01*
X182410000Y-105210000D02*
X181935000Y-105210000D01*
X182410000Y-104735000D02*
X182410000Y-105210000D01*
X168460000Y-97852064D02*
X168460000Y-96647936D01*
X165740000Y-97852064D02*
X165740000Y-96647936D01*
X183140000Y-108397936D02*
X183140000Y-109602064D01*
X185860000Y-108397936D02*
X185860000Y-109602064D01*
X175297936Y-111160000D02*
X176502064Y-111160000D01*
X175297936Y-108440000D02*
X176502064Y-108440000D01*
X158310000Y-97752064D02*
X158310000Y-96547936D01*
X155590000Y-97752064D02*
X155590000Y-96547936D01*
X155549721Y-115510000D02*
X155875279Y-115510000D01*
X155549721Y-114490000D02*
X155875279Y-114490000D01*
X165347936Y-111060000D02*
X166552064Y-111060000D01*
X165347936Y-108340000D02*
X166552064Y-108340000D01*
X159750000Y-79160000D02*
X159750000Y-79310000D01*
X156630000Y-79160000D02*
X156630000Y-79310000D01*
X156630000Y-82280000D02*
X156630000Y-82130000D01*
X156630000Y-79160000D02*
X159750000Y-79160000D01*
X156630000Y-82280000D02*
X159750000Y-82280000D01*
X159750000Y-82280000D02*
X159750000Y-82130000D01*
X156630000Y-79310000D02*
X156370000Y-79310000D01*
X161362779Y-83340000D02*
X161037221Y-83340000D01*
X161362779Y-84360000D02*
X161037221Y-84360000D01*
X161490000Y-80487221D02*
X161490000Y-80812779D01*
X162510000Y-80487221D02*
X162510000Y-80812779D01*
X186500000Y-118500000D02*
X186500000Y-126000000D01*
X171500000Y-118500000D02*
X186500000Y-118500000D01*
X171500000Y-126000000D02*
X171500000Y-118500000D01*
X186500000Y-126000000D02*
X171500000Y-126000000D01*
X160500000Y-118500000D02*
X160500000Y-126000000D01*
X145500000Y-118500000D02*
X160500000Y-118500000D01*
X145500000Y-126000000D02*
X145500000Y-118500000D01*
X160500000Y-126000000D02*
X145500000Y-126000000D01*
X172360000Y-112002064D02*
X172360000Y-109197936D01*
X169640000Y-112002064D02*
X169640000Y-109197936D01*
X162460000Y-112002064D02*
X162460000Y-109197936D01*
X159740000Y-112002064D02*
X159740000Y-109197936D01*
X177510000Y-103162779D02*
X177510000Y-102837221D01*
X176490000Y-103162779D02*
X176490000Y-102837221D01*
X184090000Y-102837221D02*
X184090000Y-103162779D01*
X185110000Y-102837221D02*
X185110000Y-103162779D01*
X167610000Y-103162779D02*
X167610000Y-102837221D01*
X166590000Y-103162779D02*
X166590000Y-102837221D01*
X174290000Y-102837221D02*
X174290000Y-103162779D01*
X175310000Y-102837221D02*
X175310000Y-103162779D01*
X157710000Y-103162779D02*
X157710000Y-102837221D01*
X156690000Y-103162779D02*
X156690000Y-102837221D01*
X164490000Y-102837221D02*
X164490000Y-103162779D01*
X165510000Y-102837221D02*
X165510000Y-103162779D01*
X178410000Y-97902064D02*
X178410000Y-96697936D01*
X175690000Y-97902064D02*
X175690000Y-96697936D01*
X177302064Y-72240000D02*
X176097936Y-72240000D01*
X177302064Y-74960000D02*
X176097936Y-74960000D01*
X165190000Y-80647936D02*
X165190000Y-81852064D01*
X167910000Y-80647936D02*
X167910000Y-81852064D01*
X176702064Y-85040000D02*
X175497936Y-85040000D01*
X176702064Y-87760000D02*
X175497936Y-87760000D01*
X152490000Y-81747936D02*
X152490000Y-82952064D01*
X155210000Y-81747936D02*
X155210000Y-82952064D01*
X184352064Y-94340000D02*
X183147936Y-94340000D01*
X184352064Y-97060000D02*
X183147936Y-97060000D01*
D15*
X135238095Y-55952380D02*
X135238095Y-56761904D01*
X135285714Y-56857142D01*
X135333333Y-56904761D01*
X135428571Y-56952380D01*
X135619047Y-56952380D01*
X135714285Y-56904761D01*
X135761904Y-56857142D01*
X135809523Y-56761904D01*
X135809523Y-55952380D01*
X136714285Y-55952380D02*
X136523809Y-55952380D01*
X136428571Y-56000000D01*
X136380952Y-56047619D01*
X136285714Y-56190476D01*
X136238095Y-56380952D01*
X136238095Y-56761904D01*
X136285714Y-56857142D01*
X136333333Y-56904761D01*
X136428571Y-56952380D01*
X136619047Y-56952380D01*
X136714285Y-56904761D01*
X136761904Y-56857142D01*
X136809523Y-56761904D01*
X136809523Y-56523809D01*
X136761904Y-56428571D01*
X136714285Y-56380952D01*
X136619047Y-56333333D01*
X136428571Y-56333333D01*
X136333333Y-56380952D01*
X136285714Y-56428571D01*
X136238095Y-56523809D01*
X165964285Y-88354761D02*
X166107142Y-88402380D01*
X166345238Y-88402380D01*
X166440476Y-88354761D01*
X166488095Y-88307142D01*
X166535714Y-88211904D01*
X166535714Y-88116666D01*
X166488095Y-88021428D01*
X166440476Y-87973809D01*
X166345238Y-87926190D01*
X166154761Y-87878571D01*
X166059523Y-87830952D01*
X166011904Y-87783333D01*
X165964285Y-87688095D01*
X165964285Y-87592857D01*
X166011904Y-87497619D01*
X166059523Y-87450000D01*
X166154761Y-87402380D01*
X166392857Y-87402380D01*
X166535714Y-87450000D01*
X166964285Y-88402380D02*
X166964285Y-87402380D01*
X166964285Y-87878571D02*
X167535714Y-87878571D01*
X167535714Y-88402380D02*
X167535714Y-87402380D01*
X168535714Y-88402380D02*
X167964285Y-88402380D01*
X168250000Y-88402380D02*
X168250000Y-87402380D01*
X168154761Y-87545238D01*
X168059523Y-87640476D01*
X167964285Y-87688095D01*
X142738095Y-110252380D02*
X143309523Y-110252380D01*
X143023809Y-111252380D02*
X143023809Y-110252380D01*
X143642857Y-111252380D02*
X143642857Y-110252380D01*
X144023809Y-110252380D01*
X144119047Y-110300000D01*
X144166666Y-110347619D01*
X144214285Y-110442857D01*
X144214285Y-110585714D01*
X144166666Y-110680952D01*
X144119047Y-110728571D01*
X144023809Y-110776190D01*
X143642857Y-110776190D01*
X144595238Y-110347619D02*
X144642857Y-110300000D01*
X144738095Y-110252380D01*
X144976190Y-110252380D01*
X145071428Y-110300000D01*
X145119047Y-110347619D01*
X145166666Y-110442857D01*
X145166666Y-110538095D01*
X145119047Y-110680952D01*
X144547619Y-111252380D01*
X145166666Y-111252380D01*
X146338095Y-113052380D02*
X146909523Y-113052380D01*
X146623809Y-114052380D02*
X146623809Y-113052380D01*
X147242857Y-114052380D02*
X147242857Y-113052380D01*
X147623809Y-113052380D01*
X147719047Y-113100000D01*
X147766666Y-113147619D01*
X147814285Y-113242857D01*
X147814285Y-113385714D01*
X147766666Y-113480952D01*
X147719047Y-113528571D01*
X147623809Y-113576190D01*
X147242857Y-113576190D01*
X148766666Y-114052380D02*
X148195238Y-114052380D01*
X148480952Y-114052380D02*
X148480952Y-113052380D01*
X148385714Y-113195238D01*
X148290476Y-113290476D01*
X148195238Y-113338095D01*
X143163095Y-101097380D02*
X143163095Y-101906904D01*
X143210714Y-102002142D01*
X143258333Y-102049761D01*
X143353571Y-102097380D01*
X143544047Y-102097380D01*
X143639285Y-102049761D01*
X143686904Y-102002142D01*
X143734523Y-101906904D01*
X143734523Y-101097380D01*
X144115476Y-101097380D02*
X144782142Y-101097380D01*
X144353571Y-102097380D01*
X147357142Y-93927142D02*
X147309523Y-93974761D01*
X147166666Y-94022380D01*
X147071428Y-94022380D01*
X146928571Y-93974761D01*
X146833333Y-93879523D01*
X146785714Y-93784285D01*
X146738095Y-93593809D01*
X146738095Y-93450952D01*
X146785714Y-93260476D01*
X146833333Y-93165238D01*
X146928571Y-93070000D01*
X147071428Y-93022380D01*
X147166666Y-93022380D01*
X147309523Y-93070000D01*
X147357142Y-93117619D01*
X147738095Y-93117619D02*
X147785714Y-93070000D01*
X147880952Y-93022380D01*
X148119047Y-93022380D01*
X148214285Y-93070000D01*
X148261904Y-93117619D01*
X148309523Y-93212857D01*
X148309523Y-93308095D01*
X148261904Y-93450952D01*
X147690476Y-94022380D01*
X148309523Y-94022380D01*
X148880952Y-93450952D02*
X148785714Y-93403333D01*
X148738095Y-93355714D01*
X148690476Y-93260476D01*
X148690476Y-93212857D01*
X148738095Y-93117619D01*
X148785714Y-93070000D01*
X148880952Y-93022380D01*
X149071428Y-93022380D01*
X149166666Y-93070000D01*
X149214285Y-93117619D01*
X149261904Y-93212857D01*
X149261904Y-93260476D01*
X149214285Y-93355714D01*
X149166666Y-93403333D01*
X149071428Y-93450952D01*
X148880952Y-93450952D01*
X148785714Y-93498571D01*
X148738095Y-93546190D01*
X148690476Y-93641428D01*
X148690476Y-93831904D01*
X148738095Y-93927142D01*
X148785714Y-93974761D01*
X148880952Y-94022380D01*
X149071428Y-94022380D01*
X149166666Y-93974761D01*
X149214285Y-93927142D01*
X149261904Y-93831904D01*
X149261904Y-93641428D01*
X149214285Y-93546190D01*
X149166666Y-93498571D01*
X149071428Y-93450952D01*
X156407142Y-77302380D02*
X156073809Y-76826190D01*
X155835714Y-77302380D02*
X155835714Y-76302380D01*
X156216666Y-76302380D01*
X156311904Y-76350000D01*
X156359523Y-76397619D01*
X156407142Y-76492857D01*
X156407142Y-76635714D01*
X156359523Y-76730952D01*
X156311904Y-76778571D01*
X156216666Y-76826190D01*
X155835714Y-76826190D01*
X157359523Y-77302380D02*
X156788095Y-77302380D01*
X157073809Y-77302380D02*
X157073809Y-76302380D01*
X156978571Y-76445238D01*
X156883333Y-76540476D01*
X156788095Y-76588095D01*
X157835714Y-77302380D02*
X158026190Y-77302380D01*
X158121428Y-77254761D01*
X158169047Y-77207142D01*
X158264285Y-77064285D01*
X158311904Y-76873809D01*
X158311904Y-76492857D01*
X158264285Y-76397619D01*
X158216666Y-76350000D01*
X158121428Y-76302380D01*
X157930952Y-76302380D01*
X157835714Y-76350000D01*
X157788095Y-76397619D01*
X157740476Y-76492857D01*
X157740476Y-76730952D01*
X157788095Y-76826190D01*
X157835714Y-76873809D01*
X157930952Y-76921428D01*
X158121428Y-76921428D01*
X158216666Y-76873809D01*
X158264285Y-76826190D01*
X158311904Y-76730952D01*
X154404761Y-75897619D02*
X154309523Y-75850000D01*
X154214285Y-75754761D01*
X154071428Y-75611904D01*
X153976190Y-75564285D01*
X153880952Y-75564285D01*
X153928571Y-75802380D02*
X153833333Y-75754761D01*
X153738095Y-75659523D01*
X153690476Y-75469047D01*
X153690476Y-75135714D01*
X153738095Y-74945238D01*
X153833333Y-74850000D01*
X153928571Y-74802380D01*
X154119047Y-74802380D01*
X154214285Y-74850000D01*
X154309523Y-74945238D01*
X154357142Y-75135714D01*
X154357142Y-75469047D01*
X154309523Y-75659523D01*
X154214285Y-75754761D01*
X154119047Y-75802380D01*
X153928571Y-75802380D01*
X155309523Y-75802380D02*
X154738095Y-75802380D01*
X155023809Y-75802380D02*
X155023809Y-74802380D01*
X154928571Y-74945238D01*
X154833333Y-75040476D01*
X154738095Y-75088095D01*
X153552380Y-67688095D02*
X152552380Y-67688095D01*
X152552380Y-67450000D01*
X152600000Y-67307142D01*
X152695238Y-67211904D01*
X152790476Y-67164285D01*
X152980952Y-67116666D01*
X153123809Y-67116666D01*
X153314285Y-67164285D01*
X153409523Y-67211904D01*
X153504761Y-67307142D01*
X153552380Y-67450000D01*
X153552380Y-67688095D01*
X153552380Y-66164285D02*
X153552380Y-66735714D01*
X153552380Y-66450000D02*
X152552380Y-66450000D01*
X152695238Y-66545238D01*
X152790476Y-66640476D01*
X152838095Y-66735714D01*
X157752380Y-65050000D02*
X157990476Y-65050000D01*
X157895238Y-65288095D02*
X157990476Y-65050000D01*
X157895238Y-64811904D01*
X158180952Y-65192857D02*
X157990476Y-65050000D01*
X158180952Y-64907142D01*
X157752380Y-65050000D02*
X157990476Y-65050000D01*
X157895238Y-65288095D02*
X157990476Y-65050000D01*
X157895238Y-64811904D01*
X158180952Y-65192857D02*
X157990476Y-65050000D01*
X158180952Y-64907142D01*
X147988095Y-80052380D02*
X147988095Y-80861904D01*
X148035714Y-80957142D01*
X148083333Y-81004761D01*
X148178571Y-81052380D01*
X148369047Y-81052380D01*
X148464285Y-81004761D01*
X148511904Y-80957142D01*
X148559523Y-80861904D01*
X148559523Y-80052380D01*
X149178571Y-80480952D02*
X149083333Y-80433333D01*
X149035714Y-80385714D01*
X148988095Y-80290476D01*
X148988095Y-80242857D01*
X149035714Y-80147619D01*
X149083333Y-80100000D01*
X149178571Y-80052380D01*
X149369047Y-80052380D01*
X149464285Y-80100000D01*
X149511904Y-80147619D01*
X149559523Y-80242857D01*
X149559523Y-80290476D01*
X149511904Y-80385714D01*
X149464285Y-80433333D01*
X149369047Y-80480952D01*
X149178571Y-80480952D01*
X149083333Y-80528571D01*
X149035714Y-80576190D01*
X148988095Y-80671428D01*
X148988095Y-80861904D01*
X149035714Y-80957142D01*
X149083333Y-81004761D01*
X149178571Y-81052380D01*
X149369047Y-81052380D01*
X149464285Y-81004761D01*
X149511904Y-80957142D01*
X149559523Y-80861904D01*
X149559523Y-80671428D01*
X149511904Y-80576190D01*
X149464285Y-80528571D01*
X149369047Y-80480952D01*
X163947380Y-73318333D02*
X164661666Y-73318333D01*
X164804523Y-73365952D01*
X164899761Y-73461190D01*
X164947380Y-73604047D01*
X164947380Y-73699285D01*
X163947380Y-72937380D02*
X163947380Y-72270714D01*
X164947380Y-72699285D01*
X140057142Y-72527142D02*
X140009523Y-72574761D01*
X139866666Y-72622380D01*
X139771428Y-72622380D01*
X139628571Y-72574761D01*
X139533333Y-72479523D01*
X139485714Y-72384285D01*
X139438095Y-72193809D01*
X139438095Y-72050952D01*
X139485714Y-71860476D01*
X139533333Y-71765238D01*
X139628571Y-71670000D01*
X139771428Y-71622380D01*
X139866666Y-71622380D01*
X140009523Y-71670000D01*
X140057142Y-71717619D01*
X140438095Y-71717619D02*
X140485714Y-71670000D01*
X140580952Y-71622380D01*
X140819047Y-71622380D01*
X140914285Y-71670000D01*
X140961904Y-71717619D01*
X141009523Y-71812857D01*
X141009523Y-71908095D01*
X140961904Y-72050952D01*
X140390476Y-72622380D01*
X141009523Y-72622380D01*
X141342857Y-71622380D02*
X142009523Y-71622380D01*
X141580952Y-72622380D01*
X141757142Y-91457142D02*
X141709523Y-91504761D01*
X141566666Y-91552380D01*
X141471428Y-91552380D01*
X141328571Y-91504761D01*
X141233333Y-91409523D01*
X141185714Y-91314285D01*
X141138095Y-91123809D01*
X141138095Y-90980952D01*
X141185714Y-90790476D01*
X141233333Y-90695238D01*
X141328571Y-90600000D01*
X141471428Y-90552380D01*
X141566666Y-90552380D01*
X141709523Y-90600000D01*
X141757142Y-90647619D01*
X142138095Y-90647619D02*
X142185714Y-90600000D01*
X142280952Y-90552380D01*
X142519047Y-90552380D01*
X142614285Y-90600000D01*
X142661904Y-90647619D01*
X142709523Y-90742857D01*
X142709523Y-90838095D01*
X142661904Y-90980952D01*
X142090476Y-91552380D01*
X142709523Y-91552380D01*
X143566666Y-90552380D02*
X143376190Y-90552380D01*
X143280952Y-90600000D01*
X143233333Y-90647619D01*
X143138095Y-90790476D01*
X143090476Y-90980952D01*
X143090476Y-91361904D01*
X143138095Y-91457142D01*
X143185714Y-91504761D01*
X143280952Y-91552380D01*
X143471428Y-91552380D01*
X143566666Y-91504761D01*
X143614285Y-91457142D01*
X143661904Y-91361904D01*
X143661904Y-91123809D01*
X143614285Y-91028571D01*
X143566666Y-90980952D01*
X143471428Y-90933333D01*
X143280952Y-90933333D01*
X143185714Y-90980952D01*
X143138095Y-91028571D01*
X143090476Y-91123809D01*
X138007142Y-91457142D02*
X137959523Y-91504761D01*
X137816666Y-91552380D01*
X137721428Y-91552380D01*
X137578571Y-91504761D01*
X137483333Y-91409523D01*
X137435714Y-91314285D01*
X137388095Y-91123809D01*
X137388095Y-90980952D01*
X137435714Y-90790476D01*
X137483333Y-90695238D01*
X137578571Y-90600000D01*
X137721428Y-90552380D01*
X137816666Y-90552380D01*
X137959523Y-90600000D01*
X138007142Y-90647619D01*
X138388095Y-90647619D02*
X138435714Y-90600000D01*
X138530952Y-90552380D01*
X138769047Y-90552380D01*
X138864285Y-90600000D01*
X138911904Y-90647619D01*
X138959523Y-90742857D01*
X138959523Y-90838095D01*
X138911904Y-90980952D01*
X138340476Y-91552380D01*
X138959523Y-91552380D01*
X139864285Y-90552380D02*
X139388095Y-90552380D01*
X139340476Y-91028571D01*
X139388095Y-90980952D01*
X139483333Y-90933333D01*
X139721428Y-90933333D01*
X139816666Y-90980952D01*
X139864285Y-91028571D01*
X139911904Y-91123809D01*
X139911904Y-91361904D01*
X139864285Y-91457142D01*
X139816666Y-91504761D01*
X139721428Y-91552380D01*
X139483333Y-91552380D01*
X139388095Y-91504761D01*
X139340476Y-91457142D01*
X147504761Y-102612380D02*
X147171428Y-102136190D01*
X146933333Y-102612380D02*
X146933333Y-101612380D01*
X147314285Y-101612380D01*
X147409523Y-101660000D01*
X147457142Y-101707619D01*
X147504761Y-101802857D01*
X147504761Y-101945714D01*
X147457142Y-102040952D01*
X147409523Y-102088571D01*
X147314285Y-102136190D01*
X146933333Y-102136190D01*
X147790476Y-101612380D02*
X148123809Y-102612380D01*
X148457142Y-101612380D01*
X148742857Y-101707619D02*
X148790476Y-101660000D01*
X148885714Y-101612380D01*
X149123809Y-101612380D01*
X149219047Y-101660000D01*
X149266666Y-101707619D01*
X149314285Y-101802857D01*
X149314285Y-101898095D01*
X149266666Y-102040952D01*
X148695238Y-102612380D01*
X149314285Y-102612380D01*
X138104761Y-100802380D02*
X137771428Y-100326190D01*
X137533333Y-100802380D02*
X137533333Y-99802380D01*
X137914285Y-99802380D01*
X138009523Y-99850000D01*
X138057142Y-99897619D01*
X138104761Y-99992857D01*
X138104761Y-100135714D01*
X138057142Y-100230952D01*
X138009523Y-100278571D01*
X137914285Y-100326190D01*
X137533333Y-100326190D01*
X138390476Y-99802380D02*
X138723809Y-100802380D01*
X139057142Y-99802380D01*
X139914285Y-100802380D02*
X139342857Y-100802380D01*
X139628571Y-100802380D02*
X139628571Y-99802380D01*
X139533333Y-99945238D01*
X139438095Y-100040476D01*
X139342857Y-100088095D01*
X142457142Y-105502380D02*
X142123809Y-105026190D01*
X141885714Y-105502380D02*
X141885714Y-104502380D01*
X142266666Y-104502380D01*
X142361904Y-104550000D01*
X142409523Y-104597619D01*
X142457142Y-104692857D01*
X142457142Y-104835714D01*
X142409523Y-104930952D01*
X142361904Y-104978571D01*
X142266666Y-105026190D01*
X141885714Y-105026190D01*
X143409523Y-105502380D02*
X142838095Y-105502380D01*
X143123809Y-105502380D02*
X143123809Y-104502380D01*
X143028571Y-104645238D01*
X142933333Y-104740476D01*
X142838095Y-104788095D01*
X143980952Y-104930952D02*
X143885714Y-104883333D01*
X143838095Y-104835714D01*
X143790476Y-104740476D01*
X143790476Y-104692857D01*
X143838095Y-104597619D01*
X143885714Y-104550000D01*
X143980952Y-104502380D01*
X144171428Y-104502380D01*
X144266666Y-104550000D01*
X144314285Y-104597619D01*
X144361904Y-104692857D01*
X144361904Y-104740476D01*
X144314285Y-104835714D01*
X144266666Y-104883333D01*
X144171428Y-104930952D01*
X143980952Y-104930952D01*
X143885714Y-104978571D01*
X143838095Y-105026190D01*
X143790476Y-105121428D01*
X143790476Y-105311904D01*
X143838095Y-105407142D01*
X143885714Y-105454761D01*
X143980952Y-105502380D01*
X144171428Y-105502380D01*
X144266666Y-105454761D01*
X144314285Y-105407142D01*
X144361904Y-105311904D01*
X144361904Y-105121428D01*
X144314285Y-105026190D01*
X144266666Y-104978571D01*
X144171428Y-104930952D01*
X139352380Y-98642857D02*
X138876190Y-98976190D01*
X139352380Y-99214285D02*
X138352380Y-99214285D01*
X138352380Y-98833333D01*
X138400000Y-98738095D01*
X138447619Y-98690476D01*
X138542857Y-98642857D01*
X138685714Y-98642857D01*
X138780952Y-98690476D01*
X138828571Y-98738095D01*
X138876190Y-98833333D01*
X138876190Y-99214285D01*
X139352380Y-97690476D02*
X139352380Y-98261904D01*
X139352380Y-97976190D02*
X138352380Y-97976190D01*
X138495238Y-98071428D01*
X138590476Y-98166666D01*
X138638095Y-98261904D01*
X138352380Y-97357142D02*
X138352380Y-96690476D01*
X139352380Y-97119047D01*
X143657142Y-93702380D02*
X143323809Y-93226190D01*
X143085714Y-93702380D02*
X143085714Y-92702380D01*
X143466666Y-92702380D01*
X143561904Y-92750000D01*
X143609523Y-92797619D01*
X143657142Y-92892857D01*
X143657142Y-93035714D01*
X143609523Y-93130952D01*
X143561904Y-93178571D01*
X143466666Y-93226190D01*
X143085714Y-93226190D01*
X144609523Y-93702380D02*
X144038095Y-93702380D01*
X144323809Y-93702380D02*
X144323809Y-92702380D01*
X144228571Y-92845238D01*
X144133333Y-92940476D01*
X144038095Y-92988095D01*
X145466666Y-92702380D02*
X145276190Y-92702380D01*
X145180952Y-92750000D01*
X145133333Y-92797619D01*
X145038095Y-92940476D01*
X144990476Y-93130952D01*
X144990476Y-93511904D01*
X145038095Y-93607142D01*
X145085714Y-93654761D01*
X145180952Y-93702380D01*
X145371428Y-93702380D01*
X145466666Y-93654761D01*
X145514285Y-93607142D01*
X145561904Y-93511904D01*
X145561904Y-93273809D01*
X145514285Y-93178571D01*
X145466666Y-93130952D01*
X145371428Y-93083333D01*
X145180952Y-93083333D01*
X145085714Y-93130952D01*
X145038095Y-93178571D01*
X144990476Y-93273809D01*
X151902380Y-99342857D02*
X151426190Y-99676190D01*
X151902380Y-99914285D02*
X150902380Y-99914285D01*
X150902380Y-99533333D01*
X150950000Y-99438095D01*
X150997619Y-99390476D01*
X151092857Y-99342857D01*
X151235714Y-99342857D01*
X151330952Y-99390476D01*
X151378571Y-99438095D01*
X151426190Y-99533333D01*
X151426190Y-99914285D01*
X151902380Y-98390476D02*
X151902380Y-98961904D01*
X151902380Y-98676190D02*
X150902380Y-98676190D01*
X151045238Y-98771428D01*
X151140476Y-98866666D01*
X151188095Y-98961904D01*
X150902380Y-97485714D02*
X150902380Y-97961904D01*
X151378571Y-98009523D01*
X151330952Y-97961904D01*
X151283333Y-97866666D01*
X151283333Y-97628571D01*
X151330952Y-97533333D01*
X151378571Y-97485714D01*
X151473809Y-97438095D01*
X151711904Y-97438095D01*
X151807142Y-97485714D01*
X151854761Y-97533333D01*
X151902380Y-97628571D01*
X151902380Y-97866666D01*
X151854761Y-97961904D01*
X151807142Y-98009523D01*
X147557142Y-101802380D02*
X147223809Y-101326190D01*
X146985714Y-101802380D02*
X146985714Y-100802380D01*
X147366666Y-100802380D01*
X147461904Y-100850000D01*
X147509523Y-100897619D01*
X147557142Y-100992857D01*
X147557142Y-101135714D01*
X147509523Y-101230952D01*
X147461904Y-101278571D01*
X147366666Y-101326190D01*
X146985714Y-101326190D01*
X148509523Y-101802380D02*
X147938095Y-101802380D01*
X148223809Y-101802380D02*
X148223809Y-100802380D01*
X148128571Y-100945238D01*
X148033333Y-101040476D01*
X147938095Y-101088095D01*
X149366666Y-101135714D02*
X149366666Y-101802380D01*
X149128571Y-100754761D02*
X148890476Y-101469047D01*
X149509523Y-101469047D01*
X140107142Y-93652380D02*
X139773809Y-93176190D01*
X139535714Y-93652380D02*
X139535714Y-92652380D01*
X139916666Y-92652380D01*
X140011904Y-92700000D01*
X140059523Y-92747619D01*
X140107142Y-92842857D01*
X140107142Y-92985714D01*
X140059523Y-93080952D01*
X140011904Y-93128571D01*
X139916666Y-93176190D01*
X139535714Y-93176190D01*
X141059523Y-93652380D02*
X140488095Y-93652380D01*
X140773809Y-93652380D02*
X140773809Y-92652380D01*
X140678571Y-92795238D01*
X140583333Y-92890476D01*
X140488095Y-92938095D01*
X141392857Y-92652380D02*
X142011904Y-92652380D01*
X141678571Y-93033333D01*
X141821428Y-93033333D01*
X141916666Y-93080952D01*
X141964285Y-93128571D01*
X142011904Y-93223809D01*
X142011904Y-93461904D01*
X141964285Y-93557142D01*
X141916666Y-93604761D01*
X141821428Y-93652380D01*
X141535714Y-93652380D01*
X141440476Y-93604761D01*
X141392857Y-93557142D01*
X180683333Y-115602380D02*
X180350000Y-115126190D01*
X180111904Y-115602380D02*
X180111904Y-114602380D01*
X180492857Y-114602380D01*
X180588095Y-114650000D01*
X180635714Y-114697619D01*
X180683333Y-114792857D01*
X180683333Y-114935714D01*
X180635714Y-115030952D01*
X180588095Y-115078571D01*
X180492857Y-115126190D01*
X180111904Y-115126190D01*
X181016666Y-114602380D02*
X181683333Y-114602380D01*
X181254761Y-115602380D01*
X165666666Y-60452380D02*
X165666666Y-61166666D01*
X165619047Y-61309523D01*
X165523809Y-61404761D01*
X165380952Y-61452380D01*
X165285714Y-61452380D01*
X166095238Y-60547619D02*
X166142857Y-60500000D01*
X166238095Y-60452380D01*
X166476190Y-60452380D01*
X166571428Y-60500000D01*
X166619047Y-60547619D01*
X166666666Y-60642857D01*
X166666666Y-60738095D01*
X166619047Y-60880952D01*
X166047619Y-61452380D01*
X166666666Y-61452380D01*
X184726666Y-60452380D02*
X184726666Y-61166666D01*
X184679047Y-61309523D01*
X184583809Y-61404761D01*
X184440952Y-61452380D01*
X184345714Y-61452380D01*
X185107619Y-60452380D02*
X185726666Y-60452380D01*
X185393333Y-60833333D01*
X185536190Y-60833333D01*
X185631428Y-60880952D01*
X185679047Y-60928571D01*
X185726666Y-61023809D01*
X185726666Y-61261904D01*
X185679047Y-61357142D01*
X185631428Y-61404761D01*
X185536190Y-61452380D01*
X185250476Y-61452380D01*
X185155238Y-61404761D01*
X185107619Y-61357142D01*
X146606666Y-60352380D02*
X146606666Y-61066666D01*
X146559047Y-61209523D01*
X146463809Y-61304761D01*
X146320952Y-61352380D01*
X146225714Y-61352380D01*
X147606666Y-61352380D02*
X147035238Y-61352380D01*
X147320952Y-61352380D02*
X147320952Y-60352380D01*
X147225714Y-60495238D01*
X147130476Y-60590476D01*
X147035238Y-60638095D01*
X173252380Y-104361904D02*
X174061904Y-104361904D01*
X174157142Y-104314285D01*
X174204761Y-104266666D01*
X174252380Y-104171428D01*
X174252380Y-103980952D01*
X174204761Y-103885714D01*
X174157142Y-103838095D01*
X174061904Y-103790476D01*
X173252380Y-103790476D01*
X173252380Y-103409523D02*
X173252380Y-102790476D01*
X173633333Y-103123809D01*
X173633333Y-102980952D01*
X173680952Y-102885714D01*
X173728571Y-102838095D01*
X173823809Y-102790476D01*
X174061904Y-102790476D01*
X174157142Y-102838095D01*
X174204761Y-102885714D01*
X174252380Y-102980952D01*
X174252380Y-103266666D01*
X174204761Y-103361904D01*
X174157142Y-103409523D01*
X163352380Y-104361904D02*
X164161904Y-104361904D01*
X164257142Y-104314285D01*
X164304761Y-104266666D01*
X164352380Y-104171428D01*
X164352380Y-103980952D01*
X164304761Y-103885714D01*
X164257142Y-103838095D01*
X164161904Y-103790476D01*
X163352380Y-103790476D01*
X163447619Y-103361904D02*
X163400000Y-103314285D01*
X163352380Y-103219047D01*
X163352380Y-102980952D01*
X163400000Y-102885714D01*
X163447619Y-102838095D01*
X163542857Y-102790476D01*
X163638095Y-102790476D01*
X163780952Y-102838095D01*
X164352380Y-103409523D01*
X164352380Y-102790476D01*
X183052380Y-104361904D02*
X183861904Y-104361904D01*
X183957142Y-104314285D01*
X184004761Y-104266666D01*
X184052380Y-104171428D01*
X184052380Y-103980952D01*
X184004761Y-103885714D01*
X183957142Y-103838095D01*
X183861904Y-103790476D01*
X183052380Y-103790476D01*
X184052380Y-102790476D02*
X184052380Y-103361904D01*
X184052380Y-103076190D02*
X183052380Y-103076190D01*
X183195238Y-103171428D01*
X183290476Y-103266666D01*
X183338095Y-103361904D01*
X166457142Y-94407142D02*
X166409523Y-94454761D01*
X166266666Y-94502380D01*
X166171428Y-94502380D01*
X166028571Y-94454761D01*
X165933333Y-94359523D01*
X165885714Y-94264285D01*
X165838095Y-94073809D01*
X165838095Y-93930952D01*
X165885714Y-93740476D01*
X165933333Y-93645238D01*
X166028571Y-93550000D01*
X166171428Y-93502380D01*
X166266666Y-93502380D01*
X166409523Y-93550000D01*
X166457142Y-93597619D01*
X166838095Y-93597619D02*
X166885714Y-93550000D01*
X166980952Y-93502380D01*
X167219047Y-93502380D01*
X167314285Y-93550000D01*
X167361904Y-93597619D01*
X167409523Y-93692857D01*
X167409523Y-93788095D01*
X167361904Y-93930952D01*
X166790476Y-94502380D01*
X167409523Y-94502380D01*
X168361904Y-94502380D02*
X167790476Y-94502380D01*
X168076190Y-94502380D02*
X168076190Y-93502380D01*
X167980952Y-93645238D01*
X167885714Y-93740476D01*
X167790476Y-93788095D01*
X187137142Y-109642857D02*
X187184761Y-109690476D01*
X187232380Y-109833333D01*
X187232380Y-109928571D01*
X187184761Y-110071428D01*
X187089523Y-110166666D01*
X186994285Y-110214285D01*
X186803809Y-110261904D01*
X186660952Y-110261904D01*
X186470476Y-110214285D01*
X186375238Y-110166666D01*
X186280000Y-110071428D01*
X186232380Y-109928571D01*
X186232380Y-109833333D01*
X186280000Y-109690476D01*
X186327619Y-109642857D01*
X186327619Y-109261904D02*
X186280000Y-109214285D01*
X186232380Y-109119047D01*
X186232380Y-108880952D01*
X186280000Y-108785714D01*
X186327619Y-108738095D01*
X186422857Y-108690476D01*
X186518095Y-108690476D01*
X186660952Y-108738095D01*
X187232380Y-109309523D01*
X187232380Y-108690476D01*
X186565714Y-107833333D02*
X187232380Y-107833333D01*
X186184761Y-108071428D02*
X186899047Y-108309523D01*
X186899047Y-107690476D01*
X179657142Y-109857142D02*
X179609523Y-109904761D01*
X179466666Y-109952380D01*
X179371428Y-109952380D01*
X179228571Y-109904761D01*
X179133333Y-109809523D01*
X179085714Y-109714285D01*
X179038095Y-109523809D01*
X179038095Y-109380952D01*
X179085714Y-109190476D01*
X179133333Y-109095238D01*
X179228571Y-109000000D01*
X179371428Y-108952380D01*
X179466666Y-108952380D01*
X179609523Y-109000000D01*
X179657142Y-109047619D01*
X180038095Y-109047619D02*
X180085714Y-109000000D01*
X180180952Y-108952380D01*
X180419047Y-108952380D01*
X180514285Y-109000000D01*
X180561904Y-109047619D01*
X180609523Y-109142857D01*
X180609523Y-109238095D01*
X180561904Y-109380952D01*
X179990476Y-109952380D01*
X180609523Y-109952380D01*
X180942857Y-108952380D02*
X181561904Y-108952380D01*
X181228571Y-109333333D01*
X181371428Y-109333333D01*
X181466666Y-109380952D01*
X181514285Y-109428571D01*
X181561904Y-109523809D01*
X181561904Y-109761904D01*
X181514285Y-109857142D01*
X181466666Y-109904761D01*
X181371428Y-109952380D01*
X181085714Y-109952380D01*
X180990476Y-109904761D01*
X180942857Y-109857142D01*
X155027142Y-97792857D02*
X155074761Y-97840476D01*
X155122380Y-97983333D01*
X155122380Y-98078571D01*
X155074761Y-98221428D01*
X154979523Y-98316666D01*
X154884285Y-98364285D01*
X154693809Y-98411904D01*
X154550952Y-98411904D01*
X154360476Y-98364285D01*
X154265238Y-98316666D01*
X154170000Y-98221428D01*
X154122380Y-98078571D01*
X154122380Y-97983333D01*
X154170000Y-97840476D01*
X154217619Y-97792857D01*
X154217619Y-97411904D02*
X154170000Y-97364285D01*
X154122380Y-97269047D01*
X154122380Y-97030952D01*
X154170000Y-96935714D01*
X154217619Y-96888095D01*
X154312857Y-96840476D01*
X154408095Y-96840476D01*
X154550952Y-96888095D01*
X155122380Y-97459523D01*
X155122380Y-96840476D01*
X154217619Y-96459523D02*
X154170000Y-96411904D01*
X154122380Y-96316666D01*
X154122380Y-96078571D01*
X154170000Y-95983333D01*
X154217619Y-95935714D01*
X154312857Y-95888095D01*
X154408095Y-95888095D01*
X154550952Y-95935714D01*
X155122380Y-96507142D01*
X155122380Y-95888095D01*
X155069642Y-114022380D02*
X154736309Y-113546190D01*
X154498214Y-114022380D02*
X154498214Y-113022380D01*
X154879166Y-113022380D01*
X154974404Y-113070000D01*
X155022023Y-113117619D01*
X155069642Y-113212857D01*
X155069642Y-113355714D01*
X155022023Y-113450952D01*
X154974404Y-113498571D01*
X154879166Y-113546190D01*
X154498214Y-113546190D01*
X156022023Y-114022380D02*
X155450595Y-114022380D01*
X155736309Y-114022380D02*
X155736309Y-113022380D01*
X155641071Y-113165238D01*
X155545833Y-113260476D01*
X155450595Y-113308095D01*
X156402976Y-113117619D02*
X156450595Y-113070000D01*
X156545833Y-113022380D01*
X156783928Y-113022380D01*
X156879166Y-113070000D01*
X156926785Y-113117619D01*
X156974404Y-113212857D01*
X156974404Y-113308095D01*
X156926785Y-113450952D01*
X156355357Y-114022380D01*
X156974404Y-114022380D01*
X157428095Y-77622380D02*
X157428095Y-78431904D01*
X157475714Y-78527142D01*
X157523333Y-78574761D01*
X157618571Y-78622380D01*
X157809047Y-78622380D01*
X157904285Y-78574761D01*
X157951904Y-78527142D01*
X157999523Y-78431904D01*
X157999523Y-77622380D01*
X158951904Y-77622380D02*
X158475714Y-77622380D01*
X158428095Y-78098571D01*
X158475714Y-78050952D01*
X158570952Y-78003333D01*
X158809047Y-78003333D01*
X158904285Y-78050952D01*
X158951904Y-78098571D01*
X158999523Y-78193809D01*
X158999523Y-78431904D01*
X158951904Y-78527142D01*
X158904285Y-78574761D01*
X158809047Y-78622380D01*
X158570952Y-78622380D01*
X158475714Y-78574761D01*
X158428095Y-78527142D01*
X187702380Y-80611904D02*
X188511904Y-80611904D01*
X188607142Y-80564285D01*
X188654761Y-80516666D01*
X188702380Y-80421428D01*
X188702380Y-80230952D01*
X188654761Y-80135714D01*
X188607142Y-80088095D01*
X188511904Y-80040476D01*
X187702380Y-80040476D01*
X188035714Y-79135714D02*
X188702380Y-79135714D01*
X187654761Y-79373809D02*
X188369047Y-79611904D01*
X188369047Y-78992857D01*
X160557142Y-85732380D02*
X160223809Y-85256190D01*
X159985714Y-85732380D02*
X159985714Y-84732380D01*
X160366666Y-84732380D01*
X160461904Y-84780000D01*
X160509523Y-84827619D01*
X160557142Y-84922857D01*
X160557142Y-85065714D01*
X160509523Y-85160952D01*
X160461904Y-85208571D01*
X160366666Y-85256190D01*
X159985714Y-85256190D01*
X161509523Y-85732380D02*
X160938095Y-85732380D01*
X161223809Y-85732380D02*
X161223809Y-84732380D01*
X161128571Y-84875238D01*
X161033333Y-84970476D01*
X160938095Y-85018095D01*
X162461904Y-85732380D02*
X161890476Y-85732380D01*
X162176190Y-85732380D02*
X162176190Y-84732380D01*
X162080952Y-84875238D01*
X161985714Y-84970476D01*
X161890476Y-85018095D01*
X162552380Y-78092857D02*
X162076190Y-78426190D01*
X162552380Y-78664285D02*
X161552380Y-78664285D01*
X161552380Y-78283333D01*
X161600000Y-78188095D01*
X161647619Y-78140476D01*
X161742857Y-78092857D01*
X161885714Y-78092857D01*
X161980952Y-78140476D01*
X162028571Y-78188095D01*
X162076190Y-78283333D01*
X162076190Y-78664285D01*
X162552380Y-77140476D02*
X162552380Y-77711904D01*
X162552380Y-77426190D02*
X161552380Y-77426190D01*
X161695238Y-77521428D01*
X161790476Y-77616666D01*
X161838095Y-77711904D01*
X161552380Y-76521428D02*
X161552380Y-76426190D01*
X161600000Y-76330952D01*
X161647619Y-76283333D01*
X161742857Y-76235714D01*
X161933333Y-76188095D01*
X162171428Y-76188095D01*
X162361904Y-76235714D01*
X162457142Y-76283333D01*
X162504761Y-76330952D01*
X162552380Y-76426190D01*
X162552380Y-76521428D01*
X162504761Y-76616666D01*
X162457142Y-76664285D01*
X162361904Y-76711904D01*
X162171428Y-76759523D01*
X161933333Y-76759523D01*
X161742857Y-76711904D01*
X161647619Y-76664285D01*
X161600000Y-76616666D01*
X161552380Y-76521428D01*
X164507142Y-78392857D02*
X164554761Y-78440476D01*
X164602380Y-78583333D01*
X164602380Y-78678571D01*
X164554761Y-78821428D01*
X164459523Y-78916666D01*
X164364285Y-78964285D01*
X164173809Y-79011904D01*
X164030952Y-79011904D01*
X163840476Y-78964285D01*
X163745238Y-78916666D01*
X163650000Y-78821428D01*
X163602380Y-78678571D01*
X163602380Y-78583333D01*
X163650000Y-78440476D01*
X163697619Y-78392857D01*
X164602380Y-77440476D02*
X164602380Y-78011904D01*
X164602380Y-77726190D02*
X163602380Y-77726190D01*
X163745238Y-77821428D01*
X163840476Y-77916666D01*
X163888095Y-78011904D01*
X164602380Y-76964285D02*
X164602380Y-76773809D01*
X164554761Y-76678571D01*
X164507142Y-76630952D01*
X164364285Y-76535714D01*
X164173809Y-76488095D01*
X163792857Y-76488095D01*
X163697619Y-76535714D01*
X163650000Y-76583333D01*
X163602380Y-76678571D01*
X163602380Y-76869047D01*
X163650000Y-76964285D01*
X163697619Y-77011904D01*
X163792857Y-77059523D01*
X164030952Y-77059523D01*
X164126190Y-77011904D01*
X164173809Y-76964285D01*
X164221428Y-76869047D01*
X164221428Y-76678571D01*
X164173809Y-76583333D01*
X164126190Y-76535714D01*
X164030952Y-76488095D01*
X186072380Y-119713333D02*
X186786666Y-119713333D01*
X186929523Y-119760952D01*
X187024761Y-119856190D01*
X187072380Y-119999047D01*
X187072380Y-120094285D01*
X186072380Y-118760952D02*
X186072380Y-119237142D01*
X186548571Y-119284761D01*
X186500952Y-119237142D01*
X186453333Y-119141904D01*
X186453333Y-118903809D01*
X186500952Y-118808571D01*
X186548571Y-118760952D01*
X186643809Y-118713333D01*
X186881904Y-118713333D01*
X186977142Y-118760952D01*
X187024761Y-118808571D01*
X187072380Y-118903809D01*
X187072380Y-119141904D01*
X187024761Y-119237142D01*
X186977142Y-119284761D01*
X160072380Y-119713333D02*
X160786666Y-119713333D01*
X160929523Y-119760952D01*
X161024761Y-119856190D01*
X161072380Y-119999047D01*
X161072380Y-120094285D01*
X160405714Y-118808571D02*
X161072380Y-118808571D01*
X160024761Y-119046666D02*
X160739047Y-119284761D01*
X160739047Y-118665714D01*
X170933333Y-115552380D02*
X170600000Y-115076190D01*
X170361904Y-115552380D02*
X170361904Y-114552380D01*
X170742857Y-114552380D01*
X170838095Y-114600000D01*
X170885714Y-114647619D01*
X170933333Y-114742857D01*
X170933333Y-114885714D01*
X170885714Y-114980952D01*
X170838095Y-115028571D01*
X170742857Y-115076190D01*
X170361904Y-115076190D01*
X171409523Y-115552380D02*
X171600000Y-115552380D01*
X171695238Y-115504761D01*
X171742857Y-115457142D01*
X171838095Y-115314285D01*
X171885714Y-115123809D01*
X171885714Y-114742857D01*
X171838095Y-114647619D01*
X171790476Y-114600000D01*
X171695238Y-114552380D01*
X171504761Y-114552380D01*
X171409523Y-114600000D01*
X171361904Y-114647619D01*
X171314285Y-114742857D01*
X171314285Y-114980952D01*
X171361904Y-115076190D01*
X171409523Y-115123809D01*
X171504761Y-115171428D01*
X171695238Y-115171428D01*
X171790476Y-115123809D01*
X171838095Y-115076190D01*
X171885714Y-114980952D01*
X160933333Y-115602380D02*
X160600000Y-115126190D01*
X160361904Y-115602380D02*
X160361904Y-114602380D01*
X160742857Y-114602380D01*
X160838095Y-114650000D01*
X160885714Y-114697619D01*
X160933333Y-114792857D01*
X160933333Y-114935714D01*
X160885714Y-115030952D01*
X160838095Y-115078571D01*
X160742857Y-115126190D01*
X160361904Y-115126190D01*
X161504761Y-115030952D02*
X161409523Y-114983333D01*
X161361904Y-114935714D01*
X161314285Y-114840476D01*
X161314285Y-114792857D01*
X161361904Y-114697619D01*
X161409523Y-114650000D01*
X161504761Y-114602380D01*
X161695238Y-114602380D01*
X161790476Y-114650000D01*
X161838095Y-114697619D01*
X161885714Y-114792857D01*
X161885714Y-114840476D01*
X161838095Y-114935714D01*
X161790476Y-114983333D01*
X161695238Y-115030952D01*
X161504761Y-115030952D01*
X161409523Y-115078571D01*
X161361904Y-115126190D01*
X161314285Y-115221428D01*
X161314285Y-115411904D01*
X161361904Y-115507142D01*
X161409523Y-115554761D01*
X161504761Y-115602380D01*
X161695238Y-115602380D01*
X161790476Y-115554761D01*
X161838095Y-115507142D01*
X161885714Y-115411904D01*
X161885714Y-115221428D01*
X161838095Y-115126190D01*
X161790476Y-115078571D01*
X161695238Y-115030952D01*
X171433333Y-99252380D02*
X171100000Y-98776190D01*
X170861904Y-99252380D02*
X170861904Y-98252380D01*
X171242857Y-98252380D01*
X171338095Y-98300000D01*
X171385714Y-98347619D01*
X171433333Y-98442857D01*
X171433333Y-98585714D01*
X171385714Y-98680952D01*
X171338095Y-98728571D01*
X171242857Y-98776190D01*
X170861904Y-98776190D01*
X172290476Y-98252380D02*
X172100000Y-98252380D01*
X172004761Y-98300000D01*
X171957142Y-98347619D01*
X171861904Y-98490476D01*
X171814285Y-98680952D01*
X171814285Y-99061904D01*
X171861904Y-99157142D01*
X171909523Y-99204761D01*
X172004761Y-99252380D01*
X172195238Y-99252380D01*
X172290476Y-99204761D01*
X172338095Y-99157142D01*
X172385714Y-99061904D01*
X172385714Y-98823809D01*
X172338095Y-98728571D01*
X172290476Y-98680952D01*
X172195238Y-98633333D01*
X172004761Y-98633333D01*
X171909523Y-98680952D01*
X171861904Y-98728571D01*
X171814285Y-98823809D01*
X159383333Y-100652380D02*
X159050000Y-100176190D01*
X158811904Y-100652380D02*
X158811904Y-99652380D01*
X159192857Y-99652380D01*
X159288095Y-99700000D01*
X159335714Y-99747619D01*
X159383333Y-99842857D01*
X159383333Y-99985714D01*
X159335714Y-100080952D01*
X159288095Y-100128571D01*
X159192857Y-100176190D01*
X158811904Y-100176190D01*
X160288095Y-99652380D02*
X159811904Y-99652380D01*
X159764285Y-100128571D01*
X159811904Y-100080952D01*
X159907142Y-100033333D01*
X160145238Y-100033333D01*
X160240476Y-100080952D01*
X160288095Y-100128571D01*
X160335714Y-100223809D01*
X160335714Y-100461904D01*
X160288095Y-100557142D01*
X160240476Y-100604761D01*
X160145238Y-100652380D01*
X159907142Y-100652380D01*
X159811904Y-100604761D01*
X159764285Y-100557142D01*
X183233333Y-100452380D02*
X182900000Y-99976190D01*
X182661904Y-100452380D02*
X182661904Y-99452380D01*
X183042857Y-99452380D01*
X183138095Y-99500000D01*
X183185714Y-99547619D01*
X183233333Y-99642857D01*
X183233333Y-99785714D01*
X183185714Y-99880952D01*
X183138095Y-99928571D01*
X183042857Y-99976190D01*
X182661904Y-99976190D01*
X184090476Y-99785714D02*
X184090476Y-100452380D01*
X183852380Y-99404761D02*
X183614285Y-100119047D01*
X184233333Y-100119047D01*
X173683333Y-99102380D02*
X173350000Y-98626190D01*
X173111904Y-99102380D02*
X173111904Y-98102380D01*
X173492857Y-98102380D01*
X173588095Y-98150000D01*
X173635714Y-98197619D01*
X173683333Y-98292857D01*
X173683333Y-98435714D01*
X173635714Y-98530952D01*
X173588095Y-98578571D01*
X173492857Y-98626190D01*
X173111904Y-98626190D01*
X174016666Y-98102380D02*
X174635714Y-98102380D01*
X174302380Y-98483333D01*
X174445238Y-98483333D01*
X174540476Y-98530952D01*
X174588095Y-98578571D01*
X174635714Y-98673809D01*
X174635714Y-98911904D01*
X174588095Y-99007142D01*
X174540476Y-99054761D01*
X174445238Y-99102380D01*
X174159523Y-99102380D01*
X174064285Y-99054761D01*
X174016666Y-99007142D01*
X163583333Y-99452380D02*
X163250000Y-98976190D01*
X163011904Y-99452380D02*
X163011904Y-98452380D01*
X163392857Y-98452380D01*
X163488095Y-98500000D01*
X163535714Y-98547619D01*
X163583333Y-98642857D01*
X163583333Y-98785714D01*
X163535714Y-98880952D01*
X163488095Y-98928571D01*
X163392857Y-98976190D01*
X163011904Y-98976190D01*
X163964285Y-98547619D02*
X164011904Y-98500000D01*
X164107142Y-98452380D01*
X164345238Y-98452380D01*
X164440476Y-98500000D01*
X164488095Y-98547619D01*
X164535714Y-98642857D01*
X164535714Y-98738095D01*
X164488095Y-98880952D01*
X163916666Y-99452380D01*
X164535714Y-99452380D01*
X183233333Y-99052380D02*
X182900000Y-98576190D01*
X182661904Y-99052380D02*
X182661904Y-98052380D01*
X183042857Y-98052380D01*
X183138095Y-98100000D01*
X183185714Y-98147619D01*
X183233333Y-98242857D01*
X183233333Y-98385714D01*
X183185714Y-98480952D01*
X183138095Y-98528571D01*
X183042857Y-98576190D01*
X182661904Y-98576190D01*
X184185714Y-99052380D02*
X183614285Y-99052380D01*
X183900000Y-99052380D02*
X183900000Y-98052380D01*
X183804761Y-98195238D01*
X183709523Y-98290476D01*
X183614285Y-98338095D01*
X183757142Y-107157142D02*
X183709523Y-107204761D01*
X183566666Y-107252380D01*
X183471428Y-107252380D01*
X183328571Y-107204761D01*
X183233333Y-107109523D01*
X183185714Y-107014285D01*
X183138095Y-106823809D01*
X183138095Y-106680952D01*
X183185714Y-106490476D01*
X183233333Y-106395238D01*
X183328571Y-106300000D01*
X183471428Y-106252380D01*
X183566666Y-106252380D01*
X183709523Y-106300000D01*
X183757142Y-106347619D01*
X184709523Y-107252380D02*
X184138095Y-107252380D01*
X184423809Y-107252380D02*
X184423809Y-106252380D01*
X184328571Y-106395238D01*
X184233333Y-106490476D01*
X184138095Y-106538095D01*
X185042857Y-106252380D02*
X185709523Y-106252380D01*
X185280952Y-107252380D01*
X156757142Y-106957142D02*
X156709523Y-107004761D01*
X156566666Y-107052380D01*
X156471428Y-107052380D01*
X156328571Y-107004761D01*
X156233333Y-106909523D01*
X156185714Y-106814285D01*
X156138095Y-106623809D01*
X156138095Y-106480952D01*
X156185714Y-106290476D01*
X156233333Y-106195238D01*
X156328571Y-106100000D01*
X156471428Y-106052380D01*
X156566666Y-106052380D01*
X156709523Y-106100000D01*
X156757142Y-106147619D01*
X157709523Y-107052380D02*
X157138095Y-107052380D01*
X157423809Y-107052380D02*
X157423809Y-106052380D01*
X157328571Y-106195238D01*
X157233333Y-106290476D01*
X157138095Y-106338095D01*
X158566666Y-106385714D02*
X158566666Y-107052380D01*
X158328571Y-106004761D02*
X158090476Y-106719047D01*
X158709523Y-106719047D01*
X186387142Y-103642857D02*
X186434761Y-103690476D01*
X186482380Y-103833333D01*
X186482380Y-103928571D01*
X186434761Y-104071428D01*
X186339523Y-104166666D01*
X186244285Y-104214285D01*
X186053809Y-104261904D01*
X185910952Y-104261904D01*
X185720476Y-104214285D01*
X185625238Y-104166666D01*
X185530000Y-104071428D01*
X185482380Y-103928571D01*
X185482380Y-103833333D01*
X185530000Y-103690476D01*
X185577619Y-103642857D01*
X186482380Y-102690476D02*
X186482380Y-103261904D01*
X186482380Y-102976190D02*
X185482380Y-102976190D01*
X185625238Y-103071428D01*
X185720476Y-103166666D01*
X185768095Y-103261904D01*
X186482380Y-101738095D02*
X186482380Y-102309523D01*
X186482380Y-102023809D02*
X185482380Y-102023809D01*
X185625238Y-102119047D01*
X185720476Y-102214285D01*
X185768095Y-102309523D01*
X156127142Y-103166666D02*
X156174761Y-103214285D01*
X156222380Y-103357142D01*
X156222380Y-103452380D01*
X156174761Y-103595238D01*
X156079523Y-103690476D01*
X155984285Y-103738095D01*
X155793809Y-103785714D01*
X155650952Y-103785714D01*
X155460476Y-103738095D01*
X155365238Y-103690476D01*
X155270000Y-103595238D01*
X155222380Y-103452380D01*
X155222380Y-103357142D01*
X155270000Y-103214285D01*
X155317619Y-103166666D01*
X155650952Y-102595238D02*
X155603333Y-102690476D01*
X155555714Y-102738095D01*
X155460476Y-102785714D01*
X155412857Y-102785714D01*
X155317619Y-102738095D01*
X155270000Y-102690476D01*
X155222380Y-102595238D01*
X155222380Y-102404761D01*
X155270000Y-102309523D01*
X155317619Y-102261904D01*
X155412857Y-102214285D01*
X155460476Y-102214285D01*
X155555714Y-102261904D01*
X155603333Y-102309523D01*
X155650952Y-102404761D01*
X155650952Y-102595238D01*
X155698571Y-102690476D01*
X155746190Y-102738095D01*
X155841428Y-102785714D01*
X156031904Y-102785714D01*
X156127142Y-102738095D01*
X156174761Y-102690476D01*
X156222380Y-102595238D01*
X156222380Y-102404761D01*
X156174761Y-102309523D01*
X156127142Y-102261904D01*
X156031904Y-102214285D01*
X155841428Y-102214285D01*
X155746190Y-102261904D01*
X155698571Y-102309523D01*
X155650952Y-102404761D01*
X180337142Y-73726666D02*
X180384761Y-73774285D01*
X180432380Y-73917142D01*
X180432380Y-74012380D01*
X180384761Y-74155238D01*
X180289523Y-74250476D01*
X180194285Y-74298095D01*
X180003809Y-74345714D01*
X179860952Y-74345714D01*
X179670476Y-74298095D01*
X179575238Y-74250476D01*
X179480000Y-74155238D01*
X179432380Y-74012380D01*
X179432380Y-73917142D01*
X179480000Y-73774285D01*
X179527619Y-73726666D01*
X179432380Y-72821904D02*
X179432380Y-73298095D01*
X179908571Y-73345714D01*
X179860952Y-73298095D01*
X179813333Y-73202857D01*
X179813333Y-72964761D01*
X179860952Y-72869523D01*
X179908571Y-72821904D01*
X180003809Y-72774285D01*
X180241904Y-72774285D01*
X180337142Y-72821904D01*
X180384761Y-72869523D01*
X180432380Y-72964761D01*
X180432380Y-73202857D01*
X180384761Y-73298095D01*
X180337142Y-73345714D01*
X169187142Y-81416666D02*
X169234761Y-81464285D01*
X169282380Y-81607142D01*
X169282380Y-81702380D01*
X169234761Y-81845238D01*
X169139523Y-81940476D01*
X169044285Y-81988095D01*
X168853809Y-82035714D01*
X168710952Y-82035714D01*
X168520476Y-81988095D01*
X168425238Y-81940476D01*
X168330000Y-81845238D01*
X168282380Y-81702380D01*
X168282380Y-81607142D01*
X168330000Y-81464285D01*
X168377619Y-81416666D01*
X168615714Y-80559523D02*
X169282380Y-80559523D01*
X168234761Y-80797619D02*
X168949047Y-81035714D01*
X168949047Y-80416666D01*
X179737142Y-86586666D02*
X179784761Y-86634285D01*
X179832380Y-86777142D01*
X179832380Y-86872380D01*
X179784761Y-87015238D01*
X179689523Y-87110476D01*
X179594285Y-87158095D01*
X179403809Y-87205714D01*
X179260952Y-87205714D01*
X179070476Y-87158095D01*
X178975238Y-87110476D01*
X178880000Y-87015238D01*
X178832380Y-86872380D01*
X178832380Y-86777142D01*
X178880000Y-86634285D01*
X178927619Y-86586666D01*
X178832380Y-86253333D02*
X178832380Y-85634285D01*
X179213333Y-85967619D01*
X179213333Y-85824761D01*
X179260952Y-85729523D01*
X179308571Y-85681904D01*
X179403809Y-85634285D01*
X179641904Y-85634285D01*
X179737142Y-85681904D01*
X179784761Y-85729523D01*
X179832380Y-85824761D01*
X179832380Y-86110476D01*
X179784761Y-86205714D01*
X179737142Y-86253333D01*
X152607142Y-78616666D02*
X152654761Y-78664285D01*
X152702380Y-78807142D01*
X152702380Y-78902380D01*
X152654761Y-79045238D01*
X152559523Y-79140476D01*
X152464285Y-79188095D01*
X152273809Y-79235714D01*
X152130952Y-79235714D01*
X151940476Y-79188095D01*
X151845238Y-79140476D01*
X151750000Y-79045238D01*
X151702380Y-78902380D01*
X151702380Y-78807142D01*
X151750000Y-78664285D01*
X151797619Y-78616666D01*
X151797619Y-78235714D02*
X151750000Y-78188095D01*
X151702380Y-78092857D01*
X151702380Y-77854761D01*
X151750000Y-77759523D01*
X151797619Y-77711904D01*
X151892857Y-77664285D01*
X151988095Y-77664285D01*
X152130952Y-77711904D01*
X152702380Y-78283333D01*
X152702380Y-77664285D01*
X184257142Y-92816666D02*
X184304761Y-92864285D01*
X184352380Y-93007142D01*
X184352380Y-93102380D01*
X184304761Y-93245238D01*
X184209523Y-93340476D01*
X184114285Y-93388095D01*
X183923809Y-93435714D01*
X183780952Y-93435714D01*
X183590476Y-93388095D01*
X183495238Y-93340476D01*
X183400000Y-93245238D01*
X183352380Y-93102380D01*
X183352380Y-93007142D01*
X183400000Y-92864285D01*
X183447619Y-92816666D01*
X184352380Y-91864285D02*
X184352380Y-92435714D01*
X184352380Y-92150000D02*
X183352380Y-92150000D01*
X183495238Y-92245238D01*
X183590476Y-92340476D01*
X183638095Y-92435714D01*
M02*
