G04 #@! TF.GenerationSoftware,KiCad,Pcbnew,(5.1.4)-1*
G04 #@! TF.CreationDate,2020-03-14T09:34:49+01:00*
G04 #@! TF.ProjectId,wave_gen_amp,77617665-5f67-4656-9e5f-616d702e6b69,rev?*
G04 #@! TF.SameCoordinates,Original*
G04 #@! TF.FileFunction,Soldermask,Bot*
G04 #@! TF.FilePolarity,Negative*
%FSLAX46Y46*%
G04 Gerber Fmt 4.6, Leading zero omitted, Abs format (unit mm)*
G04 Created by KiCad (PCBNEW (5.1.4)-1) date 2020-03-14 09:34:49*
%MOMM*%
%LPD*%
G04 APERTURE LIST*
%ADD10C,0.100000*%
G04 APERTURE END LIST*
D10*
G36*
X176051000Y-125801200D02*
G01*
X171949000Y-125801200D01*
X171949000Y-118699200D01*
X176051000Y-118699200D01*
X176051000Y-125801200D01*
X176051000Y-125801200D01*
G37*
G36*
X150051000Y-125801200D02*
G01*
X145949000Y-125801200D01*
X145949000Y-118699200D01*
X150051000Y-118699200D01*
X150051000Y-125801200D01*
X150051000Y-125801200D01*
G37*
G36*
X160051000Y-125801200D02*
G01*
X155949000Y-125801200D01*
X155949000Y-118699200D01*
X160051000Y-118699200D01*
X160051000Y-125801200D01*
X160051000Y-125801200D01*
G37*
G36*
X186051000Y-125801200D02*
G01*
X181949000Y-125801200D01*
X181949000Y-118699200D01*
X186051000Y-118699200D01*
X186051000Y-125801200D01*
X186051000Y-125801200D01*
G37*
G36*
X140244098Y-110047033D02*
G01*
X140708350Y-110239332D01*
X140708352Y-110239333D01*
X141126168Y-110518509D01*
X141481491Y-110873832D01*
X141760667Y-111291648D01*
X141760668Y-111291650D01*
X141952967Y-111755902D01*
X142051000Y-112248747D01*
X142051000Y-112751253D01*
X141952967Y-113244098D01*
X141760668Y-113708350D01*
X141760667Y-113708352D01*
X141481491Y-114126168D01*
X141126168Y-114481491D01*
X140708352Y-114760667D01*
X140708351Y-114760668D01*
X140708350Y-114760668D01*
X140244098Y-114952967D01*
X139751253Y-115051000D01*
X139248747Y-115051000D01*
X138755902Y-114952967D01*
X138291650Y-114760668D01*
X138291649Y-114760668D01*
X138291648Y-114760667D01*
X137873832Y-114481491D01*
X137518509Y-114126168D01*
X137239333Y-113708352D01*
X137239332Y-113708350D01*
X137047033Y-113244098D01*
X136949000Y-112751253D01*
X136949000Y-112248747D01*
X137047033Y-111755902D01*
X137239332Y-111291650D01*
X137239333Y-111291648D01*
X137518509Y-110873832D01*
X137873832Y-110518509D01*
X138291648Y-110239333D01*
X138291650Y-110239332D01*
X138755902Y-110047033D01*
X139248747Y-109949000D01*
X139751253Y-109949000D01*
X140244098Y-110047033D01*
X140244098Y-110047033D01*
G37*
G36*
X193244098Y-110047033D02*
G01*
X193708350Y-110239332D01*
X193708352Y-110239333D01*
X194126168Y-110518509D01*
X194481491Y-110873832D01*
X194760667Y-111291648D01*
X194760668Y-111291650D01*
X194952967Y-111755902D01*
X195051000Y-112248747D01*
X195051000Y-112751253D01*
X194952967Y-113244098D01*
X194760668Y-113708350D01*
X194760667Y-113708352D01*
X194481491Y-114126168D01*
X194126168Y-114481491D01*
X193708352Y-114760667D01*
X193708351Y-114760668D01*
X193708350Y-114760668D01*
X193244098Y-114952967D01*
X192751253Y-115051000D01*
X192248747Y-115051000D01*
X191755902Y-114952967D01*
X191291650Y-114760668D01*
X191291649Y-114760668D01*
X191291648Y-114760667D01*
X190873832Y-114481491D01*
X190518509Y-114126168D01*
X190239333Y-113708352D01*
X190239332Y-113708350D01*
X190047033Y-113244098D01*
X189949000Y-112751253D01*
X189949000Y-112248747D01*
X190047033Y-111755902D01*
X190239332Y-111291650D01*
X190239333Y-111291648D01*
X190518509Y-110873832D01*
X190873832Y-110518509D01*
X191291648Y-110239333D01*
X191291650Y-110239332D01*
X191755902Y-110047033D01*
X192248747Y-109949000D01*
X192751253Y-109949000D01*
X193244098Y-110047033D01*
X193244098Y-110047033D01*
G37*
G36*
X181558698Y-102702987D02*
G01*
X181591724Y-102713005D01*
X181622159Y-102729273D01*
X181648835Y-102751165D01*
X181670727Y-102777841D01*
X181686995Y-102808276D01*
X181697013Y-102841302D01*
X181701000Y-102881784D01*
X181701000Y-104318216D01*
X181697013Y-104358698D01*
X181686995Y-104391724D01*
X181670727Y-104422159D01*
X181648835Y-104448835D01*
X181622159Y-104470727D01*
X181591724Y-104486995D01*
X181558698Y-104497013D01*
X181518216Y-104501000D01*
X180081784Y-104501000D01*
X180041302Y-104497013D01*
X180008276Y-104486995D01*
X179977841Y-104470727D01*
X179951165Y-104448835D01*
X179929273Y-104422159D01*
X179913005Y-104391724D01*
X179902987Y-104358698D01*
X179899000Y-104318216D01*
X179899000Y-102881784D01*
X179902987Y-102841302D01*
X179913005Y-102808276D01*
X179929273Y-102777841D01*
X179951165Y-102751165D01*
X179977841Y-102729273D01*
X180008276Y-102713005D01*
X180041302Y-102702987D01*
X180081784Y-102699000D01*
X181518216Y-102699000D01*
X181558698Y-102702987D01*
X181558698Y-102702987D01*
G37*
G36*
X171758698Y-102702987D02*
G01*
X171791724Y-102713005D01*
X171822159Y-102729273D01*
X171848835Y-102751165D01*
X171870727Y-102777841D01*
X171886995Y-102808276D01*
X171897013Y-102841302D01*
X171901000Y-102881784D01*
X171901000Y-104318216D01*
X171897013Y-104358698D01*
X171886995Y-104391724D01*
X171870727Y-104422159D01*
X171848835Y-104448835D01*
X171822159Y-104470727D01*
X171791724Y-104486995D01*
X171758698Y-104497013D01*
X171718216Y-104501000D01*
X170281784Y-104501000D01*
X170241302Y-104497013D01*
X170208276Y-104486995D01*
X170177841Y-104470727D01*
X170151165Y-104448835D01*
X170129273Y-104422159D01*
X170113005Y-104391724D01*
X170102987Y-104358698D01*
X170099000Y-104318216D01*
X170099000Y-102881784D01*
X170102987Y-102841302D01*
X170113005Y-102808276D01*
X170129273Y-102777841D01*
X170151165Y-102751165D01*
X170177841Y-102729273D01*
X170208276Y-102713005D01*
X170241302Y-102702987D01*
X170281784Y-102699000D01*
X171718216Y-102699000D01*
X171758698Y-102702987D01*
X171758698Y-102702987D01*
G37*
G36*
X161858698Y-102702987D02*
G01*
X161891724Y-102713005D01*
X161922159Y-102729273D01*
X161948835Y-102751165D01*
X161970727Y-102777841D01*
X161986995Y-102808276D01*
X161997013Y-102841302D01*
X162001000Y-102881784D01*
X162001000Y-104318216D01*
X161997013Y-104358698D01*
X161986995Y-104391724D01*
X161970727Y-104422159D01*
X161948835Y-104448835D01*
X161922159Y-104470727D01*
X161891724Y-104486995D01*
X161858698Y-104497013D01*
X161818216Y-104501000D01*
X160381784Y-104501000D01*
X160341302Y-104497013D01*
X160308276Y-104486995D01*
X160277841Y-104470727D01*
X160251165Y-104448835D01*
X160229273Y-104422159D01*
X160213005Y-104391724D01*
X160202987Y-104358698D01*
X160199000Y-104318216D01*
X160199000Y-102881784D01*
X160202987Y-102841302D01*
X160213005Y-102808276D01*
X160229273Y-102777841D01*
X160251165Y-102751165D01*
X160277841Y-102729273D01*
X160308276Y-102713005D01*
X160341302Y-102702987D01*
X160381784Y-102699000D01*
X161818216Y-102699000D01*
X161858698Y-102702987D01*
X161858698Y-102702987D01*
G37*
G36*
X193551000Y-85351000D02*
G01*
X183949000Y-85351000D01*
X183949000Y-74349000D01*
X193551000Y-74349000D01*
X193551000Y-85351000D01*
X193551000Y-85351000D01*
G37*
G36*
X193244098Y-57047033D02*
G01*
X193708350Y-57239332D01*
X193708352Y-57239333D01*
X194126168Y-57518509D01*
X194481491Y-57873832D01*
X194760667Y-58291648D01*
X194760668Y-58291650D01*
X194952967Y-58755902D01*
X195051000Y-59248747D01*
X195051000Y-59751253D01*
X194952967Y-60244098D01*
X194760668Y-60708350D01*
X194760667Y-60708352D01*
X194481491Y-61126168D01*
X194126168Y-61481491D01*
X193708352Y-61760667D01*
X193708351Y-61760668D01*
X193708350Y-61760668D01*
X193244098Y-61952967D01*
X192751253Y-62051000D01*
X192248747Y-62051000D01*
X191755902Y-61952967D01*
X191291650Y-61760668D01*
X191291649Y-61760668D01*
X191291648Y-61760667D01*
X190873832Y-61481491D01*
X190518509Y-61126168D01*
X190239333Y-60708352D01*
X190239332Y-60708350D01*
X190047033Y-60244098D01*
X189949000Y-59751253D01*
X189949000Y-59248747D01*
X190047033Y-58755902D01*
X190239332Y-58291650D01*
X190239333Y-58291648D01*
X190518509Y-57873832D01*
X190873832Y-57518509D01*
X191291648Y-57239333D01*
X191291650Y-57239332D01*
X191755902Y-57047033D01*
X192248747Y-56949000D01*
X192751253Y-56949000D01*
X193244098Y-57047033D01*
X193244098Y-57047033D01*
G37*
G36*
X140244098Y-57047033D02*
G01*
X140708350Y-57239332D01*
X140708352Y-57239333D01*
X141126168Y-57518509D01*
X141481491Y-57873832D01*
X141760667Y-58291648D01*
X141760668Y-58291650D01*
X141952967Y-58755902D01*
X142051000Y-59248747D01*
X142051000Y-59751253D01*
X141952967Y-60244098D01*
X141760668Y-60708350D01*
X141760667Y-60708352D01*
X141481491Y-61126168D01*
X141126168Y-61481491D01*
X140708352Y-61760667D01*
X140708351Y-61760668D01*
X140708350Y-61760668D01*
X140244098Y-61952967D01*
X139751253Y-62051000D01*
X139248747Y-62051000D01*
X138755902Y-61952967D01*
X138291650Y-61760668D01*
X138291649Y-61760668D01*
X138291648Y-61760667D01*
X137873832Y-61481491D01*
X137518509Y-61126168D01*
X137239333Y-60708352D01*
X137239332Y-60708350D01*
X137047033Y-60244098D01*
X136949000Y-59751253D01*
X136949000Y-59248747D01*
X137047033Y-58755902D01*
X137239332Y-58291650D01*
X137239333Y-58291648D01*
X137518509Y-57873832D01*
X137873832Y-57518509D01*
X138291648Y-57239333D01*
X138291650Y-57239332D01*
X138755902Y-57047033D01*
X139248747Y-56949000D01*
X139751253Y-56949000D01*
X140244098Y-57047033D01*
X140244098Y-57047033D01*
G37*
M02*
