M48
; DRILL file {KiCad (5.1.4)-1} date 14/03/2020 09:35:12
; FORMAT={-:-/ absolute / inch / decimal}
; #@! TF.CreationDate,2020-03-14T09:35:12+01:00
; #@! TF.GenerationSoftware,Kicad,Pcbnew,(5.1.4)-1
FMAT,2
INCH
T1C0.0118
T2C0.0157
T3C0.1299
%
G90
G05
T1
X5.6575Y-3.9094
X5.7126Y-4.0157
X5.9055Y-3.9213
X6.0335Y-3.0256
X6.0472Y-2.8681
X6.1043Y-3.311
X6.1398Y-3.0689
X6.1398Y-3.1043
X6.1398Y-3.1043
X6.1752Y-3.0689
X6.1752Y-3.1043
X6.189Y-4.0236
X6.2067Y-3.2146
X6.2087Y-3.1417
X6.2087Y-3.1713
X6.2106Y-3.0689
X6.2106Y-3.1043
X6.2283Y-3.1929
X6.2303Y-3.1201
X6.2402Y-4.0236
X6.2461Y-3.2146
X6.248Y-3.0689
X6.248Y-3.1417
X6.248Y-3.1713
X6.25Y-3.1043
X6.3071Y-3.0827
X6.3307Y-3.122
X6.3307Y-3.1614
X6.3403Y-3.0827
X6.3736Y-3.0827
X6.4068Y-3.0827
X6.4252Y-3.122
X6.4252Y-3.1614
X6.4291Y-4.1398
X6.4311Y-4.1772
X6.4311Y-4.2146
X6.4401Y-3.0827
X6.4665Y-4.1772
X6.4665Y-4.2146
X6.4733Y-3.0827
X6.5066Y-3.0827
X6.5398Y-3.0827
X6.5551Y-3.7717
X6.5731Y-3.0827
X6.6043Y-3.7717
X6.6063Y-3.0827
X6.8189Y-4.1417
X6.8209Y-4.1791
X6.8209Y-4.2165
X6.8563Y-4.1791
X6.8563Y-4.2165
X7.1181Y-3.878
X7.1969Y-4.1614
X7.2165Y-3.6063
X7.2165Y-3.6358
X7.2165Y-3.6693
X7.2323Y-4.2362
X7.2343Y-3.8504
X7.248Y-3.6063
X7.248Y-3.6358
X7.248Y-3.6693
X7.2638Y-4.2362
X7.2657Y-3.8504
X7.2717Y-4.0866
X7.2776Y-3.6063
X7.2776Y-3.6378
X7.2776Y-3.6693
X7.2992Y-4.2362
X7.3012Y-3.8504
X7.3091Y-3.6063
X7.3091Y-3.6378
X7.3091Y-3.6693
X7.311Y-4.1378
X7.315Y-4.0945
X6.7106Y-4.0571
X6.7106Y-4.0787
X6.7106Y-4.1004
X6.7323Y-4.0571
X6.7323Y-4.0787
X6.7323Y-4.1004
X6.7539Y-4.0571
X6.7539Y-4.0787
X6.7539Y-4.1004
X5.7677Y-4.7047
X5.7677Y-4.7441
X5.7677Y-4.7835
X5.7677Y-4.8228
X5.7677Y-4.8622
X5.7677Y-4.9016
X5.8071Y-4.7047
X5.8071Y-4.7441
X5.8071Y-4.7835
X5.8071Y-4.8228
X5.8071Y-4.8622
X5.8071Y-4.9016
X5.8465Y-4.7047
X5.8465Y-4.7441
X5.8465Y-4.7835
X5.8465Y-4.8228
X5.8465Y-4.8622
X5.8465Y-4.9016
X5.8858Y-4.7047
X5.8858Y-4.7441
X5.8858Y-4.7835
X5.8858Y-4.8228
X5.8858Y-4.8622
X5.8858Y-4.9016
X6.1614Y-4.7047
X6.1614Y-4.7441
X6.1614Y-4.7835
X6.1614Y-4.8228
X6.1614Y-4.8622
X6.1614Y-4.9016
X6.2008Y-4.7047
X6.2008Y-4.7441
X6.2008Y-4.7835
X6.2008Y-4.8228
X6.2008Y-4.8622
X6.2008Y-4.9016
X6.2402Y-4.7047
X6.2402Y-4.7441
X6.2402Y-4.7835
X6.2402Y-4.8228
X6.2402Y-4.8622
X6.2402Y-4.9016
X6.2795Y-4.7047
X6.2795Y-4.7441
X6.2795Y-4.7835
X6.2795Y-4.8228
X6.2795Y-4.8622
X6.2795Y-4.9016
X7.0965Y-4.0571
X7.0965Y-4.0787
X7.0965Y-4.1004
X7.1181Y-4.0571
X7.1181Y-4.0787
X7.1181Y-4.1004
X7.1398Y-4.0571
X7.1398Y-4.0787
X7.1398Y-4.1004
X6.3209Y-4.0571
X6.3209Y-4.0787
X6.3209Y-4.1004
X6.3425Y-4.0571
X6.3425Y-4.0787
X6.3425Y-4.1004
X6.3642Y-4.0571
X6.3642Y-4.0787
X6.3642Y-4.1004
X6.7913Y-4.7047
X6.7913Y-4.7441
X6.7913Y-4.7835
X6.7913Y-4.8228
X6.7913Y-4.8622
X6.7913Y-4.9016
X6.8307Y-4.7047
X6.8307Y-4.7441
X6.8307Y-4.7835
X6.8307Y-4.8228
X6.8307Y-4.8622
X6.8307Y-4.9016
X6.8701Y-4.7047
X6.8701Y-4.7441
X6.8701Y-4.7835
X6.8701Y-4.8228
X6.8701Y-4.8622
X6.8701Y-4.9016
X6.9094Y-4.7047
X6.9094Y-4.7441
X6.9094Y-4.7835
X6.9094Y-4.8228
X6.9094Y-4.8622
X6.9094Y-4.9016
X7.185Y-4.7047
X7.185Y-4.7441
X7.185Y-4.7835
X7.185Y-4.8228
X7.185Y-4.8622
X7.185Y-4.9016
X7.2244Y-4.7047
X7.2244Y-4.7441
X7.2244Y-4.7835
X7.2244Y-4.8228
X7.2244Y-4.8622
X7.2244Y-4.9016
X7.2638Y-4.7047
X7.2638Y-4.7441
X7.2638Y-4.7835
X7.2638Y-4.8228
X7.2638Y-4.8622
X7.2638Y-4.9016
X7.3031Y-4.7047
X7.3031Y-4.7441
X7.3031Y-4.7835
X7.3031Y-4.8228
X7.3031Y-4.8622
X7.3031Y-4.9016
T2
X5.4Y-2.5
X5.4Y-2.6
X5.4Y-2.7
X5.4Y-2.8
X5.4Y-2.9
X5.4Y-2.9
X5.4Y-3.0
X5.4Y-3.1
X5.4Y-3.2
X5.4Y-3.3
X5.4Y-3.5945
X5.4Y-3.6945
X5.4Y-3.7945
X5.4Y-3.8945
X5.4Y-4.3
X5.4Y-4.6
X5.4Y-4.7
X5.4Y-4.8
X5.4Y-4.9
X5.45Y-2.55
X5.45Y-2.65
X5.45Y-2.75
X5.45Y-2.85
X5.45Y-3.65
X5.45Y-3.75
X5.45Y-4.55
X5.45Y-4.65
X5.45Y-4.75
X5.45Y-4.85
X5.4528Y-4.1476
X5.4862Y-2.9311
X5.5Y-2.5
X5.5Y-2.6
X5.5Y-2.7
X5.5Y-2.8
X5.5Y-3.6
X5.5Y-4.2
X5.5Y-4.6
X5.5Y-4.7
X5.5Y-4.8
X5.5Y-4.9
X5.5118Y-3.7402
X5.55Y-2.55
X5.55Y-2.65
X5.55Y-2.75
X5.55Y-2.85
X5.55Y-3.05
X5.55Y-3.15
X5.55Y-3.25
X5.55Y-3.65
X5.55Y-4.65
X5.55Y-4.75
X5.55Y-4.85
X5.6Y-2.25
X5.6Y-2.5
X5.6Y-2.6
X5.6Y-2.7
X5.6Y-2.8
X5.6Y-3.1
X5.6Y-3.2
X5.6Y-3.3
X5.6Y-3.6
X5.6Y-4.5
X5.6Y-4.6
X5.6Y-4.7
X5.6Y-4.8
X5.6Y-4.9
X5.6181Y-4.0039
X5.6189Y-3.4024
X5.65Y-2.65
X5.65Y-2.75
X5.65Y-2.85
X5.65Y-3.05
X5.65Y-3.15
X5.65Y-3.25
X5.65Y-3.65
X5.65Y-4.45
X5.65Y-4.55
X5.65Y-4.65
X5.65Y-4.75
X5.65Y-4.85
X5.7Y-2.6
X5.7Y-2.7
X5.7Y-2.8
X5.7Y-3.0
X5.7Y-3.1
X5.7Y-3.2
X5.7Y-3.4
X5.7Y-3.6
X5.7Y-4.4
X5.7Y-4.5
X5.7Y-4.6
X5.7Y-4.7
X5.7Y-4.8
X5.7Y-4.9
X5.75Y-2.65
X5.75Y-2.75
X5.75Y-2.95
X5.75Y-3.05
X5.75Y-3.35
X5.75Y-3.45
X5.75Y-3.65
X5.75Y-4.45
X5.75Y-4.55
X5.75Y-4.65
X5.7713Y-4.0174
X5.7756Y-3.8543
X5.7874Y-4.2323
X5.7953Y-3.685
X5.8Y-3.3
X5.8Y-3.4
X5.8Y-3.5
X5.8Y-4.5
X5.8Y-4.6
X5.81Y-4.1063
X5.811Y-4.3819
X5.85Y-3.25
X5.85Y-3.35
X5.85Y-3.45
X5.85Y-3.55
X5.85Y-3.65
X5.85Y-4.55
X5.85Y-4.65
X5.9Y-3.3
X5.9Y-3.4
X5.9Y-3.5
X5.9Y-3.6
X5.9Y-3.7
X5.9Y-4.3
X5.9Y-4.4
X5.9Y-4.5
X5.9Y-4.6
X5.95Y-2.25
X5.95Y-2.35
X5.95Y-3.25
X5.95Y-4.35
X5.95Y-4.45
X5.95Y-4.55
X5.95Y-4.65
X5.95Y-4.7
X5.95Y-4.75
X5.95Y-4.8
X5.95Y-4.85
X5.95Y-4.9
X5.975Y-3.875
X5.975Y-3.925
X5.975Y-3.975
X6.0Y-2.3
X6.0Y-2.4
X6.0Y-2.5
X6.0Y-2.6
X6.0Y-2.7
X6.0Y-3.4
X6.05Y-2.25
X6.05Y-2.35
X6.05Y-2.45
X6.05Y-3.35
X6.05Y-3.45
X6.1Y-2.3
X6.1Y-2.4
X6.1Y-3.4
X6.1Y-4.75
X6.1Y-4.8
X6.1Y-4.85
X6.1Y-4.9
X6.1358Y-4.0728
X6.1358Y-4.1122
X6.1358Y-4.1496
X6.1496Y-3.8799
X6.15Y-2.25
X6.15Y-2.35
X6.15Y-2.45
X6.15Y-3.35
X6.15Y-3.45
X6.15Y-4.25
X6.15Y-4.35
X6.15Y-4.45
X6.1535Y-3.7677
X6.2Y-2.3
X6.2Y-2.4
X6.2Y-2.9
X6.2Y-3.0
X6.2Y-3.3
X6.2Y-3.4
X6.2Y-4.2
X6.2Y-4.3
X6.2Y-4.4
X6.2Y-4.5
X6.2067Y-3.8799
X6.2106Y-3.7677
X6.25Y-2.25
X6.25Y-2.35
X6.25Y-2.45
X6.25Y-2.55
X6.25Y-2.65
X6.25Y-4.25
X6.25Y-4.35
X6.25Y-4.45
X6.25Y-4.55
X6.3Y-2.3
X6.3Y-2.4
X6.3Y-2.5
X6.3Y-2.6
X6.3Y-2.7
X6.3Y-3.0
X6.3Y-4.35
X6.35Y-2.25
X6.35Y-2.35
X6.35Y-2.45
X6.35Y-2.55
X6.35Y-2.65
X6.35Y-4.35
X6.35Y-4.65
X6.35Y-4.75
X6.35Y-4.85
X6.4Y-2.3
X6.4Y-2.4
X6.4Y-2.5
X6.4Y-2.6
X6.4Y-2.7
X6.4Y-3.0
X6.4Y-4.35
X6.4Y-4.7
X6.4Y-4.8
X6.4Y-4.9
X6.4409Y-3.9882
X6.45Y-2.25
X6.45Y-2.35
X6.45Y-2.45
X6.45Y-2.55
X6.45Y-2.65
X6.45Y-2.95
X6.45Y-4.45
X6.45Y-4.65
X6.45Y-4.75
X6.45Y-4.85
X6.475Y-3.725
X6.475Y-3.775
X6.4764Y-4.2874
X6.4764Y-4.3366
X6.4783Y-3.9882
X6.5Y-2.3
X6.5Y-2.4
X6.5Y-2.5
X6.5Y-2.6
X6.5Y-2.7
X6.5Y-2.9
X6.5Y-3.0
X6.5Y-4.1988
X6.5Y-4.45
X6.5Y-4.8
X6.5Y-4.9
X6.5157Y-3.9882
X6.5177Y-4.2343
X6.5197Y-4.1673
X6.5354Y-4.0236
X6.55Y-2.25
X6.55Y-2.35
X6.55Y-2.45
X6.55Y-2.55
X6.55Y-2.65
X6.55Y-2.85
X6.55Y-2.95
X6.55Y-3.6
X6.55Y-4.45
X6.55Y-4.65
X6.55Y-4.75
X6.55Y-4.85
X6.5571Y-3.8858
X6.561Y-4.2047
X6.5846Y-4.2343
X6.5866Y-4.1772
X6.5886Y-4.2894
X6.6Y-2.3
X6.6Y-2.4
X6.6Y-2.5
X6.6Y-2.6
X6.6Y-2.7
X6.6Y-2.9
X6.6Y-3.0
X6.6Y-4.45
X6.6Y-4.8
X6.6Y-4.9
X6.6063Y-3.8839
X6.6417Y-3.9469
X6.6417Y-3.9843
X6.6417Y-4.0217
X6.6476Y-4.1457
X6.6476Y-4.1831
X6.6476Y-4.2205
X6.6476Y-4.2579
X6.65Y-2.25
X6.65Y-2.35
X6.65Y-2.45
X6.65Y-2.55
X6.65Y-2.65
X6.65Y-2.85
X6.65Y-2.95
X6.65Y-3.45
X6.65Y-3.6
X6.65Y-4.45
X6.65Y-4.65
X6.65Y-4.75
X6.65Y-4.85
X6.7Y-2.3
X6.7Y-2.4
X6.7Y-2.5
X6.7Y-2.6
X6.7Y-2.7
X6.7Y-2.9
X6.7Y-3.0
X6.7Y-3.1
X6.7Y-3.2
X6.7Y-3.3
X6.7Y-3.4
X6.7Y-3.65
X6.7Y-4.7
X6.7Y-4.8
X6.7Y-4.9
X6.75Y-2.25
X6.75Y-2.35
X6.75Y-2.45
X6.75Y-2.55
X6.75Y-2.65
X6.75Y-2.85
X6.75Y-2.95
X6.75Y-3.05
X6.75Y-3.15
X6.75Y-3.25
X6.75Y-3.35
X6.75Y-3.45
X6.75Y-3.6
X6.75Y-3.7
X6.75Y-4.65
X6.75Y-4.75
X6.75Y-4.85
X6.8Y-2.3
X6.8Y-2.4
X6.8Y-2.5
X6.8Y-2.6
X6.8Y-2.7
X6.8Y-2.9
X6.8Y-3.0
X6.8Y-3.1
X6.8Y-3.2
X6.8Y-3.3
X6.8Y-3.4
X6.8Y-3.65
X6.8Y-3.75
X6.85Y-2.25
X6.85Y-2.35
X6.85Y-2.45
X6.85Y-2.55
X6.85Y-2.65
X6.85Y-3.05
X6.85Y-3.15
X6.85Y-3.25
X6.85Y-3.6
X6.85Y-3.7
X6.85Y-4.45
X6.8681Y-4.2972
X6.8681Y-4.3465
X6.8898Y-4.2047
X6.9Y-2.3
X6.9Y-2.4
X6.9Y-2.5
X6.9Y-2.6
X6.9Y-2.7
X6.9Y-3.0
X6.9Y-3.1
X6.9Y-3.2
X6.9Y-3.3
X6.9Y-4.45
X6.9075Y-4.2402
X6.9094Y-4.1732
X6.9252Y-4.0236
X6.9429Y-3.8858
X6.95Y-2.25
X6.95Y-4.45
X6.9508Y-4.2087
X6.9744Y-4.2382
X6.9764Y-4.1811
X6.9823Y-4.2894
X6.9961Y-3.8858
X7.0Y-3.7
X7.0Y-4.45
X7.0207Y-2.7687
X7.0236Y-3.937
X7.0236Y-3.9744
X7.0236Y-4.0138
X7.0335Y-4.1457
X7.0335Y-4.1831
X7.0335Y-4.2205
X7.0335Y-4.2579
X7.05Y-2.25
X7.05Y-3.75
X7.1Y-3.7
X7.1Y-3.8
X7.15Y-2.65
X7.15Y-2.75
X7.15Y-2.85
X7.15Y-4.55
X7.1791Y-3.7343
X7.1791Y-3.7972
X7.2Y-2.6
X7.2Y-2.7
X7.2Y-2.8
X7.2Y-2.9
X7.2Y-4.5
X7.25Y-2.65
X7.25Y-2.75
X7.25Y-2.85
X7.25Y-3.45
X7.25Y-4.45
X7.25Y-4.55
X7.2894Y-3.7362
X7.2894Y-3.7972
X7.3Y-2.6
X7.3Y-2.7
X7.3Y-2.8
X7.3Y-2.9
X7.3Y-3.4
X7.35Y-2.65
X7.35Y-2.75
X7.35Y-2.85
X7.35Y-3.45
X7.4Y-2.6
X7.4Y-2.7
X7.4Y-2.8
X7.4Y-2.9
X7.4Y-3.4
X7.4Y-4.4
X7.4Y-4.7
X7.4Y-4.8
X7.4Y-4.9
X7.4291Y-4.2382
X7.4291Y-4.2854
X7.45Y-2.25
X7.45Y-2.35
X7.45Y-2.45
X7.45Y-2.55
X7.45Y-2.65
X7.45Y-2.75
X7.45Y-2.85
X7.45Y-3.45
X7.45Y-3.55
X7.45Y-3.65
X7.45Y-3.75
X7.45Y-3.85
X7.45Y-3.95
X7.45Y-4.05
X7.45Y-4.15
X7.45Y-4.55
X7.45Y-4.65
X7.45Y-4.75
X7.45Y-4.85
X7.5Y-2.5
X7.5Y-2.5
X7.5Y-2.6
X7.5Y-2.7
X7.5Y-2.8
X7.5Y-2.9
X7.5Y-3.4
X7.5Y-3.5
X7.5Y-3.6
X7.5Y-3.7
X7.5Y-3.8
X7.5Y-3.9
X7.5Y-4.0
X7.5Y-4.1
X7.5Y-4.2
X7.5Y-4.3
X7.5Y-4.6
X7.5Y-4.7
X7.5Y-4.8
X7.5Y-4.9
X7.55Y-2.55
X7.55Y-2.65
X7.55Y-2.75
X7.55Y-2.85
X7.55Y-3.45
X7.55Y-3.55
X7.55Y-3.65
X7.55Y-3.75
X7.55Y-3.85
X7.55Y-3.95
X7.55Y-4.05
X7.55Y-4.15
X7.55Y-4.25
X7.55Y-4.55
X7.55Y-4.65
X7.55Y-4.75
X7.55Y-4.85
X7.6Y-2.5
X7.6Y-2.6
X7.6Y-2.7
X7.6Y-2.8
X7.6Y-2.9
X7.6Y-3.4
X7.6Y-3.5
X7.6Y-3.6
X7.6Y-3.7
X7.6Y-3.8
X7.6Y-3.9
X7.6Y-4.0
X7.6Y-4.1
X7.6Y-4.2
X7.6Y-4.3
X7.6Y-4.6
X7.6Y-4.7
X7.6Y-4.8
X7.6Y-4.9
X7.65Y-2.45
X7.65Y-2.55
X7.65Y-2.65
X7.65Y-2.75
X7.65Y-2.85
X7.65Y-2.95
X7.65Y-3.05
X7.65Y-3.15
X7.65Y-3.25
X7.65Y-3.35
X7.65Y-3.45
X7.65Y-3.55
X7.65Y-3.65
X7.65Y-3.75
X7.65Y-3.85
X7.65Y-3.95
X7.65Y-4.05
X7.65Y-4.15
X7.65Y-4.25
X7.65Y-4.55
X7.65Y-4.65
X7.65Y-4.75
X7.65Y-4.85
X7.2886Y-2.9665
X7.2886Y-3.0165
X7.2886Y-3.0665
X7.2886Y-3.1165
X7.2886Y-3.1665
X7.2886Y-3.2165
X7.2886Y-3.2665
X7.2886Y-3.3165
X7.3386Y-2.9665
X7.3386Y-3.0165
X7.3386Y-3.0665
X7.3386Y-3.1165
X7.3386Y-3.1665
X7.3386Y-3.2165
X7.3386Y-3.2665
X7.3386Y-3.3165
X7.3886Y-2.9665
X7.3886Y-3.0165
X7.3886Y-3.0665
X7.3886Y-3.1165
X7.3886Y-3.1665
X7.3886Y-3.2165
X7.3886Y-3.2665
X7.3886Y-3.3165
X7.4386Y-2.9665
X7.4386Y-3.0165
X7.4386Y-3.0665
X7.4386Y-3.1165
X7.4386Y-3.1665
X7.4386Y-3.2165
X7.4386Y-3.2665
X7.4386Y-3.3165
X7.4886Y-2.9665
X7.4886Y-3.0165
X7.4886Y-3.0665
X7.4886Y-3.1165
X7.4886Y-3.1665
X7.4886Y-3.2165
X7.4886Y-3.2665
X7.4886Y-3.3165
X7.5386Y-2.9665
X7.5386Y-3.0165
X7.5386Y-3.0665
X7.5386Y-3.1165
X7.5386Y-3.1665
X7.5386Y-3.2165
X7.5386Y-3.2665
X7.5386Y-3.3165
X7.5886Y-2.9665
X7.5886Y-3.0165
X7.5886Y-3.0665
X7.5886Y-3.1165
X7.5886Y-3.1665
X7.5886Y-3.2165
X7.5886Y-3.2665
X7.5886Y-3.3165
T3
X5.4921Y-2.3425
X5.4921Y-4.4291
X7.5787Y-2.3425
X7.5787Y-4.4291
T0
M30
