G04 #@! TF.GenerationSoftware,KiCad,Pcbnew,(5.1.4)-1*
G04 #@! TF.CreationDate,2020-03-14T09:34:49+01:00*
G04 #@! TF.ProjectId,wave_gen_amp,77617665-5f67-4656-9e5f-616d702e6b69,rev?*
G04 #@! TF.SameCoordinates,Original*
G04 #@! TF.FileFunction,Paste,Bot*
G04 #@! TF.FilePolarity,Positive*
%FSLAX46Y46*%
G04 Gerber Fmt 4.6, Leading zero omitted, Abs format (unit mm)*
G04 Created by KiCad (PCBNEW (5.1.4)-1) date 2020-03-14 09:34:49*
%MOMM*%
%LPD*%
G04 APERTURE LIST*
%ADD10C,0.100000*%
%ADD11C,1.700000*%
%ADD12R,9.500000X10.900000*%
%ADD13R,4.000000X7.000000*%
G04 APERTURE END LIST*
D10*
G36*
X171624594Y-102751203D02*
G01*
X171648853Y-102754802D01*
X171672642Y-102760761D01*
X171695733Y-102769023D01*
X171717902Y-102779508D01*
X171738937Y-102792116D01*
X171758635Y-102806725D01*
X171776806Y-102823194D01*
X171793275Y-102841365D01*
X171807884Y-102861063D01*
X171820492Y-102882098D01*
X171830977Y-102904267D01*
X171839239Y-102927358D01*
X171845198Y-102951147D01*
X171848797Y-102975406D01*
X171850000Y-102999900D01*
X171850000Y-104200100D01*
X171848797Y-104224594D01*
X171845198Y-104248853D01*
X171839239Y-104272642D01*
X171830977Y-104295733D01*
X171820492Y-104317902D01*
X171807884Y-104338937D01*
X171793275Y-104358635D01*
X171776806Y-104376806D01*
X171758635Y-104393275D01*
X171738937Y-104407884D01*
X171717902Y-104420492D01*
X171695733Y-104430977D01*
X171672642Y-104439239D01*
X171648853Y-104445198D01*
X171624594Y-104448797D01*
X171600100Y-104450000D01*
X170399900Y-104450000D01*
X170375406Y-104448797D01*
X170351147Y-104445198D01*
X170327358Y-104439239D01*
X170304267Y-104430977D01*
X170282098Y-104420492D01*
X170261063Y-104407884D01*
X170241365Y-104393275D01*
X170223194Y-104376806D01*
X170206725Y-104358635D01*
X170192116Y-104338937D01*
X170179508Y-104317902D01*
X170169023Y-104295733D01*
X170160761Y-104272642D01*
X170154802Y-104248853D01*
X170151203Y-104224594D01*
X170150000Y-104200100D01*
X170150000Y-102999900D01*
X170151203Y-102975406D01*
X170154802Y-102951147D01*
X170160761Y-102927358D01*
X170169023Y-102904267D01*
X170179508Y-102882098D01*
X170192116Y-102861063D01*
X170206725Y-102841365D01*
X170223194Y-102823194D01*
X170241365Y-102806725D01*
X170261063Y-102792116D01*
X170282098Y-102779508D01*
X170304267Y-102769023D01*
X170327358Y-102760761D01*
X170351147Y-102754802D01*
X170375406Y-102751203D01*
X170399900Y-102750000D01*
X171600100Y-102750000D01*
X171624594Y-102751203D01*
X171624594Y-102751203D01*
G37*
D11*
X171000000Y-103600000D03*
D10*
G36*
X161724594Y-102751203D02*
G01*
X161748853Y-102754802D01*
X161772642Y-102760761D01*
X161795733Y-102769023D01*
X161817902Y-102779508D01*
X161838937Y-102792116D01*
X161858635Y-102806725D01*
X161876806Y-102823194D01*
X161893275Y-102841365D01*
X161907884Y-102861063D01*
X161920492Y-102882098D01*
X161930977Y-102904267D01*
X161939239Y-102927358D01*
X161945198Y-102951147D01*
X161948797Y-102975406D01*
X161950000Y-102999900D01*
X161950000Y-104200100D01*
X161948797Y-104224594D01*
X161945198Y-104248853D01*
X161939239Y-104272642D01*
X161930977Y-104295733D01*
X161920492Y-104317902D01*
X161907884Y-104338937D01*
X161893275Y-104358635D01*
X161876806Y-104376806D01*
X161858635Y-104393275D01*
X161838937Y-104407884D01*
X161817902Y-104420492D01*
X161795733Y-104430977D01*
X161772642Y-104439239D01*
X161748853Y-104445198D01*
X161724594Y-104448797D01*
X161700100Y-104450000D01*
X160499900Y-104450000D01*
X160475406Y-104448797D01*
X160451147Y-104445198D01*
X160427358Y-104439239D01*
X160404267Y-104430977D01*
X160382098Y-104420492D01*
X160361063Y-104407884D01*
X160341365Y-104393275D01*
X160323194Y-104376806D01*
X160306725Y-104358635D01*
X160292116Y-104338937D01*
X160279508Y-104317902D01*
X160269023Y-104295733D01*
X160260761Y-104272642D01*
X160254802Y-104248853D01*
X160251203Y-104224594D01*
X160250000Y-104200100D01*
X160250000Y-102999900D01*
X160251203Y-102975406D01*
X160254802Y-102951147D01*
X160260761Y-102927358D01*
X160269023Y-102904267D01*
X160279508Y-102882098D01*
X160292116Y-102861063D01*
X160306725Y-102841365D01*
X160323194Y-102823194D01*
X160341365Y-102806725D01*
X160361063Y-102792116D01*
X160382098Y-102779508D01*
X160404267Y-102769023D01*
X160427358Y-102760761D01*
X160451147Y-102754802D01*
X160475406Y-102751203D01*
X160499900Y-102750000D01*
X161700100Y-102750000D01*
X161724594Y-102751203D01*
X161724594Y-102751203D01*
G37*
D11*
X161100000Y-103600000D03*
D10*
G36*
X181424594Y-102751203D02*
G01*
X181448853Y-102754802D01*
X181472642Y-102760761D01*
X181495733Y-102769023D01*
X181517902Y-102779508D01*
X181538937Y-102792116D01*
X181558635Y-102806725D01*
X181576806Y-102823194D01*
X181593275Y-102841365D01*
X181607884Y-102861063D01*
X181620492Y-102882098D01*
X181630977Y-102904267D01*
X181639239Y-102927358D01*
X181645198Y-102951147D01*
X181648797Y-102975406D01*
X181650000Y-102999900D01*
X181650000Y-104200100D01*
X181648797Y-104224594D01*
X181645198Y-104248853D01*
X181639239Y-104272642D01*
X181630977Y-104295733D01*
X181620492Y-104317902D01*
X181607884Y-104338937D01*
X181593275Y-104358635D01*
X181576806Y-104376806D01*
X181558635Y-104393275D01*
X181538937Y-104407884D01*
X181517902Y-104420492D01*
X181495733Y-104430977D01*
X181472642Y-104439239D01*
X181448853Y-104445198D01*
X181424594Y-104448797D01*
X181400100Y-104450000D01*
X180199900Y-104450000D01*
X180175406Y-104448797D01*
X180151147Y-104445198D01*
X180127358Y-104439239D01*
X180104267Y-104430977D01*
X180082098Y-104420492D01*
X180061063Y-104407884D01*
X180041365Y-104393275D01*
X180023194Y-104376806D01*
X180006725Y-104358635D01*
X179992116Y-104338937D01*
X179979508Y-104317902D01*
X179969023Y-104295733D01*
X179960761Y-104272642D01*
X179954802Y-104248853D01*
X179951203Y-104224594D01*
X179950000Y-104200100D01*
X179950000Y-102999900D01*
X179951203Y-102975406D01*
X179954802Y-102951147D01*
X179960761Y-102927358D01*
X179969023Y-102904267D01*
X179979508Y-102882098D01*
X179992116Y-102861063D01*
X180006725Y-102841365D01*
X180023194Y-102823194D01*
X180041365Y-102806725D01*
X180061063Y-102792116D01*
X180082098Y-102779508D01*
X180104267Y-102769023D01*
X180127358Y-102760761D01*
X180151147Y-102754802D01*
X180175406Y-102751203D01*
X180199900Y-102750000D01*
X181400100Y-102750000D01*
X181424594Y-102751203D01*
X181424594Y-102751203D01*
G37*
D11*
X180800000Y-103600000D03*
D12*
X188750000Y-79850000D03*
D13*
X184000000Y-122250200D03*
X174000000Y-122250200D03*
X158000000Y-122250200D03*
X148000000Y-122250200D03*
M02*
