G04 #@! TF.GenerationSoftware,KiCad,Pcbnew,(5.1.4)-1*
G04 #@! TF.CreationDate,2020-03-14T09:34:49+01:00*
G04 #@! TF.ProjectId,wave_gen_amp,77617665-5f67-4656-9e5f-616d702e6b69,rev?*
G04 #@! TF.SameCoordinates,Original*
G04 #@! TF.FileFunction,Soldermask,Top*
G04 #@! TF.FilePolarity,Negative*
%FSLAX46Y46*%
G04 Gerber Fmt 4.6, Leading zero omitted, Abs format (unit mm)*
G04 Created by KiCad (PCBNEW (5.1.4)-1) date 2020-03-14 09:34:49*
%MOMM*%
%LPD*%
G04 APERTURE LIST*
%ADD10C,0.100000*%
G04 APERTURE END LIST*
D10*
G36*
X160051000Y-125801200D02*
G01*
X155949000Y-125801200D01*
X155949000Y-118699200D01*
X160051000Y-118699200D01*
X160051000Y-125801200D01*
X160051000Y-125801200D01*
G37*
G36*
X176051000Y-125801200D02*
G01*
X171949000Y-125801200D01*
X171949000Y-118699200D01*
X176051000Y-118699200D01*
X176051000Y-125801200D01*
X176051000Y-125801200D01*
G37*
G36*
X186051000Y-125801200D02*
G01*
X181949000Y-125801200D01*
X181949000Y-118699200D01*
X186051000Y-118699200D01*
X186051000Y-125801200D01*
X186051000Y-125801200D01*
G37*
G36*
X150051000Y-125801200D02*
G01*
X145949000Y-125801200D01*
X145949000Y-118699200D01*
X150051000Y-118699200D01*
X150051000Y-125801200D01*
X150051000Y-125801200D01*
G37*
G36*
X153801000Y-125781000D02*
G01*
X152199000Y-125781000D01*
X152199000Y-121679000D01*
X153801000Y-121679000D01*
X153801000Y-125781000D01*
X153801000Y-125781000D01*
G37*
G36*
X179801000Y-125781000D02*
G01*
X178199000Y-125781000D01*
X178199000Y-121679000D01*
X179801000Y-121679000D01*
X179801000Y-125781000D01*
X179801000Y-125781000D01*
G37*
G36*
X175251000Y-117951000D02*
G01*
X171149000Y-117951000D01*
X171149000Y-116849000D01*
X175251000Y-116849000D01*
X175251000Y-117951000D01*
X175251000Y-117951000D01*
G37*
G36*
X187651000Y-117951000D02*
G01*
X183549000Y-117951000D01*
X183549000Y-116849000D01*
X186424001Y-116849000D01*
X186448387Y-116846598D01*
X186471836Y-116839485D01*
X186493447Y-116827934D01*
X186512389Y-116812389D01*
X186527934Y-116793447D01*
X186539485Y-116771836D01*
X186546598Y-116748387D01*
X186549000Y-116724001D01*
X186549000Y-113349000D01*
X187651000Y-113349000D01*
X187651000Y-117951000D01*
X187651000Y-117951000D01*
G37*
G36*
X162651000Y-117951000D02*
G01*
X158549000Y-117951000D01*
X158549000Y-116849000D01*
X162651000Y-116849000D01*
X162651000Y-117951000D01*
X162651000Y-117951000D01*
G37*
G36*
X168951000Y-117951000D02*
G01*
X164849000Y-117951000D01*
X164849000Y-116849000D01*
X168951000Y-116849000D01*
X168951000Y-117951000D01*
X168951000Y-117951000D01*
G37*
G36*
X153651000Y-117451000D02*
G01*
X152549000Y-117451000D01*
X152549000Y-113349000D01*
X153651000Y-113349000D01*
X153651000Y-117451000D01*
X153651000Y-117451000D01*
G37*
G36*
X155267091Y-114478085D02*
G01*
X155301069Y-114488393D01*
X155332390Y-114505134D01*
X155359839Y-114527661D01*
X155382366Y-114555110D01*
X155399107Y-114586431D01*
X155409415Y-114620409D01*
X155413500Y-114661890D01*
X155413500Y-115338110D01*
X155409415Y-115379591D01*
X155399107Y-115413569D01*
X155382366Y-115444890D01*
X155359839Y-115472339D01*
X155332390Y-115494866D01*
X155301069Y-115511607D01*
X155267091Y-115521915D01*
X155225610Y-115526000D01*
X154624390Y-115526000D01*
X154582909Y-115521915D01*
X154548931Y-115511607D01*
X154517610Y-115494866D01*
X154490161Y-115472339D01*
X154467634Y-115444890D01*
X154450893Y-115413569D01*
X154440585Y-115379591D01*
X154436500Y-115338110D01*
X154436500Y-114661890D01*
X154440585Y-114620409D01*
X154450893Y-114586431D01*
X154467634Y-114555110D01*
X154490161Y-114527661D01*
X154517610Y-114505134D01*
X154548931Y-114488393D01*
X154582909Y-114478085D01*
X154624390Y-114474000D01*
X155225610Y-114474000D01*
X155267091Y-114478085D01*
X155267091Y-114478085D01*
G37*
G36*
X156842091Y-114478085D02*
G01*
X156876069Y-114488393D01*
X156907390Y-114505134D01*
X156934839Y-114527661D01*
X156957366Y-114555110D01*
X156974107Y-114586431D01*
X156984415Y-114620409D01*
X156988500Y-114661890D01*
X156988500Y-115338110D01*
X156984415Y-115379591D01*
X156974107Y-115413569D01*
X156957366Y-115444890D01*
X156934839Y-115472339D01*
X156907390Y-115494866D01*
X156876069Y-115511607D01*
X156842091Y-115521915D01*
X156800610Y-115526000D01*
X156199390Y-115526000D01*
X156157909Y-115521915D01*
X156123931Y-115511607D01*
X156092610Y-115494866D01*
X156065161Y-115472339D01*
X156042634Y-115444890D01*
X156025893Y-115413569D01*
X156015585Y-115379591D01*
X156011500Y-115338110D01*
X156011500Y-114661890D01*
X156015585Y-114620409D01*
X156025893Y-114586431D01*
X156042634Y-114555110D01*
X156065161Y-114527661D01*
X156092610Y-114505134D01*
X156123931Y-114488393D01*
X156157909Y-114478085D01*
X156199390Y-114474000D01*
X156800610Y-114474000D01*
X156842091Y-114478085D01*
X156842091Y-114478085D01*
G37*
G36*
X140244098Y-110047033D02*
G01*
X140708350Y-110239332D01*
X140708352Y-110239333D01*
X141126168Y-110518509D01*
X141481491Y-110873832D01*
X141760667Y-111291648D01*
X141760668Y-111291650D01*
X141952967Y-111755902D01*
X142051000Y-112248747D01*
X142051000Y-112751253D01*
X141952967Y-113244098D01*
X141817629Y-113570833D01*
X141760667Y-113708352D01*
X141481491Y-114126168D01*
X141126168Y-114481491D01*
X140708352Y-114760667D01*
X140708351Y-114760668D01*
X140708350Y-114760668D01*
X140244098Y-114952967D01*
X139751253Y-115051000D01*
X139248747Y-115051000D01*
X138755902Y-114952967D01*
X138291650Y-114760668D01*
X138291649Y-114760668D01*
X138291648Y-114760667D01*
X137873832Y-114481491D01*
X137518509Y-114126168D01*
X137239333Y-113708352D01*
X137182371Y-113570833D01*
X137047033Y-113244098D01*
X136949000Y-112751253D01*
X136949000Y-112248747D01*
X137047033Y-111755902D01*
X137239332Y-111291650D01*
X137239333Y-111291648D01*
X137518509Y-110873832D01*
X137873832Y-110518509D01*
X138291648Y-110239333D01*
X138291650Y-110239332D01*
X138755902Y-110047033D01*
X139248747Y-109949000D01*
X139751253Y-109949000D01*
X140244098Y-110047033D01*
X140244098Y-110047033D01*
G37*
G36*
X193244098Y-110047033D02*
G01*
X193708350Y-110239332D01*
X193708352Y-110239333D01*
X194126168Y-110518509D01*
X194481491Y-110873832D01*
X194760667Y-111291648D01*
X194760668Y-111291650D01*
X194952967Y-111755902D01*
X195051000Y-112248747D01*
X195051000Y-112751253D01*
X194952967Y-113244098D01*
X194817629Y-113570833D01*
X194760667Y-113708352D01*
X194481491Y-114126168D01*
X194126168Y-114481491D01*
X193708352Y-114760667D01*
X193708351Y-114760668D01*
X193708350Y-114760668D01*
X193244098Y-114952967D01*
X192751253Y-115051000D01*
X192248747Y-115051000D01*
X191755902Y-114952967D01*
X191291650Y-114760668D01*
X191291649Y-114760668D01*
X191291648Y-114760667D01*
X190873832Y-114481491D01*
X190518509Y-114126168D01*
X190239333Y-113708352D01*
X190182371Y-113570833D01*
X190047033Y-113244098D01*
X189949000Y-112751253D01*
X189949000Y-112248747D01*
X190047033Y-111755902D01*
X190239332Y-111291650D01*
X190239333Y-111291648D01*
X190518509Y-110873832D01*
X190873832Y-110518509D01*
X191291648Y-110239333D01*
X191291650Y-110239332D01*
X191755902Y-110047033D01*
X192248747Y-109949000D01*
X192751253Y-109949000D01*
X193244098Y-110047033D01*
X193244098Y-110047033D01*
G37*
G36*
X182032798Y-112128247D02*
G01*
X182068367Y-112139037D01*
X182101139Y-112156554D01*
X182129869Y-112180131D01*
X182153446Y-112208861D01*
X182170963Y-112241633D01*
X182181753Y-112277202D01*
X182186000Y-112320325D01*
X182186000Y-113379675D01*
X182181753Y-113422798D01*
X182170963Y-113458367D01*
X182153446Y-113491139D01*
X182129869Y-113519869D01*
X182101139Y-113543446D01*
X182068367Y-113560963D01*
X182032798Y-113571753D01*
X181989675Y-113576000D01*
X179630325Y-113576000D01*
X179587202Y-113571753D01*
X179551633Y-113560963D01*
X179518861Y-113543446D01*
X179490131Y-113519869D01*
X179466554Y-113491139D01*
X179449037Y-113458367D01*
X179438247Y-113422798D01*
X179434000Y-113379675D01*
X179434000Y-112320325D01*
X179438247Y-112277202D01*
X179449037Y-112241633D01*
X179466554Y-112208861D01*
X179490131Y-112180131D01*
X179518861Y-112156554D01*
X179551633Y-112139037D01*
X179587202Y-112128247D01*
X179630325Y-112124000D01*
X181989675Y-112124000D01*
X182032798Y-112128247D01*
X182032798Y-112128247D01*
G37*
G36*
X172222798Y-112128247D02*
G01*
X172258367Y-112139037D01*
X172291139Y-112156554D01*
X172319869Y-112180131D01*
X172343446Y-112208861D01*
X172360963Y-112241633D01*
X172371753Y-112277202D01*
X172376000Y-112320325D01*
X172376000Y-113379675D01*
X172371753Y-113422798D01*
X172360963Y-113458367D01*
X172343446Y-113491139D01*
X172319869Y-113519869D01*
X172291139Y-113543446D01*
X172258367Y-113560963D01*
X172222798Y-113571753D01*
X172179675Y-113576000D01*
X169820325Y-113576000D01*
X169777202Y-113571753D01*
X169741633Y-113560963D01*
X169708861Y-113543446D01*
X169680131Y-113519869D01*
X169656554Y-113491139D01*
X169639037Y-113458367D01*
X169628247Y-113422798D01*
X169624000Y-113379675D01*
X169624000Y-112320325D01*
X169628247Y-112277202D01*
X169639037Y-112241633D01*
X169656554Y-112208861D01*
X169680131Y-112180131D01*
X169708861Y-112156554D01*
X169741633Y-112139037D01*
X169777202Y-112128247D01*
X169820325Y-112124000D01*
X172179675Y-112124000D01*
X172222798Y-112128247D01*
X172222798Y-112128247D01*
G37*
G36*
X162322798Y-112128247D02*
G01*
X162358367Y-112139037D01*
X162391139Y-112156554D01*
X162419869Y-112180131D01*
X162443446Y-112208861D01*
X162460963Y-112241633D01*
X162471753Y-112277202D01*
X162476000Y-112320325D01*
X162476000Y-113379675D01*
X162471753Y-113422798D01*
X162460963Y-113458367D01*
X162443446Y-113491139D01*
X162419869Y-113519869D01*
X162391139Y-113543446D01*
X162358367Y-113560963D01*
X162322798Y-113571753D01*
X162279675Y-113576000D01*
X159920325Y-113576000D01*
X159877202Y-113571753D01*
X159841633Y-113560963D01*
X159808861Y-113543446D01*
X159780131Y-113519869D01*
X159756554Y-113491139D01*
X159739037Y-113458367D01*
X159728247Y-113422798D01*
X159724000Y-113379675D01*
X159724000Y-112320325D01*
X159728247Y-112277202D01*
X159739037Y-112241633D01*
X159756554Y-112208861D01*
X159780131Y-112180131D01*
X159808861Y-112156554D01*
X159841633Y-112139037D01*
X159877202Y-112128247D01*
X159920325Y-112124000D01*
X162279675Y-112124000D01*
X162322798Y-112128247D01*
X162322798Y-112128247D01*
G37*
G36*
X148002585Y-109578802D02*
G01*
X148152410Y-109608604D01*
X148434674Y-109725521D01*
X148688705Y-109895259D01*
X148904741Y-110111295D01*
X149074479Y-110365326D01*
X149137929Y-110518509D01*
X149191396Y-110647591D01*
X149236399Y-110873833D01*
X149251000Y-110947240D01*
X149251000Y-111252760D01*
X149191396Y-111552410D01*
X149074479Y-111834674D01*
X148904741Y-112088705D01*
X148688705Y-112304741D01*
X148434674Y-112474479D01*
X148152410Y-112591396D01*
X148002585Y-112621198D01*
X147852761Y-112651000D01*
X147547239Y-112651000D01*
X147397415Y-112621198D01*
X147247590Y-112591396D01*
X146965326Y-112474479D01*
X146711295Y-112304741D01*
X146495259Y-112088705D01*
X146325521Y-111834674D01*
X146208604Y-111552410D01*
X146149000Y-111252760D01*
X146149000Y-110947240D01*
X146163602Y-110873833D01*
X146208604Y-110647591D01*
X146262071Y-110518509D01*
X146325521Y-110365326D01*
X146495259Y-110111295D01*
X146711295Y-109895259D01*
X146965326Y-109725521D01*
X147247590Y-109608604D01*
X147397415Y-109578802D01*
X147547239Y-109549000D01*
X147852761Y-109549000D01*
X148002585Y-109578802D01*
X148002585Y-109578802D01*
G37*
G36*
X187651000Y-111451000D02*
G01*
X186549000Y-111451000D01*
X186549000Y-107349000D01*
X187651000Y-107349000D01*
X187651000Y-111451000D01*
X187651000Y-111451000D01*
G37*
G36*
X153651000Y-111451000D02*
G01*
X152549000Y-111451000D01*
X152549000Y-107349000D01*
X153651000Y-107349000D01*
X153651000Y-111451000D01*
X153651000Y-111451000D01*
G37*
G36*
X177818604Y-108428347D02*
G01*
X177855144Y-108439432D01*
X177888821Y-108457433D01*
X177918341Y-108481659D01*
X177942567Y-108511179D01*
X177960568Y-108544856D01*
X177971653Y-108581396D01*
X177976000Y-108625538D01*
X177976000Y-110974462D01*
X177971653Y-111018604D01*
X177960568Y-111055144D01*
X177942567Y-111088821D01*
X177918341Y-111118341D01*
X177888821Y-111142567D01*
X177855144Y-111160568D01*
X177818604Y-111171653D01*
X177774462Y-111176000D01*
X176825538Y-111176000D01*
X176781396Y-111171653D01*
X176744856Y-111160568D01*
X176711179Y-111142567D01*
X176681659Y-111118341D01*
X176657433Y-111088821D01*
X176639432Y-111055144D01*
X176628347Y-111018604D01*
X176624000Y-110974462D01*
X176624000Y-108625538D01*
X176628347Y-108581396D01*
X176639432Y-108544856D01*
X176657433Y-108511179D01*
X176681659Y-108481659D01*
X176711179Y-108457433D01*
X176744856Y-108439432D01*
X176781396Y-108428347D01*
X176825538Y-108424000D01*
X177774462Y-108424000D01*
X177818604Y-108428347D01*
X177818604Y-108428347D01*
G37*
G36*
X175018604Y-108428347D02*
G01*
X175055144Y-108439432D01*
X175088821Y-108457433D01*
X175118341Y-108481659D01*
X175142567Y-108511179D01*
X175160568Y-108544856D01*
X175171653Y-108581396D01*
X175176000Y-108625538D01*
X175176000Y-110974462D01*
X175171653Y-111018604D01*
X175160568Y-111055144D01*
X175142567Y-111088821D01*
X175118341Y-111118341D01*
X175088821Y-111142567D01*
X175055144Y-111160568D01*
X175018604Y-111171653D01*
X174974462Y-111176000D01*
X174025538Y-111176000D01*
X173981396Y-111171653D01*
X173944856Y-111160568D01*
X173911179Y-111142567D01*
X173881659Y-111118341D01*
X173857433Y-111088821D01*
X173839432Y-111055144D01*
X173828347Y-111018604D01*
X173824000Y-110974462D01*
X173824000Y-108625538D01*
X173828347Y-108581396D01*
X173839432Y-108544856D01*
X173857433Y-108511179D01*
X173881659Y-108481659D01*
X173911179Y-108457433D01*
X173944856Y-108439432D01*
X173981396Y-108428347D01*
X174025538Y-108424000D01*
X174974462Y-108424000D01*
X175018604Y-108428347D01*
X175018604Y-108428347D01*
G37*
G36*
X167868604Y-108328347D02*
G01*
X167905144Y-108339432D01*
X167938821Y-108357433D01*
X167968341Y-108381659D01*
X167992567Y-108411179D01*
X168010568Y-108444856D01*
X168021653Y-108481396D01*
X168026000Y-108525538D01*
X168026000Y-110874462D01*
X168021653Y-110918604D01*
X168010568Y-110955144D01*
X167992567Y-110988821D01*
X167968341Y-111018341D01*
X167938821Y-111042567D01*
X167905144Y-111060568D01*
X167868604Y-111071653D01*
X167824462Y-111076000D01*
X166875538Y-111076000D01*
X166831396Y-111071653D01*
X166794856Y-111060568D01*
X166761179Y-111042567D01*
X166731659Y-111018341D01*
X166707433Y-110988821D01*
X166689432Y-110955144D01*
X166678347Y-110918604D01*
X166674000Y-110874462D01*
X166674000Y-108525538D01*
X166678347Y-108481396D01*
X166689432Y-108444856D01*
X166707433Y-108411179D01*
X166731659Y-108381659D01*
X166761179Y-108357433D01*
X166794856Y-108339432D01*
X166831396Y-108328347D01*
X166875538Y-108324000D01*
X167824462Y-108324000D01*
X167868604Y-108328347D01*
X167868604Y-108328347D01*
G37*
G36*
X185718604Y-109728347D02*
G01*
X185755144Y-109739432D01*
X185788821Y-109757433D01*
X185818341Y-109781659D01*
X185842567Y-109811179D01*
X185860568Y-109844856D01*
X185871653Y-109881396D01*
X185876000Y-109925538D01*
X185876000Y-110874462D01*
X185871653Y-110918604D01*
X185860568Y-110955144D01*
X185842567Y-110988821D01*
X185818341Y-111018341D01*
X185788821Y-111042567D01*
X185755144Y-111060568D01*
X185718604Y-111071653D01*
X185674462Y-111076000D01*
X183325538Y-111076000D01*
X183281396Y-111071653D01*
X183244856Y-111060568D01*
X183211179Y-111042567D01*
X183181659Y-111018341D01*
X183157433Y-110988821D01*
X183139432Y-110955144D01*
X183128347Y-110918604D01*
X183124000Y-110874462D01*
X183124000Y-109925538D01*
X183128347Y-109881396D01*
X183139432Y-109844856D01*
X183157433Y-109811179D01*
X183181659Y-109781659D01*
X183211179Y-109757433D01*
X183244856Y-109739432D01*
X183281396Y-109728347D01*
X183325538Y-109724000D01*
X185674462Y-109724000D01*
X185718604Y-109728347D01*
X185718604Y-109728347D01*
G37*
G36*
X165068604Y-108328347D02*
G01*
X165105144Y-108339432D01*
X165138821Y-108357433D01*
X165168341Y-108381659D01*
X165192567Y-108411179D01*
X165210568Y-108444856D01*
X165221653Y-108481396D01*
X165226000Y-108525538D01*
X165226000Y-110874462D01*
X165221653Y-110918604D01*
X165210568Y-110955144D01*
X165192567Y-110988821D01*
X165168341Y-111018341D01*
X165138821Y-111042567D01*
X165105144Y-111060568D01*
X165068604Y-111071653D01*
X165024462Y-111076000D01*
X164075538Y-111076000D01*
X164031396Y-111071653D01*
X163994856Y-111060568D01*
X163961179Y-111042567D01*
X163931659Y-111018341D01*
X163907433Y-110988821D01*
X163889432Y-110955144D01*
X163878347Y-110918604D01*
X163874000Y-110874462D01*
X163874000Y-108525538D01*
X163878347Y-108481396D01*
X163889432Y-108444856D01*
X163907433Y-108411179D01*
X163931659Y-108381659D01*
X163961179Y-108357433D01*
X163994856Y-108339432D01*
X164031396Y-108328347D01*
X164075538Y-108324000D01*
X165024462Y-108324000D01*
X165068604Y-108328347D01*
X165068604Y-108328347D01*
G37*
G36*
X144302585Y-106478802D02*
G01*
X144452410Y-106508604D01*
X144734674Y-106625521D01*
X144988705Y-106795259D01*
X145204741Y-107011295D01*
X145374479Y-107265326D01*
X145491396Y-107547590D01*
X145491396Y-107547591D01*
X145529994Y-107741633D01*
X145551000Y-107847240D01*
X145551000Y-108152760D01*
X145491396Y-108452410D01*
X145374479Y-108734674D01*
X145204741Y-108988705D01*
X144988705Y-109204741D01*
X144734674Y-109374479D01*
X144452410Y-109491396D01*
X144302585Y-109521198D01*
X144152761Y-109551000D01*
X143847239Y-109551000D01*
X143697415Y-109521198D01*
X143547590Y-109491396D01*
X143265326Y-109374479D01*
X143011295Y-109204741D01*
X142795259Y-108988705D01*
X142625521Y-108734674D01*
X142508604Y-108452410D01*
X142449000Y-108152760D01*
X142449000Y-107847240D01*
X142470007Y-107741633D01*
X142508604Y-107547591D01*
X142508604Y-107547590D01*
X142625521Y-107265326D01*
X142795259Y-107011295D01*
X143011295Y-106795259D01*
X143265326Y-106625521D01*
X143547590Y-106508604D01*
X143697415Y-106478802D01*
X143847239Y-106449000D01*
X144152761Y-106449000D01*
X144302585Y-106478802D01*
X144302585Y-106478802D01*
G37*
G36*
X162322798Y-107628247D02*
G01*
X162358367Y-107639037D01*
X162391139Y-107656554D01*
X162419869Y-107680131D01*
X162443446Y-107708861D01*
X162460963Y-107741633D01*
X162471753Y-107777202D01*
X162476000Y-107820325D01*
X162476000Y-108879675D01*
X162471753Y-108922798D01*
X162460963Y-108958367D01*
X162443446Y-108991139D01*
X162419869Y-109019869D01*
X162391139Y-109043446D01*
X162358367Y-109060963D01*
X162322798Y-109071753D01*
X162279675Y-109076000D01*
X159920325Y-109076000D01*
X159877202Y-109071753D01*
X159841633Y-109060963D01*
X159808861Y-109043446D01*
X159780131Y-109019869D01*
X159756554Y-108991139D01*
X159739037Y-108958367D01*
X159728247Y-108922798D01*
X159724000Y-108879675D01*
X159724000Y-107820325D01*
X159728247Y-107777202D01*
X159739037Y-107741633D01*
X159756554Y-107708861D01*
X159780131Y-107680131D01*
X159808861Y-107656554D01*
X159841633Y-107639037D01*
X159877202Y-107628247D01*
X159920325Y-107624000D01*
X162279675Y-107624000D01*
X162322798Y-107628247D01*
X162322798Y-107628247D01*
G37*
G36*
X182032798Y-107628247D02*
G01*
X182068367Y-107639037D01*
X182101139Y-107656554D01*
X182129869Y-107680131D01*
X182153446Y-107708861D01*
X182170963Y-107741633D01*
X182181753Y-107777202D01*
X182186000Y-107820325D01*
X182186000Y-108879675D01*
X182181753Y-108922798D01*
X182170963Y-108958367D01*
X182153446Y-108991139D01*
X182129869Y-109019869D01*
X182101139Y-109043446D01*
X182068367Y-109060963D01*
X182032798Y-109071753D01*
X181989675Y-109076000D01*
X179630325Y-109076000D01*
X179587202Y-109071753D01*
X179551633Y-109060963D01*
X179518861Y-109043446D01*
X179490131Y-109019869D01*
X179466554Y-108991139D01*
X179449037Y-108958367D01*
X179438247Y-108922798D01*
X179434000Y-108879675D01*
X179434000Y-107820325D01*
X179438247Y-107777202D01*
X179449037Y-107741633D01*
X179466554Y-107708861D01*
X179490131Y-107680131D01*
X179518861Y-107656554D01*
X179551633Y-107639037D01*
X179587202Y-107628247D01*
X179630325Y-107624000D01*
X181989675Y-107624000D01*
X182032798Y-107628247D01*
X182032798Y-107628247D01*
G37*
G36*
X172222798Y-107628247D02*
G01*
X172258367Y-107639037D01*
X172291139Y-107656554D01*
X172319869Y-107680131D01*
X172343446Y-107708861D01*
X172360963Y-107741633D01*
X172371753Y-107777202D01*
X172376000Y-107820325D01*
X172376000Y-108879675D01*
X172371753Y-108922798D01*
X172360963Y-108958367D01*
X172343446Y-108991139D01*
X172319869Y-109019869D01*
X172291139Y-109043446D01*
X172258367Y-109060963D01*
X172222798Y-109071753D01*
X172179675Y-109076000D01*
X169820325Y-109076000D01*
X169777202Y-109071753D01*
X169741633Y-109060963D01*
X169708861Y-109043446D01*
X169680131Y-109019869D01*
X169656554Y-108991139D01*
X169639037Y-108958367D01*
X169628247Y-108922798D01*
X169624000Y-108879675D01*
X169624000Y-107820325D01*
X169628247Y-107777202D01*
X169639037Y-107741633D01*
X169656554Y-107708861D01*
X169680131Y-107680131D01*
X169708861Y-107656554D01*
X169741633Y-107639037D01*
X169777202Y-107628247D01*
X169820325Y-107624000D01*
X172179675Y-107624000D01*
X172222798Y-107628247D01*
X172222798Y-107628247D01*
G37*
G36*
X185718604Y-106928347D02*
G01*
X185755144Y-106939432D01*
X185788821Y-106957433D01*
X185818341Y-106981659D01*
X185842567Y-107011179D01*
X185860568Y-107044856D01*
X185871653Y-107081396D01*
X185876000Y-107125538D01*
X185876000Y-108074462D01*
X185871653Y-108118604D01*
X185860568Y-108155144D01*
X185842567Y-108188821D01*
X185818341Y-108218341D01*
X185788821Y-108242567D01*
X185755144Y-108260568D01*
X185718604Y-108271653D01*
X185674462Y-108276000D01*
X183325538Y-108276000D01*
X183281396Y-108271653D01*
X183244856Y-108260568D01*
X183211179Y-108242567D01*
X183181659Y-108218341D01*
X183157433Y-108188821D01*
X183139432Y-108155144D01*
X183128347Y-108118604D01*
X183124000Y-108074462D01*
X183124000Y-107125538D01*
X183128347Y-107081396D01*
X183139432Y-107044856D01*
X183157433Y-107011179D01*
X183181659Y-106981659D01*
X183211179Y-106957433D01*
X183244856Y-106939432D01*
X183281396Y-106928347D01*
X183325538Y-106924000D01*
X185674462Y-106924000D01*
X185718604Y-106928347D01*
X185718604Y-106928347D01*
G37*
G36*
X149751000Y-108151000D02*
G01*
X148449000Y-108151000D01*
X148449000Y-106849000D01*
X149751000Y-106849000D01*
X149751000Y-108151000D01*
X149751000Y-108151000D01*
G37*
G36*
X147751000Y-108151000D02*
G01*
X146449000Y-108151000D01*
X146449000Y-106849000D01*
X147751000Y-106849000D01*
X147751000Y-108151000D01*
X147751000Y-108151000D01*
G37*
G36*
X141101000Y-106001000D02*
G01*
X139799000Y-106001000D01*
X139799000Y-104699000D01*
X141101000Y-104699000D01*
X141101000Y-106001000D01*
X141101000Y-106001000D01*
G37*
G36*
X139101000Y-106001000D02*
G01*
X137799000Y-106001000D01*
X137799000Y-104699000D01*
X139101000Y-104699000D01*
X139101000Y-106001000D01*
X139101000Y-106001000D01*
G37*
G36*
X164571938Y-104831716D02*
G01*
X164592557Y-104837971D01*
X164611553Y-104848124D01*
X164628208Y-104861792D01*
X164641876Y-104878447D01*
X164652029Y-104897443D01*
X164658284Y-104918062D01*
X164661000Y-104945640D01*
X164661000Y-105454360D01*
X164658284Y-105481938D01*
X164652029Y-105502557D01*
X164641876Y-105521553D01*
X164628208Y-105538208D01*
X164611553Y-105551876D01*
X164592557Y-105562029D01*
X164571938Y-105568284D01*
X164544360Y-105571000D01*
X164085640Y-105571000D01*
X164058062Y-105568284D01*
X164037443Y-105562029D01*
X164018447Y-105551876D01*
X164001792Y-105538208D01*
X163988124Y-105521553D01*
X163977971Y-105502557D01*
X163971716Y-105481938D01*
X163969000Y-105454360D01*
X163969000Y-104945640D01*
X163971716Y-104918062D01*
X163977971Y-104897443D01*
X163988124Y-104878447D01*
X164001792Y-104861792D01*
X164018447Y-104848124D01*
X164037443Y-104837971D01*
X164058062Y-104831716D01*
X164085640Y-104829000D01*
X164544360Y-104829000D01*
X164571938Y-104831716D01*
X164571938Y-104831716D01*
G37*
G36*
X165541938Y-104831716D02*
G01*
X165562557Y-104837971D01*
X165581553Y-104848124D01*
X165598208Y-104861792D01*
X165611876Y-104878447D01*
X165622029Y-104897443D01*
X165628284Y-104918062D01*
X165631000Y-104945640D01*
X165631000Y-105454360D01*
X165628284Y-105481938D01*
X165622029Y-105502557D01*
X165611876Y-105521553D01*
X165598208Y-105538208D01*
X165581553Y-105551876D01*
X165562557Y-105562029D01*
X165541938Y-105568284D01*
X165514360Y-105571000D01*
X165055640Y-105571000D01*
X165028062Y-105568284D01*
X165007443Y-105562029D01*
X164988447Y-105551876D01*
X164971792Y-105538208D01*
X164958124Y-105521553D01*
X164947971Y-105502557D01*
X164941716Y-105481938D01*
X164939000Y-105454360D01*
X164939000Y-104945640D01*
X164941716Y-104918062D01*
X164947971Y-104897443D01*
X164958124Y-104878447D01*
X164971792Y-104861792D01*
X164988447Y-104848124D01*
X165007443Y-104837971D01*
X165028062Y-104831716D01*
X165055640Y-104829000D01*
X165514360Y-104829000D01*
X165541938Y-104831716D01*
X165541938Y-104831716D01*
G37*
G36*
X168041938Y-104831716D02*
G01*
X168062557Y-104837971D01*
X168081553Y-104848124D01*
X168098208Y-104861792D01*
X168111876Y-104878447D01*
X168122029Y-104897443D01*
X168128284Y-104918062D01*
X168131000Y-104945640D01*
X168131000Y-105454360D01*
X168128284Y-105481938D01*
X168122029Y-105502557D01*
X168111876Y-105521553D01*
X168098208Y-105538208D01*
X168081553Y-105551876D01*
X168062557Y-105562029D01*
X168041938Y-105568284D01*
X168014360Y-105571000D01*
X167555640Y-105571000D01*
X167528062Y-105568284D01*
X167507443Y-105562029D01*
X167488447Y-105551876D01*
X167471792Y-105538208D01*
X167458124Y-105521553D01*
X167447971Y-105502557D01*
X167441716Y-105481938D01*
X167439000Y-105454360D01*
X167439000Y-104945640D01*
X167441716Y-104918062D01*
X167447971Y-104897443D01*
X167458124Y-104878447D01*
X167471792Y-104861792D01*
X167488447Y-104848124D01*
X167507443Y-104837971D01*
X167528062Y-104831716D01*
X167555640Y-104829000D01*
X168014360Y-104829000D01*
X168041938Y-104831716D01*
X168041938Y-104831716D01*
G37*
G36*
X184171938Y-104831716D02*
G01*
X184192557Y-104837971D01*
X184211553Y-104848124D01*
X184228208Y-104861792D01*
X184241876Y-104878447D01*
X184252029Y-104897443D01*
X184258284Y-104918062D01*
X184261000Y-104945640D01*
X184261000Y-105454360D01*
X184258284Y-105481938D01*
X184252029Y-105502557D01*
X184241876Y-105521553D01*
X184228208Y-105538208D01*
X184211553Y-105551876D01*
X184192557Y-105562029D01*
X184171938Y-105568284D01*
X184144360Y-105571000D01*
X183685640Y-105571000D01*
X183658062Y-105568284D01*
X183637443Y-105562029D01*
X183618447Y-105551876D01*
X183601792Y-105538208D01*
X183588124Y-105521553D01*
X183577971Y-105502557D01*
X183571716Y-105481938D01*
X183569000Y-105454360D01*
X183569000Y-104945640D01*
X183571716Y-104918062D01*
X183577971Y-104897443D01*
X183588124Y-104878447D01*
X183601792Y-104861792D01*
X183618447Y-104848124D01*
X183637443Y-104837971D01*
X183658062Y-104831716D01*
X183685640Y-104829000D01*
X184144360Y-104829000D01*
X184171938Y-104831716D01*
X184171938Y-104831716D01*
G37*
G36*
X185141938Y-104831716D02*
G01*
X185162557Y-104837971D01*
X185181553Y-104848124D01*
X185198208Y-104861792D01*
X185211876Y-104878447D01*
X185222029Y-104897443D01*
X185228284Y-104918062D01*
X185231000Y-104945640D01*
X185231000Y-105454360D01*
X185228284Y-105481938D01*
X185222029Y-105502557D01*
X185211876Y-105521553D01*
X185198208Y-105538208D01*
X185181553Y-105551876D01*
X185162557Y-105562029D01*
X185141938Y-105568284D01*
X185114360Y-105571000D01*
X184655640Y-105571000D01*
X184628062Y-105568284D01*
X184607443Y-105562029D01*
X184588447Y-105551876D01*
X184571792Y-105538208D01*
X184558124Y-105521553D01*
X184547971Y-105502557D01*
X184541716Y-105481938D01*
X184539000Y-105454360D01*
X184539000Y-104945640D01*
X184541716Y-104918062D01*
X184547971Y-104897443D01*
X184558124Y-104878447D01*
X184571792Y-104861792D01*
X184588447Y-104848124D01*
X184607443Y-104837971D01*
X184628062Y-104831716D01*
X184655640Y-104829000D01*
X185114360Y-104829000D01*
X185141938Y-104831716D01*
X185141938Y-104831716D01*
G37*
G36*
X176971938Y-104831716D02*
G01*
X176992557Y-104837971D01*
X177011553Y-104848124D01*
X177028208Y-104861792D01*
X177041876Y-104878447D01*
X177052029Y-104897443D01*
X177058284Y-104918062D01*
X177061000Y-104945640D01*
X177061000Y-105454360D01*
X177058284Y-105481938D01*
X177052029Y-105502557D01*
X177041876Y-105521553D01*
X177028208Y-105538208D01*
X177011553Y-105551876D01*
X176992557Y-105562029D01*
X176971938Y-105568284D01*
X176944360Y-105571000D01*
X176485640Y-105571000D01*
X176458062Y-105568284D01*
X176437443Y-105562029D01*
X176418447Y-105551876D01*
X176401792Y-105538208D01*
X176388124Y-105521553D01*
X176377971Y-105502557D01*
X176371716Y-105481938D01*
X176369000Y-105454360D01*
X176369000Y-104945640D01*
X176371716Y-104918062D01*
X176377971Y-104897443D01*
X176388124Y-104878447D01*
X176401792Y-104861792D01*
X176418447Y-104848124D01*
X176437443Y-104837971D01*
X176458062Y-104831716D01*
X176485640Y-104829000D01*
X176944360Y-104829000D01*
X176971938Y-104831716D01*
X176971938Y-104831716D01*
G37*
G36*
X177941938Y-104831716D02*
G01*
X177962557Y-104837971D01*
X177981553Y-104848124D01*
X177998208Y-104861792D01*
X178011876Y-104878447D01*
X178022029Y-104897443D01*
X178028284Y-104918062D01*
X178031000Y-104945640D01*
X178031000Y-105454360D01*
X178028284Y-105481938D01*
X178022029Y-105502557D01*
X178011876Y-105521553D01*
X177998208Y-105538208D01*
X177981553Y-105551876D01*
X177962557Y-105562029D01*
X177941938Y-105568284D01*
X177914360Y-105571000D01*
X177455640Y-105571000D01*
X177428062Y-105568284D01*
X177407443Y-105562029D01*
X177388447Y-105551876D01*
X177371792Y-105538208D01*
X177358124Y-105521553D01*
X177347971Y-105502557D01*
X177341716Y-105481938D01*
X177339000Y-105454360D01*
X177339000Y-104945640D01*
X177341716Y-104918062D01*
X177347971Y-104897443D01*
X177358124Y-104878447D01*
X177371792Y-104861792D01*
X177388447Y-104848124D01*
X177407443Y-104837971D01*
X177428062Y-104831716D01*
X177455640Y-104829000D01*
X177914360Y-104829000D01*
X177941938Y-104831716D01*
X177941938Y-104831716D01*
G37*
G36*
X174371938Y-104831716D02*
G01*
X174392557Y-104837971D01*
X174411553Y-104848124D01*
X174428208Y-104861792D01*
X174441876Y-104878447D01*
X174452029Y-104897443D01*
X174458284Y-104918062D01*
X174461000Y-104945640D01*
X174461000Y-105454360D01*
X174458284Y-105481938D01*
X174452029Y-105502557D01*
X174441876Y-105521553D01*
X174428208Y-105538208D01*
X174411553Y-105551876D01*
X174392557Y-105562029D01*
X174371938Y-105568284D01*
X174344360Y-105571000D01*
X173885640Y-105571000D01*
X173858062Y-105568284D01*
X173837443Y-105562029D01*
X173818447Y-105551876D01*
X173801792Y-105538208D01*
X173788124Y-105521553D01*
X173777971Y-105502557D01*
X173771716Y-105481938D01*
X173769000Y-105454360D01*
X173769000Y-104945640D01*
X173771716Y-104918062D01*
X173777971Y-104897443D01*
X173788124Y-104878447D01*
X173801792Y-104861792D01*
X173818447Y-104848124D01*
X173837443Y-104837971D01*
X173858062Y-104831716D01*
X173885640Y-104829000D01*
X174344360Y-104829000D01*
X174371938Y-104831716D01*
X174371938Y-104831716D01*
G37*
G36*
X157171938Y-104831716D02*
G01*
X157192557Y-104837971D01*
X157211553Y-104848124D01*
X157228208Y-104861792D01*
X157241876Y-104878447D01*
X157252029Y-104897443D01*
X157258284Y-104918062D01*
X157261000Y-104945640D01*
X157261000Y-105454360D01*
X157258284Y-105481938D01*
X157252029Y-105502557D01*
X157241876Y-105521553D01*
X157228208Y-105538208D01*
X157211553Y-105551876D01*
X157192557Y-105562029D01*
X157171938Y-105568284D01*
X157144360Y-105571000D01*
X156685640Y-105571000D01*
X156658062Y-105568284D01*
X156637443Y-105562029D01*
X156618447Y-105551876D01*
X156601792Y-105538208D01*
X156588124Y-105521553D01*
X156577971Y-105502557D01*
X156571716Y-105481938D01*
X156569000Y-105454360D01*
X156569000Y-104945640D01*
X156571716Y-104918062D01*
X156577971Y-104897443D01*
X156588124Y-104878447D01*
X156601792Y-104861792D01*
X156618447Y-104848124D01*
X156637443Y-104837971D01*
X156658062Y-104831716D01*
X156685640Y-104829000D01*
X157144360Y-104829000D01*
X157171938Y-104831716D01*
X157171938Y-104831716D01*
G37*
G36*
X167071938Y-104831716D02*
G01*
X167092557Y-104837971D01*
X167111553Y-104848124D01*
X167128208Y-104861792D01*
X167141876Y-104878447D01*
X167152029Y-104897443D01*
X167158284Y-104918062D01*
X167161000Y-104945640D01*
X167161000Y-105454360D01*
X167158284Y-105481938D01*
X167152029Y-105502557D01*
X167141876Y-105521553D01*
X167128208Y-105538208D01*
X167111553Y-105551876D01*
X167092557Y-105562029D01*
X167071938Y-105568284D01*
X167044360Y-105571000D01*
X166585640Y-105571000D01*
X166558062Y-105568284D01*
X166537443Y-105562029D01*
X166518447Y-105551876D01*
X166501792Y-105538208D01*
X166488124Y-105521553D01*
X166477971Y-105502557D01*
X166471716Y-105481938D01*
X166469000Y-105454360D01*
X166469000Y-104945640D01*
X166471716Y-104918062D01*
X166477971Y-104897443D01*
X166488124Y-104878447D01*
X166501792Y-104861792D01*
X166518447Y-104848124D01*
X166537443Y-104837971D01*
X166558062Y-104831716D01*
X166585640Y-104829000D01*
X167044360Y-104829000D01*
X167071938Y-104831716D01*
X167071938Y-104831716D01*
G37*
G36*
X158141938Y-104831716D02*
G01*
X158162557Y-104837971D01*
X158181553Y-104848124D01*
X158198208Y-104861792D01*
X158211876Y-104878447D01*
X158222029Y-104897443D01*
X158228284Y-104918062D01*
X158231000Y-104945640D01*
X158231000Y-105454360D01*
X158228284Y-105481938D01*
X158222029Y-105502557D01*
X158211876Y-105521553D01*
X158198208Y-105538208D01*
X158181553Y-105551876D01*
X158162557Y-105562029D01*
X158141938Y-105568284D01*
X158114360Y-105571000D01*
X157655640Y-105571000D01*
X157628062Y-105568284D01*
X157607443Y-105562029D01*
X157588447Y-105551876D01*
X157571792Y-105538208D01*
X157558124Y-105521553D01*
X157547971Y-105502557D01*
X157541716Y-105481938D01*
X157539000Y-105454360D01*
X157539000Y-104945640D01*
X157541716Y-104918062D01*
X157547971Y-104897443D01*
X157558124Y-104878447D01*
X157571792Y-104861792D01*
X157588447Y-104848124D01*
X157607443Y-104837971D01*
X157628062Y-104831716D01*
X157655640Y-104829000D01*
X158114360Y-104829000D01*
X158141938Y-104831716D01*
X158141938Y-104831716D01*
G37*
G36*
X175341938Y-104831716D02*
G01*
X175362557Y-104837971D01*
X175381553Y-104848124D01*
X175398208Y-104861792D01*
X175411876Y-104878447D01*
X175422029Y-104897443D01*
X175428284Y-104918062D01*
X175431000Y-104945640D01*
X175431000Y-105454360D01*
X175428284Y-105481938D01*
X175422029Y-105502557D01*
X175411876Y-105521553D01*
X175398208Y-105538208D01*
X175381553Y-105551876D01*
X175362557Y-105562029D01*
X175341938Y-105568284D01*
X175314360Y-105571000D01*
X174855640Y-105571000D01*
X174828062Y-105568284D01*
X174807443Y-105562029D01*
X174788447Y-105551876D01*
X174771792Y-105538208D01*
X174758124Y-105521553D01*
X174747971Y-105502557D01*
X174741716Y-105481938D01*
X174739000Y-105454360D01*
X174739000Y-104945640D01*
X174741716Y-104918062D01*
X174747971Y-104897443D01*
X174758124Y-104878447D01*
X174771792Y-104861792D01*
X174788447Y-104848124D01*
X174807443Y-104837971D01*
X174828062Y-104831716D01*
X174855640Y-104829000D01*
X175314360Y-104829000D01*
X175341938Y-104831716D01*
X175341938Y-104831716D01*
G37*
G36*
X170405355Y-101700083D02*
G01*
X170410029Y-101701501D01*
X170414330Y-101703800D01*
X170420702Y-101709029D01*
X170441076Y-101722643D01*
X170463715Y-101732020D01*
X170487749Y-101736800D01*
X170512253Y-101736800D01*
X170536286Y-101732019D01*
X170558925Y-101722642D01*
X170579298Y-101709029D01*
X170585670Y-101703800D01*
X170589971Y-101701501D01*
X170594645Y-101700083D01*
X170605641Y-101699000D01*
X170894359Y-101699000D01*
X170905355Y-101700083D01*
X170910029Y-101701501D01*
X170914330Y-101703800D01*
X170920702Y-101709029D01*
X170941076Y-101722643D01*
X170963715Y-101732020D01*
X170987749Y-101736800D01*
X171012253Y-101736800D01*
X171036286Y-101732019D01*
X171058925Y-101722642D01*
X171079298Y-101709029D01*
X171085670Y-101703800D01*
X171089971Y-101701501D01*
X171094645Y-101700083D01*
X171105641Y-101699000D01*
X171394359Y-101699000D01*
X171405355Y-101700083D01*
X171410029Y-101701501D01*
X171414330Y-101703800D01*
X171420702Y-101709029D01*
X171441076Y-101722643D01*
X171463715Y-101732020D01*
X171487749Y-101736800D01*
X171512253Y-101736800D01*
X171536286Y-101732019D01*
X171558925Y-101722642D01*
X171579298Y-101709029D01*
X171585670Y-101703800D01*
X171589971Y-101701501D01*
X171594645Y-101700083D01*
X171605641Y-101699000D01*
X171894359Y-101699000D01*
X171905355Y-101700083D01*
X171910029Y-101701501D01*
X171914331Y-101703800D01*
X171918104Y-101706896D01*
X171921200Y-101710669D01*
X171923499Y-101714971D01*
X171924917Y-101719645D01*
X171926000Y-101730641D01*
X171926000Y-102549001D01*
X171928402Y-102573387D01*
X171935515Y-102596836D01*
X171947066Y-102618447D01*
X171962611Y-102637389D01*
X171981553Y-102652934D01*
X172003164Y-102664485D01*
X172026613Y-102671598D01*
X172050999Y-102674000D01*
X172869359Y-102674000D01*
X172880355Y-102675083D01*
X172885029Y-102676501D01*
X172889331Y-102678800D01*
X172893104Y-102681896D01*
X172896200Y-102685669D01*
X172898499Y-102689971D01*
X172899917Y-102694645D01*
X172901000Y-102705641D01*
X172901000Y-102994359D01*
X172899917Y-103005355D01*
X172898499Y-103010029D01*
X172896200Y-103014330D01*
X172890971Y-103020702D01*
X172877357Y-103041076D01*
X172867980Y-103063715D01*
X172863200Y-103087749D01*
X172863200Y-103112253D01*
X172867981Y-103136286D01*
X172877358Y-103158925D01*
X172890971Y-103179298D01*
X172896200Y-103185670D01*
X172898499Y-103189971D01*
X172899917Y-103194645D01*
X172901000Y-103205641D01*
X172901000Y-103494359D01*
X172899917Y-103505355D01*
X172898499Y-103510029D01*
X172896200Y-103514330D01*
X172890971Y-103520702D01*
X172877357Y-103541076D01*
X172867980Y-103563715D01*
X172863200Y-103587749D01*
X172863200Y-103612253D01*
X172867981Y-103636286D01*
X172877358Y-103658925D01*
X172890971Y-103679298D01*
X172896200Y-103685670D01*
X172898499Y-103689971D01*
X172899917Y-103694645D01*
X172901000Y-103705641D01*
X172901000Y-103994359D01*
X172899917Y-104005355D01*
X172898499Y-104010029D01*
X172896200Y-104014330D01*
X172890971Y-104020702D01*
X172877357Y-104041076D01*
X172867980Y-104063715D01*
X172863200Y-104087749D01*
X172863200Y-104112253D01*
X172867981Y-104136286D01*
X172877358Y-104158925D01*
X172890971Y-104179298D01*
X172896200Y-104185670D01*
X172898499Y-104189971D01*
X172899917Y-104194645D01*
X172901000Y-104205641D01*
X172901000Y-104494359D01*
X172899917Y-104505355D01*
X172898499Y-104510029D01*
X172896200Y-104514331D01*
X172893104Y-104518104D01*
X172889331Y-104521200D01*
X172885029Y-104523499D01*
X172880355Y-104524917D01*
X172869359Y-104526000D01*
X172050999Y-104526000D01*
X172026613Y-104528402D01*
X172003164Y-104535515D01*
X171981553Y-104547066D01*
X171962611Y-104562611D01*
X171947066Y-104581553D01*
X171935515Y-104603164D01*
X171928402Y-104626613D01*
X171926000Y-104650999D01*
X171926000Y-105469359D01*
X171924917Y-105480355D01*
X171923499Y-105485029D01*
X171921200Y-105489331D01*
X171918104Y-105493104D01*
X171914331Y-105496200D01*
X171910029Y-105498499D01*
X171905355Y-105499917D01*
X171894359Y-105501000D01*
X171605641Y-105501000D01*
X171594645Y-105499917D01*
X171589971Y-105498499D01*
X171585670Y-105496200D01*
X171579298Y-105490971D01*
X171558924Y-105477357D01*
X171536285Y-105467980D01*
X171512251Y-105463200D01*
X171487747Y-105463200D01*
X171463714Y-105467981D01*
X171441075Y-105477358D01*
X171420702Y-105490971D01*
X171414330Y-105496200D01*
X171410029Y-105498499D01*
X171405355Y-105499917D01*
X171394359Y-105501000D01*
X171105641Y-105501000D01*
X171094645Y-105499917D01*
X171089971Y-105498499D01*
X171085670Y-105496200D01*
X171079298Y-105490971D01*
X171058924Y-105477357D01*
X171036285Y-105467980D01*
X171012251Y-105463200D01*
X170987747Y-105463200D01*
X170963714Y-105467981D01*
X170941075Y-105477358D01*
X170920702Y-105490971D01*
X170914330Y-105496200D01*
X170910029Y-105498499D01*
X170905355Y-105499917D01*
X170894359Y-105501000D01*
X170605641Y-105501000D01*
X170594645Y-105499917D01*
X170589971Y-105498499D01*
X170585670Y-105496200D01*
X170579298Y-105490971D01*
X170558924Y-105477357D01*
X170536285Y-105467980D01*
X170512251Y-105463200D01*
X170487747Y-105463200D01*
X170463714Y-105467981D01*
X170441075Y-105477358D01*
X170420702Y-105490971D01*
X170414330Y-105496200D01*
X170410029Y-105498499D01*
X170405355Y-105499917D01*
X170394359Y-105501000D01*
X170105641Y-105501000D01*
X170094645Y-105499917D01*
X170089971Y-105498499D01*
X170085669Y-105496200D01*
X170081896Y-105493104D01*
X170078800Y-105489331D01*
X170076501Y-105485029D01*
X170075083Y-105480355D01*
X170074000Y-105469359D01*
X170074000Y-104650999D01*
X170071598Y-104626613D01*
X170064485Y-104603164D01*
X170052934Y-104581553D01*
X170037389Y-104562611D01*
X170018447Y-104547066D01*
X169996836Y-104535515D01*
X169973387Y-104528402D01*
X169949001Y-104526000D01*
X169130641Y-104526000D01*
X169119645Y-104524917D01*
X169114971Y-104523499D01*
X169110669Y-104521200D01*
X169106896Y-104518104D01*
X169103800Y-104514331D01*
X169101501Y-104510029D01*
X169100083Y-104505355D01*
X169099000Y-104494359D01*
X169099000Y-104205641D01*
X169100083Y-104194645D01*
X169101501Y-104189971D01*
X169103800Y-104185670D01*
X169109029Y-104179298D01*
X169122643Y-104158924D01*
X169132020Y-104136285D01*
X169136800Y-104112251D01*
X169136800Y-104087747D01*
X169132019Y-104063714D01*
X169122642Y-104041075D01*
X169109029Y-104020702D01*
X169103800Y-104014330D01*
X169101501Y-104010029D01*
X169100083Y-104005355D01*
X169099000Y-103994359D01*
X169099000Y-103705641D01*
X169100083Y-103694645D01*
X169101501Y-103689971D01*
X169103800Y-103685670D01*
X169109029Y-103679298D01*
X169122643Y-103658924D01*
X169132020Y-103636285D01*
X169136800Y-103612251D01*
X169136800Y-103587747D01*
X169132019Y-103563714D01*
X169122642Y-103541075D01*
X169109029Y-103520702D01*
X169103800Y-103514330D01*
X169101501Y-103510029D01*
X169100083Y-103505355D01*
X169099000Y-103494359D01*
X169099000Y-103205641D01*
X169100083Y-103194645D01*
X169101501Y-103189971D01*
X169103800Y-103185670D01*
X169109029Y-103179298D01*
X169122643Y-103158924D01*
X169132020Y-103136285D01*
X169136800Y-103112251D01*
X169136800Y-103087747D01*
X169132019Y-103063714D01*
X169122642Y-103041075D01*
X169109029Y-103020702D01*
X169103800Y-103014330D01*
X169101501Y-103010029D01*
X169100083Y-103005355D01*
X169099000Y-102994359D01*
X169099000Y-102705641D01*
X169100083Y-102694645D01*
X169101501Y-102689971D01*
X169103800Y-102685669D01*
X169106896Y-102681896D01*
X169110669Y-102678800D01*
X169114971Y-102676501D01*
X169119645Y-102675083D01*
X169130641Y-102674000D01*
X169949001Y-102674000D01*
X169973387Y-102671598D01*
X169996836Y-102664485D01*
X170018447Y-102652934D01*
X170037389Y-102637389D01*
X170052934Y-102618447D01*
X170064485Y-102596836D01*
X170071598Y-102573387D01*
X170074000Y-102549001D01*
X170074000Y-101730641D01*
X170075083Y-101719645D01*
X170076501Y-101714971D01*
X170078800Y-101710669D01*
X170081896Y-101706896D01*
X170085669Y-101703800D01*
X170089971Y-101701501D01*
X170094645Y-101700083D01*
X170105641Y-101699000D01*
X170394359Y-101699000D01*
X170405355Y-101700083D01*
X170405355Y-101700083D01*
G37*
G36*
X160505355Y-101700083D02*
G01*
X160510029Y-101701501D01*
X160514330Y-101703800D01*
X160520702Y-101709029D01*
X160541076Y-101722643D01*
X160563715Y-101732020D01*
X160587749Y-101736800D01*
X160612253Y-101736800D01*
X160636286Y-101732019D01*
X160658925Y-101722642D01*
X160679298Y-101709029D01*
X160685670Y-101703800D01*
X160689971Y-101701501D01*
X160694645Y-101700083D01*
X160705641Y-101699000D01*
X160994359Y-101699000D01*
X161005355Y-101700083D01*
X161010029Y-101701501D01*
X161014330Y-101703800D01*
X161020702Y-101709029D01*
X161041076Y-101722643D01*
X161063715Y-101732020D01*
X161087749Y-101736800D01*
X161112253Y-101736800D01*
X161136286Y-101732019D01*
X161158925Y-101722642D01*
X161179298Y-101709029D01*
X161185670Y-101703800D01*
X161189971Y-101701501D01*
X161194645Y-101700083D01*
X161205641Y-101699000D01*
X161494359Y-101699000D01*
X161505355Y-101700083D01*
X161510029Y-101701501D01*
X161514330Y-101703800D01*
X161520702Y-101709029D01*
X161541076Y-101722643D01*
X161563715Y-101732020D01*
X161587749Y-101736800D01*
X161612253Y-101736800D01*
X161636286Y-101732019D01*
X161658925Y-101722642D01*
X161679298Y-101709029D01*
X161685670Y-101703800D01*
X161689971Y-101701501D01*
X161694645Y-101700083D01*
X161705641Y-101699000D01*
X161994359Y-101699000D01*
X162005355Y-101700083D01*
X162010029Y-101701501D01*
X162014331Y-101703800D01*
X162018104Y-101706896D01*
X162021200Y-101710669D01*
X162023499Y-101714971D01*
X162024917Y-101719645D01*
X162026000Y-101730641D01*
X162026000Y-102549001D01*
X162028402Y-102573387D01*
X162035515Y-102596836D01*
X162047066Y-102618447D01*
X162062611Y-102637389D01*
X162081553Y-102652934D01*
X162103164Y-102664485D01*
X162126613Y-102671598D01*
X162150999Y-102674000D01*
X162969359Y-102674000D01*
X162980355Y-102675083D01*
X162985029Y-102676501D01*
X162989331Y-102678800D01*
X162993104Y-102681896D01*
X162996200Y-102685669D01*
X162998499Y-102689971D01*
X162999917Y-102694645D01*
X163001000Y-102705641D01*
X163001000Y-102994359D01*
X162999917Y-103005355D01*
X162998499Y-103010029D01*
X162996200Y-103014330D01*
X162990971Y-103020702D01*
X162977357Y-103041076D01*
X162967980Y-103063715D01*
X162963200Y-103087749D01*
X162963200Y-103112253D01*
X162967981Y-103136286D01*
X162977358Y-103158925D01*
X162990971Y-103179298D01*
X162996200Y-103185670D01*
X162998499Y-103189971D01*
X162999917Y-103194645D01*
X163001000Y-103205641D01*
X163001000Y-103494359D01*
X162999917Y-103505355D01*
X162998499Y-103510029D01*
X162996200Y-103514330D01*
X162990971Y-103520702D01*
X162977357Y-103541076D01*
X162967980Y-103563715D01*
X162963200Y-103587749D01*
X162963200Y-103612253D01*
X162967981Y-103636286D01*
X162977358Y-103658925D01*
X162990971Y-103679298D01*
X162996200Y-103685670D01*
X162998499Y-103689971D01*
X162999917Y-103694645D01*
X163001000Y-103705641D01*
X163001000Y-103994359D01*
X162999917Y-104005355D01*
X162998499Y-104010029D01*
X162996200Y-104014330D01*
X162990971Y-104020702D01*
X162977357Y-104041076D01*
X162967980Y-104063715D01*
X162963200Y-104087749D01*
X162963200Y-104112253D01*
X162967981Y-104136286D01*
X162977358Y-104158925D01*
X162990971Y-104179298D01*
X162996200Y-104185670D01*
X162998499Y-104189971D01*
X162999917Y-104194645D01*
X163001000Y-104205641D01*
X163001000Y-104494359D01*
X162999917Y-104505355D01*
X162998499Y-104510029D01*
X162996200Y-104514331D01*
X162993104Y-104518104D01*
X162989331Y-104521200D01*
X162985029Y-104523499D01*
X162980355Y-104524917D01*
X162969359Y-104526000D01*
X162150999Y-104526000D01*
X162126613Y-104528402D01*
X162103164Y-104535515D01*
X162081553Y-104547066D01*
X162062611Y-104562611D01*
X162047066Y-104581553D01*
X162035515Y-104603164D01*
X162028402Y-104626613D01*
X162026000Y-104650999D01*
X162026000Y-105469359D01*
X162024917Y-105480355D01*
X162023499Y-105485029D01*
X162021200Y-105489331D01*
X162018104Y-105493104D01*
X162014331Y-105496200D01*
X162010029Y-105498499D01*
X162005355Y-105499917D01*
X161994359Y-105501000D01*
X161705641Y-105501000D01*
X161694645Y-105499917D01*
X161689971Y-105498499D01*
X161685670Y-105496200D01*
X161679298Y-105490971D01*
X161658924Y-105477357D01*
X161636285Y-105467980D01*
X161612251Y-105463200D01*
X161587747Y-105463200D01*
X161563714Y-105467981D01*
X161541075Y-105477358D01*
X161520702Y-105490971D01*
X161514330Y-105496200D01*
X161510029Y-105498499D01*
X161505355Y-105499917D01*
X161494359Y-105501000D01*
X161205641Y-105501000D01*
X161194645Y-105499917D01*
X161189971Y-105498499D01*
X161185670Y-105496200D01*
X161179298Y-105490971D01*
X161158924Y-105477357D01*
X161136285Y-105467980D01*
X161112251Y-105463200D01*
X161087747Y-105463200D01*
X161063714Y-105467981D01*
X161041075Y-105477358D01*
X161020702Y-105490971D01*
X161014330Y-105496200D01*
X161010029Y-105498499D01*
X161005355Y-105499917D01*
X160994359Y-105501000D01*
X160705641Y-105501000D01*
X160694645Y-105499917D01*
X160689971Y-105498499D01*
X160685670Y-105496200D01*
X160679298Y-105490971D01*
X160658924Y-105477357D01*
X160636285Y-105467980D01*
X160612251Y-105463200D01*
X160587747Y-105463200D01*
X160563714Y-105467981D01*
X160541075Y-105477358D01*
X160520702Y-105490971D01*
X160514330Y-105496200D01*
X160510029Y-105498499D01*
X160505355Y-105499917D01*
X160494359Y-105501000D01*
X160205641Y-105501000D01*
X160194645Y-105499917D01*
X160189971Y-105498499D01*
X160185669Y-105496200D01*
X160181896Y-105493104D01*
X160178800Y-105489331D01*
X160176501Y-105485029D01*
X160175083Y-105480355D01*
X160174000Y-105469359D01*
X160174000Y-104650999D01*
X160171598Y-104626613D01*
X160164485Y-104603164D01*
X160152934Y-104581553D01*
X160137389Y-104562611D01*
X160118447Y-104547066D01*
X160096836Y-104535515D01*
X160073387Y-104528402D01*
X160049001Y-104526000D01*
X159230641Y-104526000D01*
X159219645Y-104524917D01*
X159214971Y-104523499D01*
X159210669Y-104521200D01*
X159206896Y-104518104D01*
X159203800Y-104514331D01*
X159201501Y-104510029D01*
X159200083Y-104505355D01*
X159199000Y-104494359D01*
X159199000Y-104205641D01*
X159200083Y-104194645D01*
X159201501Y-104189971D01*
X159203800Y-104185670D01*
X159209029Y-104179298D01*
X159222643Y-104158924D01*
X159232020Y-104136285D01*
X159236800Y-104112251D01*
X159236800Y-104087747D01*
X159232019Y-104063714D01*
X159222642Y-104041075D01*
X159209029Y-104020702D01*
X159203800Y-104014330D01*
X159201501Y-104010029D01*
X159200083Y-104005355D01*
X159199000Y-103994359D01*
X159199000Y-103705641D01*
X159200083Y-103694645D01*
X159201501Y-103689971D01*
X159203800Y-103685670D01*
X159209029Y-103679298D01*
X159222643Y-103658924D01*
X159232020Y-103636285D01*
X159236800Y-103612251D01*
X159236800Y-103587747D01*
X159232019Y-103563714D01*
X159222642Y-103541075D01*
X159209029Y-103520702D01*
X159203800Y-103514330D01*
X159201501Y-103510029D01*
X159200083Y-103505355D01*
X159199000Y-103494359D01*
X159199000Y-103205641D01*
X159200083Y-103194645D01*
X159201501Y-103189971D01*
X159203800Y-103185670D01*
X159209029Y-103179298D01*
X159222643Y-103158924D01*
X159232020Y-103136285D01*
X159236800Y-103112251D01*
X159236800Y-103087747D01*
X159232019Y-103063714D01*
X159222642Y-103041075D01*
X159209029Y-103020702D01*
X159203800Y-103014330D01*
X159201501Y-103010029D01*
X159200083Y-103005355D01*
X159199000Y-102994359D01*
X159199000Y-102705641D01*
X159200083Y-102694645D01*
X159201501Y-102689971D01*
X159203800Y-102685669D01*
X159206896Y-102681896D01*
X159210669Y-102678800D01*
X159214971Y-102676501D01*
X159219645Y-102675083D01*
X159230641Y-102674000D01*
X160049001Y-102674000D01*
X160073387Y-102671598D01*
X160096836Y-102664485D01*
X160118447Y-102652934D01*
X160137389Y-102637389D01*
X160152934Y-102618447D01*
X160164485Y-102596836D01*
X160171598Y-102573387D01*
X160174000Y-102549001D01*
X160174000Y-101730641D01*
X160175083Y-101719645D01*
X160176501Y-101714971D01*
X160178800Y-101710669D01*
X160181896Y-101706896D01*
X160185669Y-101703800D01*
X160189971Y-101701501D01*
X160194645Y-101700083D01*
X160205641Y-101699000D01*
X160494359Y-101699000D01*
X160505355Y-101700083D01*
X160505355Y-101700083D01*
G37*
G36*
X180205355Y-101700083D02*
G01*
X180210029Y-101701501D01*
X180214330Y-101703800D01*
X180220702Y-101709029D01*
X180241076Y-101722643D01*
X180263715Y-101732020D01*
X180287749Y-101736800D01*
X180312253Y-101736800D01*
X180336286Y-101732019D01*
X180358925Y-101722642D01*
X180379298Y-101709029D01*
X180385670Y-101703800D01*
X180389971Y-101701501D01*
X180394645Y-101700083D01*
X180405641Y-101699000D01*
X180694359Y-101699000D01*
X180705355Y-101700083D01*
X180710029Y-101701501D01*
X180714330Y-101703800D01*
X180720702Y-101709029D01*
X180741076Y-101722643D01*
X180763715Y-101732020D01*
X180787749Y-101736800D01*
X180812253Y-101736800D01*
X180836286Y-101732019D01*
X180858925Y-101722642D01*
X180879298Y-101709029D01*
X180885670Y-101703800D01*
X180889971Y-101701501D01*
X180894645Y-101700083D01*
X180905641Y-101699000D01*
X181194359Y-101699000D01*
X181205355Y-101700083D01*
X181210029Y-101701501D01*
X181214330Y-101703800D01*
X181220702Y-101709029D01*
X181241076Y-101722643D01*
X181263715Y-101732020D01*
X181287749Y-101736800D01*
X181312253Y-101736800D01*
X181336286Y-101732019D01*
X181358925Y-101722642D01*
X181379298Y-101709029D01*
X181385670Y-101703800D01*
X181389971Y-101701501D01*
X181394645Y-101700083D01*
X181405641Y-101699000D01*
X181694359Y-101699000D01*
X181705355Y-101700083D01*
X181710029Y-101701501D01*
X181714331Y-101703800D01*
X181718104Y-101706896D01*
X181721200Y-101710669D01*
X181723499Y-101714971D01*
X181724917Y-101719645D01*
X181726000Y-101730641D01*
X181726000Y-102549001D01*
X181728402Y-102573387D01*
X181735515Y-102596836D01*
X181747066Y-102618447D01*
X181762611Y-102637389D01*
X181781553Y-102652934D01*
X181803164Y-102664485D01*
X181826613Y-102671598D01*
X181850999Y-102674000D01*
X182669359Y-102674000D01*
X182680355Y-102675083D01*
X182685029Y-102676501D01*
X182689331Y-102678800D01*
X182693104Y-102681896D01*
X182696200Y-102685669D01*
X182698499Y-102689971D01*
X182699917Y-102694645D01*
X182701000Y-102705641D01*
X182701000Y-102994359D01*
X182699917Y-103005355D01*
X182698499Y-103010029D01*
X182696200Y-103014330D01*
X182690971Y-103020702D01*
X182677357Y-103041076D01*
X182667980Y-103063715D01*
X182663200Y-103087749D01*
X182663200Y-103112253D01*
X182667981Y-103136286D01*
X182677358Y-103158925D01*
X182690971Y-103179298D01*
X182696200Y-103185670D01*
X182698499Y-103189971D01*
X182699917Y-103194645D01*
X182701000Y-103205641D01*
X182701000Y-103494359D01*
X182699917Y-103505355D01*
X182698499Y-103510029D01*
X182696200Y-103514330D01*
X182690971Y-103520702D01*
X182677357Y-103541076D01*
X182667980Y-103563715D01*
X182663200Y-103587749D01*
X182663200Y-103612253D01*
X182667981Y-103636286D01*
X182677358Y-103658925D01*
X182690971Y-103679298D01*
X182696200Y-103685670D01*
X182698499Y-103689971D01*
X182699917Y-103694645D01*
X182701000Y-103705641D01*
X182701000Y-103994359D01*
X182699917Y-104005355D01*
X182698499Y-104010029D01*
X182696200Y-104014330D01*
X182690971Y-104020702D01*
X182677357Y-104041076D01*
X182667980Y-104063715D01*
X182663200Y-104087749D01*
X182663200Y-104112253D01*
X182667981Y-104136286D01*
X182677358Y-104158925D01*
X182690971Y-104179298D01*
X182696200Y-104185670D01*
X182698499Y-104189971D01*
X182699917Y-104194645D01*
X182701000Y-104205641D01*
X182701000Y-104494359D01*
X182699917Y-104505355D01*
X182698499Y-104510029D01*
X182696200Y-104514331D01*
X182693104Y-104518104D01*
X182689331Y-104521200D01*
X182685029Y-104523499D01*
X182680355Y-104524917D01*
X182669359Y-104526000D01*
X181850999Y-104526000D01*
X181826613Y-104528402D01*
X181803164Y-104535515D01*
X181781553Y-104547066D01*
X181762611Y-104562611D01*
X181747066Y-104581553D01*
X181735515Y-104603164D01*
X181728402Y-104626613D01*
X181726000Y-104650999D01*
X181726000Y-105469359D01*
X181724917Y-105480355D01*
X181723499Y-105485029D01*
X181721200Y-105489331D01*
X181718104Y-105493104D01*
X181714331Y-105496200D01*
X181710029Y-105498499D01*
X181705355Y-105499917D01*
X181694359Y-105501000D01*
X181405641Y-105501000D01*
X181394645Y-105499917D01*
X181389971Y-105498499D01*
X181385670Y-105496200D01*
X181379298Y-105490971D01*
X181358924Y-105477357D01*
X181336285Y-105467980D01*
X181312251Y-105463200D01*
X181287747Y-105463200D01*
X181263714Y-105467981D01*
X181241075Y-105477358D01*
X181220702Y-105490971D01*
X181214330Y-105496200D01*
X181210029Y-105498499D01*
X181205355Y-105499917D01*
X181194359Y-105501000D01*
X180905641Y-105501000D01*
X180894645Y-105499917D01*
X180889971Y-105498499D01*
X180885670Y-105496200D01*
X180879298Y-105490971D01*
X180858924Y-105477357D01*
X180836285Y-105467980D01*
X180812251Y-105463200D01*
X180787747Y-105463200D01*
X180763714Y-105467981D01*
X180741075Y-105477358D01*
X180720702Y-105490971D01*
X180714330Y-105496200D01*
X180710029Y-105498499D01*
X180705355Y-105499917D01*
X180694359Y-105501000D01*
X180405641Y-105501000D01*
X180394645Y-105499917D01*
X180389971Y-105498499D01*
X180385670Y-105496200D01*
X180379298Y-105490971D01*
X180358924Y-105477357D01*
X180336285Y-105467980D01*
X180312251Y-105463200D01*
X180287747Y-105463200D01*
X180263714Y-105467981D01*
X180241075Y-105477358D01*
X180220702Y-105490971D01*
X180214330Y-105496200D01*
X180210029Y-105498499D01*
X180205355Y-105499917D01*
X180194359Y-105501000D01*
X179905641Y-105501000D01*
X179894645Y-105499917D01*
X179889971Y-105498499D01*
X179885669Y-105496200D01*
X179881896Y-105493104D01*
X179878800Y-105489331D01*
X179876501Y-105485029D01*
X179875083Y-105480355D01*
X179874000Y-105469359D01*
X179874000Y-104650999D01*
X179871598Y-104626613D01*
X179864485Y-104603164D01*
X179852934Y-104581553D01*
X179837389Y-104562611D01*
X179818447Y-104547066D01*
X179796836Y-104535515D01*
X179773387Y-104528402D01*
X179749001Y-104526000D01*
X178930641Y-104526000D01*
X178919645Y-104524917D01*
X178914971Y-104523499D01*
X178910669Y-104521200D01*
X178906896Y-104518104D01*
X178903800Y-104514331D01*
X178901501Y-104510029D01*
X178900083Y-104505355D01*
X178899000Y-104494359D01*
X178899000Y-104205641D01*
X178900083Y-104194645D01*
X178901501Y-104189971D01*
X178903800Y-104185670D01*
X178909029Y-104179298D01*
X178922643Y-104158924D01*
X178932020Y-104136285D01*
X178936800Y-104112251D01*
X178936800Y-104087747D01*
X178932019Y-104063714D01*
X178922642Y-104041075D01*
X178909029Y-104020702D01*
X178903800Y-104014330D01*
X178901501Y-104010029D01*
X178900083Y-104005355D01*
X178899000Y-103994359D01*
X178899000Y-103705641D01*
X178900083Y-103694645D01*
X178901501Y-103689971D01*
X178903800Y-103685670D01*
X178909029Y-103679298D01*
X178922643Y-103658924D01*
X178932020Y-103636285D01*
X178936800Y-103612251D01*
X178936800Y-103587747D01*
X178932019Y-103563714D01*
X178922642Y-103541075D01*
X178909029Y-103520702D01*
X178903800Y-103514330D01*
X178901501Y-103510029D01*
X178900083Y-103505355D01*
X178899000Y-103494359D01*
X178899000Y-103205641D01*
X178900083Y-103194645D01*
X178901501Y-103189971D01*
X178903800Y-103185670D01*
X178909029Y-103179298D01*
X178922643Y-103158924D01*
X178932020Y-103136285D01*
X178936800Y-103112251D01*
X178936800Y-103087747D01*
X178932019Y-103063714D01*
X178922642Y-103041075D01*
X178909029Y-103020702D01*
X178903800Y-103014330D01*
X178901501Y-103010029D01*
X178900083Y-103005355D01*
X178899000Y-102994359D01*
X178899000Y-102705641D01*
X178900083Y-102694645D01*
X178901501Y-102689971D01*
X178903800Y-102685669D01*
X178906896Y-102681896D01*
X178910669Y-102678800D01*
X178914971Y-102676501D01*
X178919645Y-102675083D01*
X178930641Y-102674000D01*
X179749001Y-102674000D01*
X179773387Y-102671598D01*
X179796836Y-102664485D01*
X179818447Y-102652934D01*
X179837389Y-102637389D01*
X179852934Y-102618447D01*
X179864485Y-102596836D01*
X179871598Y-102573387D01*
X179874000Y-102549001D01*
X179874000Y-101730641D01*
X179875083Y-101719645D01*
X179876501Y-101714971D01*
X179878800Y-101710669D01*
X179881896Y-101706896D01*
X179885669Y-101703800D01*
X179889971Y-101701501D01*
X179894645Y-101700083D01*
X179905641Y-101699000D01*
X180194359Y-101699000D01*
X180205355Y-101700083D01*
X180205355Y-101700083D01*
G37*
G36*
X153651000Y-105451000D02*
G01*
X152549000Y-105451000D01*
X152549000Y-101349000D01*
X153651000Y-101349000D01*
X153651000Y-105451000D01*
X153651000Y-105451000D01*
G37*
G36*
X187651000Y-105451000D02*
G01*
X186549000Y-105451000D01*
X186549000Y-101349000D01*
X187651000Y-101349000D01*
X187651000Y-105451000D01*
X187651000Y-105451000D01*
G37*
G36*
X148951000Y-105051000D02*
G01*
X147249000Y-105051000D01*
X147249000Y-103449000D01*
X148951000Y-103449000D01*
X148951000Y-105051000D01*
X148951000Y-105051000D01*
G37*
G36*
X157579591Y-103303085D02*
G01*
X157613569Y-103313393D01*
X157644890Y-103330134D01*
X157672339Y-103352661D01*
X157694866Y-103380110D01*
X157711607Y-103411431D01*
X157721915Y-103445409D01*
X157726000Y-103486890D01*
X157726000Y-104088110D01*
X157721915Y-104129591D01*
X157711607Y-104163569D01*
X157694866Y-104194890D01*
X157672339Y-104222339D01*
X157644890Y-104244866D01*
X157613569Y-104261607D01*
X157579591Y-104271915D01*
X157538110Y-104276000D01*
X156861890Y-104276000D01*
X156820409Y-104271915D01*
X156786431Y-104261607D01*
X156755110Y-104244866D01*
X156727661Y-104222339D01*
X156705134Y-104194890D01*
X156688393Y-104163569D01*
X156678085Y-104129591D01*
X156674000Y-104088110D01*
X156674000Y-103486890D01*
X156678085Y-103445409D01*
X156688393Y-103411431D01*
X156705134Y-103380110D01*
X156727661Y-103352661D01*
X156755110Y-103330134D01*
X156786431Y-103313393D01*
X156820409Y-103303085D01*
X156861890Y-103299000D01*
X157538110Y-103299000D01*
X157579591Y-103303085D01*
X157579591Y-103303085D01*
G37*
G36*
X165379591Y-103303085D02*
G01*
X165413569Y-103313393D01*
X165444890Y-103330134D01*
X165472339Y-103352661D01*
X165494866Y-103380110D01*
X165511607Y-103411431D01*
X165521915Y-103445409D01*
X165526000Y-103486890D01*
X165526000Y-104088110D01*
X165521915Y-104129591D01*
X165511607Y-104163569D01*
X165494866Y-104194890D01*
X165472339Y-104222339D01*
X165444890Y-104244866D01*
X165413569Y-104261607D01*
X165379591Y-104271915D01*
X165338110Y-104276000D01*
X164661890Y-104276000D01*
X164620409Y-104271915D01*
X164586431Y-104261607D01*
X164555110Y-104244866D01*
X164527661Y-104222339D01*
X164505134Y-104194890D01*
X164488393Y-104163569D01*
X164478085Y-104129591D01*
X164474000Y-104088110D01*
X164474000Y-103486890D01*
X164478085Y-103445409D01*
X164488393Y-103411431D01*
X164505134Y-103380110D01*
X164527661Y-103352661D01*
X164555110Y-103330134D01*
X164586431Y-103313393D01*
X164620409Y-103303085D01*
X164661890Y-103299000D01*
X165338110Y-103299000D01*
X165379591Y-103303085D01*
X165379591Y-103303085D01*
G37*
G36*
X177379591Y-103303085D02*
G01*
X177413569Y-103313393D01*
X177444890Y-103330134D01*
X177472339Y-103352661D01*
X177494866Y-103380110D01*
X177511607Y-103411431D01*
X177521915Y-103445409D01*
X177526000Y-103486890D01*
X177526000Y-104088110D01*
X177521915Y-104129591D01*
X177511607Y-104163569D01*
X177494866Y-104194890D01*
X177472339Y-104222339D01*
X177444890Y-104244866D01*
X177413569Y-104261607D01*
X177379591Y-104271915D01*
X177338110Y-104276000D01*
X176661890Y-104276000D01*
X176620409Y-104271915D01*
X176586431Y-104261607D01*
X176555110Y-104244866D01*
X176527661Y-104222339D01*
X176505134Y-104194890D01*
X176488393Y-104163569D01*
X176478085Y-104129591D01*
X176474000Y-104088110D01*
X176474000Y-103486890D01*
X176478085Y-103445409D01*
X176488393Y-103411431D01*
X176505134Y-103380110D01*
X176527661Y-103352661D01*
X176555110Y-103330134D01*
X176586431Y-103313393D01*
X176620409Y-103303085D01*
X176661890Y-103299000D01*
X177338110Y-103299000D01*
X177379591Y-103303085D01*
X177379591Y-103303085D01*
G37*
G36*
X184979591Y-103303085D02*
G01*
X185013569Y-103313393D01*
X185044890Y-103330134D01*
X185072339Y-103352661D01*
X185094866Y-103380110D01*
X185111607Y-103411431D01*
X185121915Y-103445409D01*
X185126000Y-103486890D01*
X185126000Y-104088110D01*
X185121915Y-104129591D01*
X185111607Y-104163569D01*
X185094866Y-104194890D01*
X185072339Y-104222339D01*
X185044890Y-104244866D01*
X185013569Y-104261607D01*
X184979591Y-104271915D01*
X184938110Y-104276000D01*
X184261890Y-104276000D01*
X184220409Y-104271915D01*
X184186431Y-104261607D01*
X184155110Y-104244866D01*
X184127661Y-104222339D01*
X184105134Y-104194890D01*
X184088393Y-104163569D01*
X184078085Y-104129591D01*
X184074000Y-104088110D01*
X184074000Y-103486890D01*
X184078085Y-103445409D01*
X184088393Y-103411431D01*
X184105134Y-103380110D01*
X184127661Y-103352661D01*
X184155110Y-103330134D01*
X184186431Y-103313393D01*
X184220409Y-103303085D01*
X184261890Y-103299000D01*
X184938110Y-103299000D01*
X184979591Y-103303085D01*
X184979591Y-103303085D01*
G37*
G36*
X175179591Y-103303085D02*
G01*
X175213569Y-103313393D01*
X175244890Y-103330134D01*
X175272339Y-103352661D01*
X175294866Y-103380110D01*
X175311607Y-103411431D01*
X175321915Y-103445409D01*
X175326000Y-103486890D01*
X175326000Y-104088110D01*
X175321915Y-104129591D01*
X175311607Y-104163569D01*
X175294866Y-104194890D01*
X175272339Y-104222339D01*
X175244890Y-104244866D01*
X175213569Y-104261607D01*
X175179591Y-104271915D01*
X175138110Y-104276000D01*
X174461890Y-104276000D01*
X174420409Y-104271915D01*
X174386431Y-104261607D01*
X174355110Y-104244866D01*
X174327661Y-104222339D01*
X174305134Y-104194890D01*
X174288393Y-104163569D01*
X174278085Y-104129591D01*
X174274000Y-104088110D01*
X174274000Y-103486890D01*
X174278085Y-103445409D01*
X174288393Y-103411431D01*
X174305134Y-103380110D01*
X174327661Y-103352661D01*
X174355110Y-103330134D01*
X174386431Y-103313393D01*
X174420409Y-103303085D01*
X174461890Y-103299000D01*
X175138110Y-103299000D01*
X175179591Y-103303085D01*
X175179591Y-103303085D01*
G37*
G36*
X167479591Y-103303085D02*
G01*
X167513569Y-103313393D01*
X167544890Y-103330134D01*
X167572339Y-103352661D01*
X167594866Y-103380110D01*
X167611607Y-103411431D01*
X167621915Y-103445409D01*
X167626000Y-103486890D01*
X167626000Y-104088110D01*
X167621915Y-104129591D01*
X167611607Y-104163569D01*
X167594866Y-104194890D01*
X167572339Y-104222339D01*
X167544890Y-104244866D01*
X167513569Y-104261607D01*
X167479591Y-104271915D01*
X167438110Y-104276000D01*
X166761890Y-104276000D01*
X166720409Y-104271915D01*
X166686431Y-104261607D01*
X166655110Y-104244866D01*
X166627661Y-104222339D01*
X166605134Y-104194890D01*
X166588393Y-104163569D01*
X166578085Y-104129591D01*
X166574000Y-104088110D01*
X166574000Y-103486890D01*
X166578085Y-103445409D01*
X166588393Y-103411431D01*
X166605134Y-103380110D01*
X166627661Y-103352661D01*
X166655110Y-103330134D01*
X166686431Y-103313393D01*
X166720409Y-103303085D01*
X166761890Y-103299000D01*
X167438110Y-103299000D01*
X167479591Y-103303085D01*
X167479591Y-103303085D01*
G37*
G36*
X142654591Y-102978085D02*
G01*
X142688569Y-102988393D01*
X142719890Y-103005134D01*
X142747339Y-103027661D01*
X142769866Y-103055110D01*
X142786607Y-103086431D01*
X142796915Y-103120409D01*
X142801000Y-103161890D01*
X142801000Y-103838110D01*
X142796915Y-103879591D01*
X142786607Y-103913569D01*
X142769866Y-103944890D01*
X142747339Y-103972339D01*
X142719890Y-103994866D01*
X142688569Y-104011607D01*
X142654591Y-104021915D01*
X142613110Y-104026000D01*
X142011890Y-104026000D01*
X141970409Y-104021915D01*
X141936431Y-104011607D01*
X141905110Y-103994866D01*
X141877661Y-103972339D01*
X141855134Y-103944890D01*
X141838393Y-103913569D01*
X141828085Y-103879591D01*
X141824000Y-103838110D01*
X141824000Y-103161890D01*
X141828085Y-103120409D01*
X141838393Y-103086431D01*
X141855134Y-103055110D01*
X141877661Y-103027661D01*
X141905110Y-103005134D01*
X141936431Y-102988393D01*
X141970409Y-102978085D01*
X142011890Y-102974000D01*
X142613110Y-102974000D01*
X142654591Y-102978085D01*
X142654591Y-102978085D01*
G37*
G36*
X144229591Y-102978085D02*
G01*
X144263569Y-102988393D01*
X144294890Y-103005134D01*
X144322339Y-103027661D01*
X144344866Y-103055110D01*
X144361607Y-103086431D01*
X144371915Y-103120409D01*
X144376000Y-103161890D01*
X144376000Y-103838110D01*
X144371915Y-103879591D01*
X144361607Y-103913569D01*
X144344866Y-103944890D01*
X144322339Y-103972339D01*
X144294890Y-103994866D01*
X144263569Y-104011607D01*
X144229591Y-104021915D01*
X144188110Y-104026000D01*
X143586890Y-104026000D01*
X143545409Y-104021915D01*
X143511431Y-104011607D01*
X143480110Y-103994866D01*
X143452661Y-103972339D01*
X143430134Y-103944890D01*
X143413393Y-103913569D01*
X143403085Y-103879591D01*
X143399000Y-103838110D01*
X143399000Y-103161890D01*
X143403085Y-103120409D01*
X143413393Y-103086431D01*
X143430134Y-103055110D01*
X143452661Y-103027661D01*
X143480110Y-103005134D01*
X143511431Y-102988393D01*
X143545409Y-102978085D01*
X143586890Y-102974000D01*
X144188110Y-102974000D01*
X144229591Y-102978085D01*
X144229591Y-102978085D01*
G37*
G36*
X140301000Y-102901000D02*
G01*
X138599000Y-102901000D01*
X138599000Y-101299000D01*
X140301000Y-101299000D01*
X140301000Y-102901000D01*
X140301000Y-102901000D01*
G37*
G36*
X165379591Y-101728085D02*
G01*
X165413569Y-101738393D01*
X165444890Y-101755134D01*
X165472339Y-101777661D01*
X165494866Y-101805110D01*
X165511607Y-101836431D01*
X165521915Y-101870409D01*
X165526000Y-101911890D01*
X165526000Y-102513110D01*
X165521915Y-102554591D01*
X165511607Y-102588569D01*
X165494866Y-102619890D01*
X165472339Y-102647339D01*
X165444890Y-102669866D01*
X165413569Y-102686607D01*
X165379591Y-102696915D01*
X165338110Y-102701000D01*
X164661890Y-102701000D01*
X164620409Y-102696915D01*
X164586431Y-102686607D01*
X164555110Y-102669866D01*
X164527661Y-102647339D01*
X164505134Y-102619890D01*
X164488393Y-102588569D01*
X164478085Y-102554591D01*
X164474000Y-102513110D01*
X164474000Y-101911890D01*
X164478085Y-101870409D01*
X164488393Y-101836431D01*
X164505134Y-101805110D01*
X164527661Y-101777661D01*
X164555110Y-101755134D01*
X164586431Y-101738393D01*
X164620409Y-101728085D01*
X164661890Y-101724000D01*
X165338110Y-101724000D01*
X165379591Y-101728085D01*
X165379591Y-101728085D01*
G37*
G36*
X184979591Y-101728085D02*
G01*
X185013569Y-101738393D01*
X185044890Y-101755134D01*
X185072339Y-101777661D01*
X185094866Y-101805110D01*
X185111607Y-101836431D01*
X185121915Y-101870409D01*
X185126000Y-101911890D01*
X185126000Y-102513110D01*
X185121915Y-102554591D01*
X185111607Y-102588569D01*
X185094866Y-102619890D01*
X185072339Y-102647339D01*
X185044890Y-102669866D01*
X185013569Y-102686607D01*
X184979591Y-102696915D01*
X184938110Y-102701000D01*
X184261890Y-102701000D01*
X184220409Y-102696915D01*
X184186431Y-102686607D01*
X184155110Y-102669866D01*
X184127661Y-102647339D01*
X184105134Y-102619890D01*
X184088393Y-102588569D01*
X184078085Y-102554591D01*
X184074000Y-102513110D01*
X184074000Y-101911890D01*
X184078085Y-101870409D01*
X184088393Y-101836431D01*
X184105134Y-101805110D01*
X184127661Y-101777661D01*
X184155110Y-101755134D01*
X184186431Y-101738393D01*
X184220409Y-101728085D01*
X184261890Y-101724000D01*
X184938110Y-101724000D01*
X184979591Y-101728085D01*
X184979591Y-101728085D01*
G37*
G36*
X167479591Y-101728085D02*
G01*
X167513569Y-101738393D01*
X167544890Y-101755134D01*
X167572339Y-101777661D01*
X167594866Y-101805110D01*
X167611607Y-101836431D01*
X167621915Y-101870409D01*
X167626000Y-101911890D01*
X167626000Y-102513110D01*
X167621915Y-102554591D01*
X167611607Y-102588569D01*
X167594866Y-102619890D01*
X167572339Y-102647339D01*
X167544890Y-102669866D01*
X167513569Y-102686607D01*
X167479591Y-102696915D01*
X167438110Y-102701000D01*
X166761890Y-102701000D01*
X166720409Y-102696915D01*
X166686431Y-102686607D01*
X166655110Y-102669866D01*
X166627661Y-102647339D01*
X166605134Y-102619890D01*
X166588393Y-102588569D01*
X166578085Y-102554591D01*
X166574000Y-102513110D01*
X166574000Y-101911890D01*
X166578085Y-101870409D01*
X166588393Y-101836431D01*
X166605134Y-101805110D01*
X166627661Y-101777661D01*
X166655110Y-101755134D01*
X166686431Y-101738393D01*
X166720409Y-101728085D01*
X166761890Y-101724000D01*
X167438110Y-101724000D01*
X167479591Y-101728085D01*
X167479591Y-101728085D01*
G37*
G36*
X157579591Y-101728085D02*
G01*
X157613569Y-101738393D01*
X157644890Y-101755134D01*
X157672339Y-101777661D01*
X157694866Y-101805110D01*
X157711607Y-101836431D01*
X157721915Y-101870409D01*
X157726000Y-101911890D01*
X157726000Y-102513110D01*
X157721915Y-102554591D01*
X157711607Y-102588569D01*
X157694866Y-102619890D01*
X157672339Y-102647339D01*
X157644890Y-102669866D01*
X157613569Y-102686607D01*
X157579591Y-102696915D01*
X157538110Y-102701000D01*
X156861890Y-102701000D01*
X156820409Y-102696915D01*
X156786431Y-102686607D01*
X156755110Y-102669866D01*
X156727661Y-102647339D01*
X156705134Y-102619890D01*
X156688393Y-102588569D01*
X156678085Y-102554591D01*
X156674000Y-102513110D01*
X156674000Y-101911890D01*
X156678085Y-101870409D01*
X156688393Y-101836431D01*
X156705134Y-101805110D01*
X156727661Y-101777661D01*
X156755110Y-101755134D01*
X156786431Y-101738393D01*
X156820409Y-101728085D01*
X156861890Y-101724000D01*
X157538110Y-101724000D01*
X157579591Y-101728085D01*
X157579591Y-101728085D01*
G37*
G36*
X177379591Y-101728085D02*
G01*
X177413569Y-101738393D01*
X177444890Y-101755134D01*
X177472339Y-101777661D01*
X177494866Y-101805110D01*
X177511607Y-101836431D01*
X177521915Y-101870409D01*
X177526000Y-101911890D01*
X177526000Y-102513110D01*
X177521915Y-102554591D01*
X177511607Y-102588569D01*
X177494866Y-102619890D01*
X177472339Y-102647339D01*
X177444890Y-102669866D01*
X177413569Y-102686607D01*
X177379591Y-102696915D01*
X177338110Y-102701000D01*
X176661890Y-102701000D01*
X176620409Y-102696915D01*
X176586431Y-102686607D01*
X176555110Y-102669866D01*
X176527661Y-102647339D01*
X176505134Y-102619890D01*
X176488393Y-102588569D01*
X176478085Y-102554591D01*
X176474000Y-102513110D01*
X176474000Y-101911890D01*
X176478085Y-101870409D01*
X176488393Y-101836431D01*
X176505134Y-101805110D01*
X176527661Y-101777661D01*
X176555110Y-101755134D01*
X176586431Y-101738393D01*
X176620409Y-101728085D01*
X176661890Y-101724000D01*
X177338110Y-101724000D01*
X177379591Y-101728085D01*
X177379591Y-101728085D01*
G37*
G36*
X175179591Y-101728085D02*
G01*
X175213569Y-101738393D01*
X175244890Y-101755134D01*
X175272339Y-101777661D01*
X175294866Y-101805110D01*
X175311607Y-101836431D01*
X175321915Y-101870409D01*
X175326000Y-101911890D01*
X175326000Y-102513110D01*
X175321915Y-102554591D01*
X175311607Y-102588569D01*
X175294866Y-102619890D01*
X175272339Y-102647339D01*
X175244890Y-102669866D01*
X175213569Y-102686607D01*
X175179591Y-102696915D01*
X175138110Y-102701000D01*
X174461890Y-102701000D01*
X174420409Y-102696915D01*
X174386431Y-102686607D01*
X174355110Y-102669866D01*
X174327661Y-102647339D01*
X174305134Y-102619890D01*
X174288393Y-102588569D01*
X174278085Y-102554591D01*
X174274000Y-102513110D01*
X174274000Y-101911890D01*
X174278085Y-101870409D01*
X174288393Y-101836431D01*
X174305134Y-101805110D01*
X174327661Y-101777661D01*
X174355110Y-101755134D01*
X174386431Y-101738393D01*
X174420409Y-101728085D01*
X174461890Y-101724000D01*
X175138110Y-101724000D01*
X175179591Y-101728085D01*
X175179591Y-101728085D01*
G37*
G36*
X143330355Y-96900083D02*
G01*
X143335029Y-96901501D01*
X143339330Y-96903800D01*
X143345702Y-96909029D01*
X143366076Y-96922643D01*
X143388715Y-96932020D01*
X143412749Y-96936800D01*
X143437253Y-96936800D01*
X143461286Y-96932019D01*
X143483925Y-96922642D01*
X143504298Y-96909029D01*
X143510670Y-96903800D01*
X143514971Y-96901501D01*
X143519645Y-96900083D01*
X143530641Y-96899000D01*
X143819359Y-96899000D01*
X143830355Y-96900083D01*
X143835029Y-96901501D01*
X143839330Y-96903800D01*
X143845702Y-96909029D01*
X143866076Y-96922643D01*
X143888715Y-96932020D01*
X143912749Y-96936800D01*
X143937253Y-96936800D01*
X143961286Y-96932019D01*
X143983925Y-96922642D01*
X144004298Y-96909029D01*
X144010670Y-96903800D01*
X144014971Y-96901501D01*
X144019645Y-96900083D01*
X144030641Y-96899000D01*
X144319359Y-96899000D01*
X144330355Y-96900083D01*
X144335029Y-96901501D01*
X144339330Y-96903800D01*
X144345702Y-96909029D01*
X144366076Y-96922643D01*
X144388715Y-96932020D01*
X144412749Y-96936800D01*
X144437253Y-96936800D01*
X144461286Y-96932019D01*
X144483925Y-96922642D01*
X144504298Y-96909029D01*
X144510670Y-96903800D01*
X144514971Y-96901501D01*
X144519645Y-96900083D01*
X144530641Y-96899000D01*
X144819359Y-96899000D01*
X144830355Y-96900083D01*
X144835029Y-96901501D01*
X144839331Y-96903800D01*
X144843104Y-96906896D01*
X144846200Y-96910669D01*
X144848499Y-96914971D01*
X144849917Y-96919645D01*
X144851000Y-96930641D01*
X144851000Y-97774001D01*
X144853402Y-97798387D01*
X144860515Y-97821836D01*
X144872066Y-97843447D01*
X144887611Y-97862389D01*
X144906553Y-97877934D01*
X144928164Y-97889485D01*
X144951613Y-97896598D01*
X144975999Y-97899000D01*
X145819359Y-97899000D01*
X145830355Y-97900083D01*
X145835029Y-97901501D01*
X145839331Y-97903800D01*
X145843104Y-97906896D01*
X145846200Y-97910669D01*
X145848499Y-97914971D01*
X145849917Y-97919645D01*
X145851000Y-97930641D01*
X145851000Y-98219359D01*
X145849917Y-98230355D01*
X145848499Y-98235029D01*
X145846200Y-98239330D01*
X145840971Y-98245702D01*
X145827357Y-98266076D01*
X145817980Y-98288715D01*
X145813200Y-98312749D01*
X145813200Y-98337253D01*
X145817981Y-98361286D01*
X145827358Y-98383925D01*
X145840971Y-98404298D01*
X145846200Y-98410670D01*
X145848499Y-98414971D01*
X145849917Y-98419645D01*
X145851000Y-98430641D01*
X145851000Y-98719359D01*
X145849917Y-98730355D01*
X145848499Y-98735029D01*
X145846200Y-98739330D01*
X145840971Y-98745702D01*
X145827357Y-98766076D01*
X145817980Y-98788715D01*
X145813200Y-98812749D01*
X145813200Y-98837253D01*
X145817981Y-98861286D01*
X145827358Y-98883925D01*
X145840971Y-98904298D01*
X145846200Y-98910670D01*
X145848499Y-98914971D01*
X145849917Y-98919645D01*
X145851000Y-98930641D01*
X145851000Y-99219359D01*
X145849917Y-99230355D01*
X145848499Y-99235029D01*
X145846200Y-99239330D01*
X145840971Y-99245702D01*
X145827357Y-99266076D01*
X145817980Y-99288715D01*
X145813200Y-99312749D01*
X145813200Y-99337253D01*
X145817981Y-99361286D01*
X145827358Y-99383925D01*
X145840971Y-99404298D01*
X145846200Y-99410670D01*
X145848499Y-99414971D01*
X145849917Y-99419645D01*
X145851000Y-99430641D01*
X145851000Y-99719359D01*
X145849917Y-99730355D01*
X145848499Y-99735029D01*
X145846200Y-99739331D01*
X145843104Y-99743104D01*
X145839331Y-99746200D01*
X145835029Y-99748499D01*
X145830355Y-99749917D01*
X145819359Y-99751000D01*
X144975999Y-99751000D01*
X144951613Y-99753402D01*
X144928164Y-99760515D01*
X144906553Y-99772066D01*
X144887611Y-99787611D01*
X144872066Y-99806553D01*
X144860515Y-99828164D01*
X144853402Y-99851613D01*
X144851000Y-99875999D01*
X144851000Y-100719359D01*
X144849917Y-100730355D01*
X144848499Y-100735029D01*
X144846200Y-100739331D01*
X144843104Y-100743104D01*
X144839331Y-100746200D01*
X144835029Y-100748499D01*
X144830355Y-100749917D01*
X144819359Y-100751000D01*
X144530641Y-100751000D01*
X144519645Y-100749917D01*
X144514971Y-100748499D01*
X144510670Y-100746200D01*
X144504298Y-100740971D01*
X144483924Y-100727357D01*
X144461285Y-100717980D01*
X144437251Y-100713200D01*
X144412747Y-100713200D01*
X144388714Y-100717981D01*
X144366075Y-100727358D01*
X144345702Y-100740971D01*
X144339330Y-100746200D01*
X144335029Y-100748499D01*
X144330355Y-100749917D01*
X144319359Y-100751000D01*
X144030641Y-100751000D01*
X144019645Y-100749917D01*
X144014971Y-100748499D01*
X144010670Y-100746200D01*
X144004298Y-100740971D01*
X143983924Y-100727357D01*
X143961285Y-100717980D01*
X143937251Y-100713200D01*
X143912747Y-100713200D01*
X143888714Y-100717981D01*
X143866075Y-100727358D01*
X143845702Y-100740971D01*
X143839330Y-100746200D01*
X143835029Y-100748499D01*
X143830355Y-100749917D01*
X143819359Y-100751000D01*
X143530641Y-100751000D01*
X143519645Y-100749917D01*
X143514971Y-100748499D01*
X143510670Y-100746200D01*
X143504298Y-100740971D01*
X143483924Y-100727357D01*
X143461285Y-100717980D01*
X143437251Y-100713200D01*
X143412747Y-100713200D01*
X143388714Y-100717981D01*
X143366075Y-100727358D01*
X143345702Y-100740971D01*
X143339330Y-100746200D01*
X143335029Y-100748499D01*
X143330355Y-100749917D01*
X143319359Y-100751000D01*
X143030641Y-100751000D01*
X143019645Y-100749917D01*
X143014971Y-100748499D01*
X143010669Y-100746200D01*
X143006896Y-100743104D01*
X143003800Y-100739331D01*
X143001501Y-100735029D01*
X143000083Y-100730355D01*
X142999000Y-100719359D01*
X142999000Y-99875999D01*
X142996598Y-99851613D01*
X142989485Y-99828164D01*
X142977934Y-99806553D01*
X142962389Y-99787611D01*
X142943447Y-99772066D01*
X142921836Y-99760515D01*
X142898387Y-99753402D01*
X142874001Y-99751000D01*
X142030641Y-99751000D01*
X142019645Y-99749917D01*
X142014971Y-99748499D01*
X142010669Y-99746200D01*
X142006896Y-99743104D01*
X142003800Y-99739331D01*
X142001501Y-99735029D01*
X142000083Y-99730355D01*
X141999000Y-99719359D01*
X141999000Y-99430641D01*
X142000083Y-99419645D01*
X142001501Y-99414971D01*
X142003800Y-99410670D01*
X142009029Y-99404298D01*
X142022643Y-99383924D01*
X142032020Y-99361285D01*
X142036800Y-99337251D01*
X142036800Y-99312747D01*
X142032019Y-99288714D01*
X142022642Y-99266075D01*
X142009029Y-99245702D01*
X142003800Y-99239330D01*
X142001501Y-99235029D01*
X142000083Y-99230355D01*
X141999000Y-99219359D01*
X141999000Y-98930641D01*
X142000083Y-98919645D01*
X142001501Y-98914971D01*
X142003800Y-98910670D01*
X142009029Y-98904298D01*
X142022643Y-98883924D01*
X142032020Y-98861285D01*
X142036800Y-98837251D01*
X142036800Y-98812747D01*
X142032019Y-98788714D01*
X142022642Y-98766075D01*
X142009029Y-98745702D01*
X142003800Y-98739330D01*
X142001501Y-98735029D01*
X142000083Y-98730355D01*
X141999000Y-98719359D01*
X141999000Y-98430641D01*
X142000083Y-98419645D01*
X142001501Y-98414971D01*
X142003800Y-98410670D01*
X142009029Y-98404298D01*
X142022643Y-98383924D01*
X142032020Y-98361285D01*
X142036800Y-98337251D01*
X142036800Y-98312747D01*
X142032019Y-98288714D01*
X142022642Y-98266075D01*
X142009029Y-98245702D01*
X142003800Y-98239330D01*
X142001501Y-98235029D01*
X142000083Y-98230355D01*
X141999000Y-98219359D01*
X141999000Y-97930641D01*
X142000083Y-97919645D01*
X142001501Y-97914971D01*
X142003800Y-97910669D01*
X142006896Y-97906896D01*
X142010669Y-97903800D01*
X142014971Y-97901501D01*
X142019645Y-97900083D01*
X142030641Y-97899000D01*
X142874001Y-97899000D01*
X142898387Y-97896598D01*
X142921836Y-97889485D01*
X142943447Y-97877934D01*
X142962389Y-97862389D01*
X142977934Y-97843447D01*
X142989485Y-97821836D01*
X142996598Y-97798387D01*
X142999000Y-97774001D01*
X142999000Y-96930641D01*
X143000083Y-96919645D01*
X143001501Y-96914971D01*
X143003800Y-96910669D01*
X143006896Y-96906896D01*
X143010669Y-96903800D01*
X143014971Y-96901501D01*
X143019645Y-96900083D01*
X143030641Y-96899000D01*
X143319359Y-96899000D01*
X143330355Y-96900083D01*
X143330355Y-96900083D01*
G37*
G36*
X163621938Y-99881716D02*
G01*
X163642557Y-99887971D01*
X163661553Y-99898124D01*
X163678208Y-99911792D01*
X163691876Y-99928447D01*
X163702029Y-99947443D01*
X163708284Y-99968062D01*
X163711000Y-99995640D01*
X163711000Y-100504360D01*
X163708284Y-100531938D01*
X163702029Y-100552557D01*
X163691876Y-100571553D01*
X163678208Y-100588208D01*
X163661553Y-100601876D01*
X163642557Y-100612029D01*
X163621938Y-100618284D01*
X163594360Y-100621000D01*
X163135640Y-100621000D01*
X163108062Y-100618284D01*
X163087443Y-100612029D01*
X163068447Y-100601876D01*
X163051792Y-100588208D01*
X163038124Y-100571553D01*
X163027971Y-100552557D01*
X163021716Y-100531938D01*
X163019000Y-100504360D01*
X163019000Y-99995640D01*
X163021716Y-99968062D01*
X163027971Y-99947443D01*
X163038124Y-99928447D01*
X163051792Y-99911792D01*
X163068447Y-99898124D01*
X163087443Y-99887971D01*
X163108062Y-99881716D01*
X163135640Y-99879000D01*
X163594360Y-99879000D01*
X163621938Y-99881716D01*
X163621938Y-99881716D01*
G37*
G36*
X164591938Y-99881716D02*
G01*
X164612557Y-99887971D01*
X164631553Y-99898124D01*
X164648208Y-99911792D01*
X164661876Y-99928447D01*
X164672029Y-99947443D01*
X164678284Y-99968062D01*
X164681000Y-99995640D01*
X164681000Y-100504360D01*
X164678284Y-100531938D01*
X164672029Y-100552557D01*
X164661876Y-100571553D01*
X164648208Y-100588208D01*
X164631553Y-100601876D01*
X164612557Y-100612029D01*
X164591938Y-100618284D01*
X164564360Y-100621000D01*
X164105640Y-100621000D01*
X164078062Y-100618284D01*
X164057443Y-100612029D01*
X164038447Y-100601876D01*
X164021792Y-100588208D01*
X164008124Y-100571553D01*
X163997971Y-100552557D01*
X163991716Y-100531938D01*
X163989000Y-100504360D01*
X163989000Y-99995640D01*
X163991716Y-99968062D01*
X163997971Y-99947443D01*
X164008124Y-99928447D01*
X164021792Y-99911792D01*
X164038447Y-99898124D01*
X164057443Y-99887971D01*
X164078062Y-99881716D01*
X164105640Y-99879000D01*
X164564360Y-99879000D01*
X164591938Y-99881716D01*
X164591938Y-99881716D01*
G37*
G36*
X162241938Y-99831716D02*
G01*
X162262557Y-99837971D01*
X162281553Y-99848124D01*
X162298208Y-99861792D01*
X162311876Y-99878447D01*
X162322029Y-99897443D01*
X162328284Y-99918062D01*
X162331000Y-99945640D01*
X162331000Y-100454360D01*
X162328284Y-100481938D01*
X162322029Y-100502557D01*
X162311876Y-100521553D01*
X162298208Y-100538208D01*
X162281553Y-100551876D01*
X162262557Y-100562029D01*
X162241938Y-100568284D01*
X162214360Y-100571000D01*
X161755640Y-100571000D01*
X161728062Y-100568284D01*
X161707443Y-100562029D01*
X161688447Y-100551876D01*
X161671792Y-100538208D01*
X161658124Y-100521553D01*
X161647971Y-100502557D01*
X161641716Y-100481938D01*
X161639000Y-100454360D01*
X161639000Y-99945640D01*
X161641716Y-99918062D01*
X161647971Y-99897443D01*
X161658124Y-99878447D01*
X161671792Y-99861792D01*
X161688447Y-99848124D01*
X161707443Y-99837971D01*
X161728062Y-99831716D01*
X161755640Y-99829000D01*
X162214360Y-99829000D01*
X162241938Y-99831716D01*
X162241938Y-99831716D01*
G37*
G36*
X161271938Y-99831716D02*
G01*
X161292557Y-99837971D01*
X161311553Y-99848124D01*
X161328208Y-99861792D01*
X161341876Y-99878447D01*
X161352029Y-99897443D01*
X161358284Y-99918062D01*
X161361000Y-99945640D01*
X161361000Y-100454360D01*
X161358284Y-100481938D01*
X161352029Y-100502557D01*
X161341876Y-100521553D01*
X161328208Y-100538208D01*
X161311553Y-100551876D01*
X161292557Y-100562029D01*
X161271938Y-100568284D01*
X161244360Y-100571000D01*
X160785640Y-100571000D01*
X160758062Y-100568284D01*
X160737443Y-100562029D01*
X160718447Y-100551876D01*
X160701792Y-100538208D01*
X160688124Y-100521553D01*
X160677971Y-100502557D01*
X160671716Y-100481938D01*
X160669000Y-100454360D01*
X160669000Y-99945640D01*
X160671716Y-99918062D01*
X160677971Y-99897443D01*
X160688124Y-99878447D01*
X160701792Y-99861792D01*
X160718447Y-99848124D01*
X160737443Y-99837971D01*
X160758062Y-99831716D01*
X160785640Y-99829000D01*
X161244360Y-99829000D01*
X161271938Y-99831716D01*
X161271938Y-99831716D01*
G37*
G36*
X182041938Y-99631716D02*
G01*
X182062557Y-99637971D01*
X182081553Y-99648124D01*
X182098208Y-99661792D01*
X182111876Y-99678447D01*
X182122029Y-99697443D01*
X182128284Y-99718062D01*
X182131000Y-99745640D01*
X182131000Y-100254360D01*
X182128284Y-100281938D01*
X182122029Y-100302557D01*
X182111876Y-100321553D01*
X182098208Y-100338208D01*
X182081553Y-100351876D01*
X182062557Y-100362029D01*
X182041938Y-100368284D01*
X182014360Y-100371000D01*
X181555640Y-100371000D01*
X181528062Y-100368284D01*
X181507443Y-100362029D01*
X181488447Y-100351876D01*
X181471792Y-100338208D01*
X181458124Y-100321553D01*
X181447971Y-100302557D01*
X181441716Y-100281938D01*
X181439000Y-100254360D01*
X181439000Y-99745640D01*
X181441716Y-99718062D01*
X181447971Y-99697443D01*
X181458124Y-99678447D01*
X181471792Y-99661792D01*
X181488447Y-99648124D01*
X181507443Y-99637971D01*
X181528062Y-99631716D01*
X181555640Y-99629000D01*
X182014360Y-99629000D01*
X182041938Y-99631716D01*
X182041938Y-99631716D01*
G37*
G36*
X181071938Y-99631716D02*
G01*
X181092557Y-99637971D01*
X181111553Y-99648124D01*
X181128208Y-99661792D01*
X181141876Y-99678447D01*
X181152029Y-99697443D01*
X181158284Y-99718062D01*
X181161000Y-99745640D01*
X181161000Y-100254360D01*
X181158284Y-100281938D01*
X181152029Y-100302557D01*
X181141876Y-100321553D01*
X181128208Y-100338208D01*
X181111553Y-100351876D01*
X181092557Y-100362029D01*
X181071938Y-100368284D01*
X181044360Y-100371000D01*
X180585640Y-100371000D01*
X180558062Y-100368284D01*
X180537443Y-100362029D01*
X180518447Y-100351876D01*
X180501792Y-100338208D01*
X180488124Y-100321553D01*
X180477971Y-100302557D01*
X180471716Y-100281938D01*
X180469000Y-100254360D01*
X180469000Y-99745640D01*
X180471716Y-99718062D01*
X180477971Y-99697443D01*
X180488124Y-99678447D01*
X180501792Y-99661792D01*
X180518447Y-99648124D01*
X180537443Y-99637971D01*
X180558062Y-99631716D01*
X180585640Y-99629000D01*
X181044360Y-99629000D01*
X181071938Y-99631716D01*
X181071938Y-99631716D01*
G37*
G36*
X172341938Y-99531716D02*
G01*
X172362557Y-99537971D01*
X172381553Y-99548124D01*
X172398208Y-99561792D01*
X172411876Y-99578447D01*
X172422029Y-99597443D01*
X172428284Y-99618062D01*
X172431000Y-99645640D01*
X172431000Y-100154360D01*
X172428284Y-100181938D01*
X172422029Y-100202557D01*
X172411876Y-100221553D01*
X172398208Y-100238208D01*
X172381553Y-100251876D01*
X172362557Y-100262029D01*
X172341938Y-100268284D01*
X172314360Y-100271000D01*
X171855640Y-100271000D01*
X171828062Y-100268284D01*
X171807443Y-100262029D01*
X171788447Y-100251876D01*
X171771792Y-100238208D01*
X171758124Y-100221553D01*
X171747971Y-100202557D01*
X171741716Y-100181938D01*
X171739000Y-100154360D01*
X171739000Y-99645640D01*
X171741716Y-99618062D01*
X171747971Y-99597443D01*
X171758124Y-99578447D01*
X171771792Y-99561792D01*
X171788447Y-99548124D01*
X171807443Y-99537971D01*
X171828062Y-99531716D01*
X171855640Y-99529000D01*
X172314360Y-99529000D01*
X172341938Y-99531716D01*
X172341938Y-99531716D01*
G37*
G36*
X171371938Y-99531716D02*
G01*
X171392557Y-99537971D01*
X171411553Y-99548124D01*
X171428208Y-99561792D01*
X171441876Y-99578447D01*
X171452029Y-99597443D01*
X171458284Y-99618062D01*
X171461000Y-99645640D01*
X171461000Y-100154360D01*
X171458284Y-100181938D01*
X171452029Y-100202557D01*
X171441876Y-100221553D01*
X171428208Y-100238208D01*
X171411553Y-100251876D01*
X171392557Y-100262029D01*
X171371938Y-100268284D01*
X171344360Y-100271000D01*
X170885640Y-100271000D01*
X170858062Y-100268284D01*
X170837443Y-100262029D01*
X170818447Y-100251876D01*
X170801792Y-100238208D01*
X170788124Y-100221553D01*
X170777971Y-100202557D01*
X170771716Y-100181938D01*
X170769000Y-100154360D01*
X170769000Y-99645640D01*
X170771716Y-99618062D01*
X170777971Y-99597443D01*
X170788124Y-99578447D01*
X170801792Y-99561792D01*
X170818447Y-99548124D01*
X170837443Y-99537971D01*
X170858062Y-99531716D01*
X170885640Y-99529000D01*
X171344360Y-99529000D01*
X171371938Y-99531716D01*
X171371938Y-99531716D01*
G37*
G36*
X173621938Y-99531716D02*
G01*
X173642557Y-99537971D01*
X173661553Y-99548124D01*
X173678208Y-99561792D01*
X173691876Y-99578447D01*
X173702029Y-99597443D01*
X173708284Y-99618062D01*
X173711000Y-99645640D01*
X173711000Y-100154360D01*
X173708284Y-100181938D01*
X173702029Y-100202557D01*
X173691876Y-100221553D01*
X173678208Y-100238208D01*
X173661553Y-100251876D01*
X173642557Y-100262029D01*
X173621938Y-100268284D01*
X173594360Y-100271000D01*
X173135640Y-100271000D01*
X173108062Y-100268284D01*
X173087443Y-100262029D01*
X173068447Y-100251876D01*
X173051792Y-100238208D01*
X173038124Y-100221553D01*
X173027971Y-100202557D01*
X173021716Y-100181938D01*
X173019000Y-100154360D01*
X173019000Y-99645640D01*
X173021716Y-99618062D01*
X173027971Y-99597443D01*
X173038124Y-99578447D01*
X173051792Y-99561792D01*
X173068447Y-99548124D01*
X173087443Y-99537971D01*
X173108062Y-99531716D01*
X173135640Y-99529000D01*
X173594360Y-99529000D01*
X173621938Y-99531716D01*
X173621938Y-99531716D01*
G37*
G36*
X174591938Y-99531716D02*
G01*
X174612557Y-99537971D01*
X174631553Y-99548124D01*
X174648208Y-99561792D01*
X174661876Y-99578447D01*
X174672029Y-99597443D01*
X174678284Y-99618062D01*
X174681000Y-99645640D01*
X174681000Y-100154360D01*
X174678284Y-100181938D01*
X174672029Y-100202557D01*
X174661876Y-100221553D01*
X174648208Y-100238208D01*
X174631553Y-100251876D01*
X174612557Y-100262029D01*
X174591938Y-100268284D01*
X174564360Y-100271000D01*
X174105640Y-100271000D01*
X174078062Y-100268284D01*
X174057443Y-100262029D01*
X174038447Y-100251876D01*
X174021792Y-100238208D01*
X174008124Y-100221553D01*
X173997971Y-100202557D01*
X173991716Y-100181938D01*
X173989000Y-100154360D01*
X173989000Y-99645640D01*
X173991716Y-99618062D01*
X173997971Y-99597443D01*
X174008124Y-99578447D01*
X174021792Y-99561792D01*
X174038447Y-99548124D01*
X174057443Y-99537971D01*
X174078062Y-99531716D01*
X174105640Y-99529000D01*
X174564360Y-99529000D01*
X174591938Y-99531716D01*
X174591938Y-99531716D01*
G37*
G36*
X150379591Y-99103085D02*
G01*
X150413569Y-99113393D01*
X150444890Y-99130134D01*
X150472339Y-99152661D01*
X150494866Y-99180110D01*
X150511607Y-99211431D01*
X150521915Y-99245409D01*
X150526000Y-99286890D01*
X150526000Y-99888110D01*
X150521915Y-99929591D01*
X150511607Y-99963569D01*
X150494866Y-99994890D01*
X150472339Y-100022339D01*
X150444890Y-100044866D01*
X150413569Y-100061607D01*
X150379591Y-100071915D01*
X150338110Y-100076000D01*
X149661890Y-100076000D01*
X149620409Y-100071915D01*
X149586431Y-100061607D01*
X149555110Y-100044866D01*
X149527661Y-100022339D01*
X149505134Y-99994890D01*
X149488393Y-99963569D01*
X149478085Y-99929591D01*
X149474000Y-99888110D01*
X149474000Y-99286890D01*
X149478085Y-99245409D01*
X149488393Y-99211431D01*
X149505134Y-99180110D01*
X149527661Y-99152661D01*
X149555110Y-99130134D01*
X149586431Y-99113393D01*
X149620409Y-99103085D01*
X149661890Y-99099000D01*
X150338110Y-99099000D01*
X150379591Y-99103085D01*
X150379591Y-99103085D01*
G37*
G36*
X148279591Y-99053085D02*
G01*
X148313569Y-99063393D01*
X148344890Y-99080134D01*
X148372339Y-99102661D01*
X148394866Y-99130110D01*
X148411607Y-99161431D01*
X148421915Y-99195409D01*
X148426000Y-99236890D01*
X148426000Y-99838110D01*
X148421915Y-99879591D01*
X148411607Y-99913569D01*
X148394866Y-99944890D01*
X148372339Y-99972339D01*
X148344890Y-99994866D01*
X148313569Y-100011607D01*
X148279591Y-100021915D01*
X148238110Y-100026000D01*
X147561890Y-100026000D01*
X147520409Y-100021915D01*
X147486431Y-100011607D01*
X147455110Y-99994866D01*
X147427661Y-99972339D01*
X147405134Y-99944890D01*
X147388393Y-99913569D01*
X147378085Y-99879591D01*
X147374000Y-99838110D01*
X147374000Y-99236890D01*
X147378085Y-99195409D01*
X147388393Y-99161431D01*
X147405134Y-99130110D01*
X147427661Y-99102661D01*
X147455110Y-99080134D01*
X147486431Y-99063393D01*
X147520409Y-99053085D01*
X147561890Y-99049000D01*
X148238110Y-99049000D01*
X148279591Y-99053085D01*
X148279591Y-99053085D01*
G37*
G36*
X153651000Y-99451000D02*
G01*
X152549000Y-99451000D01*
X152549000Y-95349000D01*
X153651000Y-95349000D01*
X153651000Y-99451000D01*
X153651000Y-99451000D01*
G37*
G36*
X187651000Y-99451000D02*
G01*
X186549000Y-99451000D01*
X186549000Y-95349000D01*
X187651000Y-95349000D01*
X187651000Y-99451000D01*
X187651000Y-99451000D01*
G37*
G36*
X178268604Y-98028347D02*
G01*
X178305144Y-98039432D01*
X178338821Y-98057433D01*
X178368341Y-98081659D01*
X178392567Y-98111179D01*
X178410568Y-98144856D01*
X178421653Y-98181396D01*
X178426000Y-98225538D01*
X178426000Y-99174462D01*
X178421653Y-99218604D01*
X178410568Y-99255144D01*
X178392567Y-99288821D01*
X178368341Y-99318341D01*
X178338821Y-99342567D01*
X178305144Y-99360568D01*
X178268604Y-99371653D01*
X178224462Y-99376000D01*
X175875538Y-99376000D01*
X175831396Y-99371653D01*
X175794856Y-99360568D01*
X175761179Y-99342567D01*
X175731659Y-99318341D01*
X175707433Y-99288821D01*
X175689432Y-99255144D01*
X175678347Y-99218604D01*
X175674000Y-99174462D01*
X175674000Y-98225538D01*
X175678347Y-98181396D01*
X175689432Y-98144856D01*
X175707433Y-98111179D01*
X175731659Y-98081659D01*
X175761179Y-98057433D01*
X175794856Y-98039432D01*
X175831396Y-98028347D01*
X175875538Y-98024000D01*
X178224462Y-98024000D01*
X178268604Y-98028347D01*
X178268604Y-98028347D01*
G37*
G36*
X168318604Y-97978347D02*
G01*
X168355144Y-97989432D01*
X168388821Y-98007433D01*
X168418341Y-98031659D01*
X168442567Y-98061179D01*
X168460568Y-98094856D01*
X168471653Y-98131396D01*
X168476000Y-98175538D01*
X168476000Y-99124462D01*
X168471653Y-99168604D01*
X168460568Y-99205144D01*
X168442567Y-99238821D01*
X168418341Y-99268341D01*
X168388821Y-99292567D01*
X168355144Y-99310568D01*
X168318604Y-99321653D01*
X168274462Y-99326000D01*
X165925538Y-99326000D01*
X165881396Y-99321653D01*
X165844856Y-99310568D01*
X165811179Y-99292567D01*
X165781659Y-99268341D01*
X165757433Y-99238821D01*
X165739432Y-99205144D01*
X165728347Y-99168604D01*
X165724000Y-99124462D01*
X165724000Y-98175538D01*
X165728347Y-98131396D01*
X165739432Y-98094856D01*
X165757433Y-98061179D01*
X165781659Y-98031659D01*
X165811179Y-98007433D01*
X165844856Y-97989432D01*
X165881396Y-97978347D01*
X165925538Y-97974000D01*
X168274462Y-97974000D01*
X168318604Y-97978347D01*
X168318604Y-97978347D01*
G37*
G36*
X140979591Y-98303085D02*
G01*
X141013569Y-98313393D01*
X141044890Y-98330134D01*
X141072339Y-98352661D01*
X141094866Y-98380110D01*
X141111607Y-98411431D01*
X141121915Y-98445409D01*
X141126000Y-98486890D01*
X141126000Y-99088110D01*
X141121915Y-99129591D01*
X141111607Y-99163569D01*
X141094866Y-99194890D01*
X141072339Y-99222339D01*
X141044890Y-99244866D01*
X141013569Y-99261607D01*
X140979591Y-99271915D01*
X140938110Y-99276000D01*
X140261890Y-99276000D01*
X140220409Y-99271915D01*
X140186431Y-99261607D01*
X140155110Y-99244866D01*
X140127661Y-99222339D01*
X140105134Y-99194890D01*
X140088393Y-99163569D01*
X140078085Y-99129591D01*
X140074000Y-99088110D01*
X140074000Y-98486890D01*
X140078085Y-98445409D01*
X140088393Y-98411431D01*
X140105134Y-98380110D01*
X140127661Y-98352661D01*
X140155110Y-98330134D01*
X140186431Y-98313393D01*
X140220409Y-98303085D01*
X140261890Y-98299000D01*
X140938110Y-98299000D01*
X140979591Y-98303085D01*
X140979591Y-98303085D01*
G37*
G36*
X158168604Y-97878347D02*
G01*
X158205144Y-97889432D01*
X158238821Y-97907433D01*
X158268341Y-97931659D01*
X158292567Y-97961179D01*
X158310568Y-97994856D01*
X158321653Y-98031396D01*
X158326000Y-98075538D01*
X158326000Y-99024462D01*
X158321653Y-99068604D01*
X158310568Y-99105144D01*
X158292567Y-99138821D01*
X158268341Y-99168341D01*
X158238821Y-99192567D01*
X158205144Y-99210568D01*
X158168604Y-99221653D01*
X158124462Y-99226000D01*
X155775538Y-99226000D01*
X155731396Y-99221653D01*
X155694856Y-99210568D01*
X155661179Y-99192567D01*
X155631659Y-99168341D01*
X155607433Y-99138821D01*
X155589432Y-99105144D01*
X155578347Y-99068604D01*
X155574000Y-99024462D01*
X155574000Y-98075538D01*
X155578347Y-98031396D01*
X155589432Y-97994856D01*
X155607433Y-97961179D01*
X155631659Y-97931659D01*
X155661179Y-97907433D01*
X155694856Y-97889432D01*
X155731396Y-97878347D01*
X155775538Y-97874000D01*
X158124462Y-97874000D01*
X158168604Y-97878347D01*
X158168604Y-97878347D01*
G37*
G36*
X182041938Y-98131716D02*
G01*
X182062557Y-98137971D01*
X182081553Y-98148124D01*
X182098208Y-98161792D01*
X182111876Y-98178447D01*
X182122029Y-98197443D01*
X182128284Y-98218062D01*
X182131000Y-98245640D01*
X182131000Y-98754360D01*
X182128284Y-98781938D01*
X182122029Y-98802557D01*
X182111876Y-98821553D01*
X182098208Y-98838208D01*
X182081553Y-98851876D01*
X182062557Y-98862029D01*
X182041938Y-98868284D01*
X182014360Y-98871000D01*
X181555640Y-98871000D01*
X181528062Y-98868284D01*
X181507443Y-98862029D01*
X181488447Y-98851876D01*
X181471792Y-98838208D01*
X181458124Y-98821553D01*
X181447971Y-98802557D01*
X181441716Y-98781938D01*
X181439000Y-98754360D01*
X181439000Y-98245640D01*
X181441716Y-98218062D01*
X181447971Y-98197443D01*
X181458124Y-98178447D01*
X181471792Y-98161792D01*
X181488447Y-98148124D01*
X181507443Y-98137971D01*
X181528062Y-98131716D01*
X181555640Y-98129000D01*
X182014360Y-98129000D01*
X182041938Y-98131716D01*
X182041938Y-98131716D01*
G37*
G36*
X181071938Y-98131716D02*
G01*
X181092557Y-98137971D01*
X181111553Y-98148124D01*
X181128208Y-98161792D01*
X181141876Y-98178447D01*
X181152029Y-98197443D01*
X181158284Y-98218062D01*
X181161000Y-98245640D01*
X181161000Y-98754360D01*
X181158284Y-98781938D01*
X181152029Y-98802557D01*
X181141876Y-98821553D01*
X181128208Y-98838208D01*
X181111553Y-98851876D01*
X181092557Y-98862029D01*
X181071938Y-98868284D01*
X181044360Y-98871000D01*
X180585640Y-98871000D01*
X180558062Y-98868284D01*
X180537443Y-98862029D01*
X180518447Y-98851876D01*
X180501792Y-98838208D01*
X180488124Y-98821553D01*
X180477971Y-98802557D01*
X180471716Y-98781938D01*
X180469000Y-98754360D01*
X180469000Y-98245640D01*
X180471716Y-98218062D01*
X180477971Y-98197443D01*
X180488124Y-98178447D01*
X180501792Y-98161792D01*
X180518447Y-98148124D01*
X180537443Y-98137971D01*
X180558062Y-98131716D01*
X180585640Y-98129000D01*
X181044360Y-98129000D01*
X181071938Y-98131716D01*
X181071938Y-98131716D01*
G37*
G36*
X150379591Y-97528085D02*
G01*
X150413569Y-97538393D01*
X150444890Y-97555134D01*
X150472339Y-97577661D01*
X150494866Y-97605110D01*
X150511607Y-97636431D01*
X150521915Y-97670409D01*
X150526000Y-97711890D01*
X150526000Y-98313110D01*
X150521915Y-98354591D01*
X150511607Y-98388569D01*
X150494866Y-98419890D01*
X150472339Y-98447339D01*
X150444890Y-98469866D01*
X150413569Y-98486607D01*
X150379591Y-98496915D01*
X150338110Y-98501000D01*
X149661890Y-98501000D01*
X149620409Y-98496915D01*
X149586431Y-98486607D01*
X149555110Y-98469866D01*
X149527661Y-98447339D01*
X149505134Y-98419890D01*
X149488393Y-98388569D01*
X149478085Y-98354591D01*
X149474000Y-98313110D01*
X149474000Y-97711890D01*
X149478085Y-97670409D01*
X149488393Y-97636431D01*
X149505134Y-97605110D01*
X149527661Y-97577661D01*
X149555110Y-97555134D01*
X149586431Y-97538393D01*
X149620409Y-97528085D01*
X149661890Y-97524000D01*
X150338110Y-97524000D01*
X150379591Y-97528085D01*
X150379591Y-97528085D01*
G37*
G36*
X148279591Y-97478085D02*
G01*
X148313569Y-97488393D01*
X148344890Y-97505134D01*
X148372339Y-97527661D01*
X148394866Y-97555110D01*
X148411607Y-97586431D01*
X148421915Y-97620409D01*
X148426000Y-97661890D01*
X148426000Y-98263110D01*
X148421915Y-98304591D01*
X148411607Y-98338569D01*
X148394866Y-98369890D01*
X148372339Y-98397339D01*
X148344890Y-98419866D01*
X148313569Y-98436607D01*
X148279591Y-98446915D01*
X148238110Y-98451000D01*
X147561890Y-98451000D01*
X147520409Y-98446915D01*
X147486431Y-98436607D01*
X147455110Y-98419866D01*
X147427661Y-98397339D01*
X147405134Y-98369890D01*
X147388393Y-98338569D01*
X147378085Y-98304591D01*
X147374000Y-98263110D01*
X147374000Y-97661890D01*
X147378085Y-97620409D01*
X147388393Y-97586431D01*
X147405134Y-97555110D01*
X147427661Y-97527661D01*
X147455110Y-97505134D01*
X147486431Y-97488393D01*
X147520409Y-97478085D01*
X147561890Y-97474000D01*
X148238110Y-97474000D01*
X148279591Y-97478085D01*
X148279591Y-97478085D01*
G37*
G36*
X140979591Y-96728085D02*
G01*
X141013569Y-96738393D01*
X141044890Y-96755134D01*
X141072339Y-96777661D01*
X141094866Y-96805110D01*
X141111607Y-96836431D01*
X141121915Y-96870409D01*
X141126000Y-96911890D01*
X141126000Y-97513110D01*
X141121915Y-97554591D01*
X141111607Y-97588569D01*
X141094866Y-97619890D01*
X141072339Y-97647339D01*
X141044890Y-97669866D01*
X141013569Y-97686607D01*
X140979591Y-97696915D01*
X140938110Y-97701000D01*
X140261890Y-97701000D01*
X140220409Y-97696915D01*
X140186431Y-97686607D01*
X140155110Y-97669866D01*
X140127661Y-97647339D01*
X140105134Y-97619890D01*
X140088393Y-97588569D01*
X140078085Y-97554591D01*
X140074000Y-97513110D01*
X140074000Y-96911890D01*
X140078085Y-96870409D01*
X140088393Y-96836431D01*
X140105134Y-96805110D01*
X140127661Y-96777661D01*
X140155110Y-96755134D01*
X140186431Y-96738393D01*
X140220409Y-96728085D01*
X140261890Y-96724000D01*
X140938110Y-96724000D01*
X140979591Y-96728085D01*
X140979591Y-96728085D01*
G37*
G36*
X182868604Y-94328347D02*
G01*
X182905144Y-94339432D01*
X182938821Y-94357433D01*
X182968341Y-94381659D01*
X182992567Y-94411179D01*
X183010568Y-94444856D01*
X183021653Y-94481396D01*
X183026000Y-94525538D01*
X183026000Y-96874462D01*
X183021653Y-96918604D01*
X183010568Y-96955144D01*
X182992567Y-96988821D01*
X182968341Y-97018341D01*
X182938821Y-97042567D01*
X182905144Y-97060568D01*
X182868604Y-97071653D01*
X182824462Y-97076000D01*
X181875538Y-97076000D01*
X181831396Y-97071653D01*
X181794856Y-97060568D01*
X181761179Y-97042567D01*
X181731659Y-97018341D01*
X181707433Y-96988821D01*
X181689432Y-96955144D01*
X181678347Y-96918604D01*
X181674000Y-96874462D01*
X181674000Y-94525538D01*
X181678347Y-94481396D01*
X181689432Y-94444856D01*
X181707433Y-94411179D01*
X181731659Y-94381659D01*
X181761179Y-94357433D01*
X181794856Y-94339432D01*
X181831396Y-94328347D01*
X181875538Y-94324000D01*
X182824462Y-94324000D01*
X182868604Y-94328347D01*
X182868604Y-94328347D01*
G37*
G36*
X185668604Y-94328347D02*
G01*
X185705144Y-94339432D01*
X185738821Y-94357433D01*
X185768341Y-94381659D01*
X185792567Y-94411179D01*
X185810568Y-94444856D01*
X185821653Y-94481396D01*
X185826000Y-94525538D01*
X185826000Y-96874462D01*
X185821653Y-96918604D01*
X185810568Y-96955144D01*
X185792567Y-96988821D01*
X185768341Y-97018341D01*
X185738821Y-97042567D01*
X185705144Y-97060568D01*
X185668604Y-97071653D01*
X185624462Y-97076000D01*
X184675538Y-97076000D01*
X184631396Y-97071653D01*
X184594856Y-97060568D01*
X184561179Y-97042567D01*
X184531659Y-97018341D01*
X184507433Y-96988821D01*
X184489432Y-96955144D01*
X184478347Y-96918604D01*
X184474000Y-96874462D01*
X184474000Y-94525538D01*
X184478347Y-94481396D01*
X184489432Y-94444856D01*
X184507433Y-94411179D01*
X184531659Y-94381659D01*
X184561179Y-94357433D01*
X184594856Y-94339432D01*
X184631396Y-94328347D01*
X184675538Y-94324000D01*
X185624462Y-94324000D01*
X185668604Y-94328347D01*
X185668604Y-94328347D01*
G37*
G36*
X178268604Y-95228347D02*
G01*
X178305144Y-95239432D01*
X178338821Y-95257433D01*
X178368341Y-95281659D01*
X178392567Y-95311179D01*
X178410568Y-95344856D01*
X178421653Y-95381396D01*
X178426000Y-95425538D01*
X178426000Y-96374462D01*
X178421653Y-96418604D01*
X178410568Y-96455144D01*
X178392567Y-96488821D01*
X178368341Y-96518341D01*
X178338821Y-96542567D01*
X178305144Y-96560568D01*
X178268604Y-96571653D01*
X178224462Y-96576000D01*
X175875538Y-96576000D01*
X175831396Y-96571653D01*
X175794856Y-96560568D01*
X175761179Y-96542567D01*
X175731659Y-96518341D01*
X175707433Y-96488821D01*
X175689432Y-96455144D01*
X175678347Y-96418604D01*
X175674000Y-96374462D01*
X175674000Y-95425538D01*
X175678347Y-95381396D01*
X175689432Y-95344856D01*
X175707433Y-95311179D01*
X175731659Y-95281659D01*
X175761179Y-95257433D01*
X175794856Y-95239432D01*
X175831396Y-95228347D01*
X175875538Y-95224000D01*
X178224462Y-95224000D01*
X178268604Y-95228347D01*
X178268604Y-95228347D01*
G37*
G36*
X168318604Y-95178347D02*
G01*
X168355144Y-95189432D01*
X168388821Y-95207433D01*
X168418341Y-95231659D01*
X168442567Y-95261179D01*
X168460568Y-95294856D01*
X168471653Y-95331396D01*
X168476000Y-95375538D01*
X168476000Y-96324462D01*
X168471653Y-96368604D01*
X168460568Y-96405144D01*
X168442567Y-96438821D01*
X168418341Y-96468341D01*
X168388821Y-96492567D01*
X168355144Y-96510568D01*
X168318604Y-96521653D01*
X168274462Y-96526000D01*
X165925538Y-96526000D01*
X165881396Y-96521653D01*
X165844856Y-96510568D01*
X165811179Y-96492567D01*
X165781659Y-96468341D01*
X165757433Y-96438821D01*
X165739432Y-96405144D01*
X165728347Y-96368604D01*
X165724000Y-96324462D01*
X165724000Y-95375538D01*
X165728347Y-95331396D01*
X165739432Y-95294856D01*
X165757433Y-95261179D01*
X165781659Y-95231659D01*
X165811179Y-95207433D01*
X165844856Y-95189432D01*
X165881396Y-95178347D01*
X165925538Y-95174000D01*
X168274462Y-95174000D01*
X168318604Y-95178347D01*
X168318604Y-95178347D01*
G37*
G36*
X158168604Y-95078347D02*
G01*
X158205144Y-95089432D01*
X158238821Y-95107433D01*
X158268341Y-95131659D01*
X158292567Y-95161179D01*
X158310568Y-95194856D01*
X158321653Y-95231396D01*
X158326000Y-95275538D01*
X158326000Y-96224462D01*
X158321653Y-96268604D01*
X158310568Y-96305144D01*
X158292567Y-96338821D01*
X158268341Y-96368341D01*
X158238821Y-96392567D01*
X158205144Y-96410568D01*
X158168604Y-96421653D01*
X158124462Y-96426000D01*
X155775538Y-96426000D01*
X155731396Y-96421653D01*
X155694856Y-96410568D01*
X155661179Y-96392567D01*
X155631659Y-96368341D01*
X155607433Y-96338821D01*
X155589432Y-96305144D01*
X155578347Y-96268604D01*
X155574000Y-96224462D01*
X155574000Y-95275538D01*
X155578347Y-95231396D01*
X155589432Y-95194856D01*
X155607433Y-95161179D01*
X155631659Y-95131659D01*
X155661179Y-95107433D01*
X155694856Y-95089432D01*
X155731396Y-95078347D01*
X155775538Y-95074000D01*
X158124462Y-95074000D01*
X158168604Y-95078347D01*
X158168604Y-95078347D01*
G37*
G36*
X145429591Y-94478085D02*
G01*
X145463569Y-94488393D01*
X145494890Y-94505134D01*
X145522339Y-94527661D01*
X145544866Y-94555110D01*
X145561607Y-94586431D01*
X145571915Y-94620409D01*
X145576000Y-94661890D01*
X145576000Y-95338110D01*
X145571915Y-95379591D01*
X145561607Y-95413569D01*
X145544866Y-95444890D01*
X145522339Y-95472339D01*
X145494890Y-95494866D01*
X145463569Y-95511607D01*
X145429591Y-95521915D01*
X145388110Y-95526000D01*
X144786890Y-95526000D01*
X144745409Y-95521915D01*
X144711431Y-95511607D01*
X144680110Y-95494866D01*
X144652661Y-95472339D01*
X144630134Y-95444890D01*
X144613393Y-95413569D01*
X144603085Y-95379591D01*
X144599000Y-95338110D01*
X144599000Y-94661890D01*
X144603085Y-94620409D01*
X144613393Y-94586431D01*
X144630134Y-94555110D01*
X144652661Y-94527661D01*
X144680110Y-94505134D01*
X144711431Y-94488393D01*
X144745409Y-94478085D01*
X144786890Y-94474000D01*
X145388110Y-94474000D01*
X145429591Y-94478085D01*
X145429591Y-94478085D01*
G37*
G36*
X140342091Y-94478085D02*
G01*
X140376069Y-94488393D01*
X140407390Y-94505134D01*
X140434839Y-94527661D01*
X140457366Y-94555110D01*
X140474107Y-94586431D01*
X140484415Y-94620409D01*
X140488500Y-94661890D01*
X140488500Y-95338110D01*
X140484415Y-95379591D01*
X140474107Y-95413569D01*
X140457366Y-95444890D01*
X140434839Y-95472339D01*
X140407390Y-95494866D01*
X140376069Y-95511607D01*
X140342091Y-95521915D01*
X140300610Y-95526000D01*
X139699390Y-95526000D01*
X139657909Y-95521915D01*
X139623931Y-95511607D01*
X139592610Y-95494866D01*
X139565161Y-95472339D01*
X139542634Y-95444890D01*
X139525893Y-95413569D01*
X139515585Y-95379591D01*
X139511500Y-95338110D01*
X139511500Y-94661890D01*
X139515585Y-94620409D01*
X139525893Y-94586431D01*
X139542634Y-94555110D01*
X139565161Y-94527661D01*
X139592610Y-94505134D01*
X139623931Y-94488393D01*
X139657909Y-94478085D01*
X139699390Y-94474000D01*
X140300610Y-94474000D01*
X140342091Y-94478085D01*
X140342091Y-94478085D01*
G37*
G36*
X143854591Y-94478085D02*
G01*
X143888569Y-94488393D01*
X143919890Y-94505134D01*
X143947339Y-94527661D01*
X143969866Y-94555110D01*
X143986607Y-94586431D01*
X143996915Y-94620409D01*
X144001000Y-94661890D01*
X144001000Y-95338110D01*
X143996915Y-95379591D01*
X143986607Y-95413569D01*
X143969866Y-95444890D01*
X143947339Y-95472339D01*
X143919890Y-95494866D01*
X143888569Y-95511607D01*
X143854591Y-95521915D01*
X143813110Y-95526000D01*
X143211890Y-95526000D01*
X143170409Y-95521915D01*
X143136431Y-95511607D01*
X143105110Y-95494866D01*
X143077661Y-95472339D01*
X143055134Y-95444890D01*
X143038393Y-95413569D01*
X143028085Y-95379591D01*
X143024000Y-95338110D01*
X143024000Y-94661890D01*
X143028085Y-94620409D01*
X143038393Y-94586431D01*
X143055134Y-94555110D01*
X143077661Y-94527661D01*
X143105110Y-94505134D01*
X143136431Y-94488393D01*
X143170409Y-94478085D01*
X143211890Y-94474000D01*
X143813110Y-94474000D01*
X143854591Y-94478085D01*
X143854591Y-94478085D01*
G37*
G36*
X149129591Y-94478085D02*
G01*
X149163569Y-94488393D01*
X149194890Y-94505134D01*
X149222339Y-94527661D01*
X149244866Y-94555110D01*
X149261607Y-94586431D01*
X149271915Y-94620409D01*
X149276000Y-94661890D01*
X149276000Y-95338110D01*
X149271915Y-95379591D01*
X149261607Y-95413569D01*
X149244866Y-95444890D01*
X149222339Y-95472339D01*
X149194890Y-95494866D01*
X149163569Y-95511607D01*
X149129591Y-95521915D01*
X149088110Y-95526000D01*
X148486890Y-95526000D01*
X148445409Y-95521915D01*
X148411431Y-95511607D01*
X148380110Y-95494866D01*
X148352661Y-95472339D01*
X148330134Y-95444890D01*
X148313393Y-95413569D01*
X148303085Y-95379591D01*
X148299000Y-95338110D01*
X148299000Y-94661890D01*
X148303085Y-94620409D01*
X148313393Y-94586431D01*
X148330134Y-94555110D01*
X148352661Y-94527661D01*
X148380110Y-94505134D01*
X148411431Y-94488393D01*
X148445409Y-94478085D01*
X148486890Y-94474000D01*
X149088110Y-94474000D01*
X149129591Y-94478085D01*
X149129591Y-94478085D01*
G37*
G36*
X147554591Y-94478085D02*
G01*
X147588569Y-94488393D01*
X147619890Y-94505134D01*
X147647339Y-94527661D01*
X147669866Y-94555110D01*
X147686607Y-94586431D01*
X147696915Y-94620409D01*
X147701000Y-94661890D01*
X147701000Y-95338110D01*
X147696915Y-95379591D01*
X147686607Y-95413569D01*
X147669866Y-95444890D01*
X147647339Y-95472339D01*
X147619890Y-95494866D01*
X147588569Y-95511607D01*
X147554591Y-95521915D01*
X147513110Y-95526000D01*
X146911890Y-95526000D01*
X146870409Y-95521915D01*
X146836431Y-95511607D01*
X146805110Y-95494866D01*
X146777661Y-95472339D01*
X146755134Y-95444890D01*
X146738393Y-95413569D01*
X146728085Y-95379591D01*
X146724000Y-95338110D01*
X146724000Y-94661890D01*
X146728085Y-94620409D01*
X146738393Y-94586431D01*
X146755134Y-94555110D01*
X146777661Y-94527661D01*
X146805110Y-94505134D01*
X146836431Y-94488393D01*
X146870409Y-94478085D01*
X146911890Y-94474000D01*
X147513110Y-94474000D01*
X147554591Y-94478085D01*
X147554591Y-94478085D01*
G37*
G36*
X141917091Y-94478085D02*
G01*
X141951069Y-94488393D01*
X141982390Y-94505134D01*
X142009839Y-94527661D01*
X142032366Y-94555110D01*
X142049107Y-94586431D01*
X142059415Y-94620409D01*
X142063500Y-94661890D01*
X142063500Y-95338110D01*
X142059415Y-95379591D01*
X142049107Y-95413569D01*
X142032366Y-95444890D01*
X142009839Y-95472339D01*
X141982390Y-95494866D01*
X141951069Y-95511607D01*
X141917091Y-95521915D01*
X141875610Y-95526000D01*
X141274390Y-95526000D01*
X141232909Y-95521915D01*
X141198931Y-95511607D01*
X141167610Y-95494866D01*
X141140161Y-95472339D01*
X141117634Y-95444890D01*
X141100893Y-95413569D01*
X141090585Y-95379591D01*
X141086500Y-95338110D01*
X141086500Y-94661890D01*
X141090585Y-94620409D01*
X141100893Y-94586431D01*
X141117634Y-94555110D01*
X141140161Y-94527661D01*
X141167610Y-94505134D01*
X141198931Y-94488393D01*
X141232909Y-94478085D01*
X141274390Y-94474000D01*
X141875610Y-94474000D01*
X141917091Y-94478085D01*
X141917091Y-94478085D01*
G37*
G36*
X156651000Y-89951000D02*
G01*
X153775999Y-89951000D01*
X153751613Y-89953402D01*
X153728164Y-89960515D01*
X153706553Y-89972066D01*
X153687611Y-89987611D01*
X153672066Y-90006553D01*
X153660515Y-90028164D01*
X153653402Y-90051613D01*
X153651000Y-90075999D01*
X153651000Y-93451000D01*
X152549000Y-93451000D01*
X152549000Y-88849000D01*
X156651000Y-88849000D01*
X156651000Y-89951000D01*
X156651000Y-89951000D01*
G37*
G36*
X187651000Y-92951000D02*
G01*
X186549000Y-92951000D01*
X186549000Y-90075999D01*
X186546598Y-90051613D01*
X186539485Y-90028164D01*
X186527934Y-90006553D01*
X186512389Y-89987611D01*
X186493447Y-89972066D01*
X186471836Y-89960515D01*
X186448387Y-89953402D01*
X186424001Y-89951000D01*
X183549000Y-89951000D01*
X183549000Y-88849000D01*
X187651000Y-88849000D01*
X187651000Y-92951000D01*
X187651000Y-92951000D01*
G37*
G36*
X168951000Y-89951000D02*
G01*
X164849000Y-89951000D01*
X164849000Y-88849000D01*
X168951000Y-88849000D01*
X168951000Y-89951000D01*
X168951000Y-89951000D01*
G37*
G36*
X162651000Y-89951000D02*
G01*
X158549000Y-89951000D01*
X158549000Y-88849000D01*
X162651000Y-88849000D01*
X162651000Y-89951000D01*
X162651000Y-89951000D01*
G37*
G36*
X175251000Y-89951000D02*
G01*
X171149000Y-89951000D01*
X171149000Y-88849000D01*
X175251000Y-88849000D01*
X175251000Y-89951000D01*
X175251000Y-89951000D01*
G37*
G36*
X143568604Y-88528347D02*
G01*
X143605144Y-88539432D01*
X143638821Y-88557433D01*
X143668341Y-88581659D01*
X143692567Y-88611179D01*
X143710568Y-88644856D01*
X143721653Y-88681396D01*
X143726000Y-88725538D01*
X143726000Y-89674462D01*
X143721653Y-89718604D01*
X143710568Y-89755144D01*
X143692567Y-89788821D01*
X143668341Y-89818341D01*
X143638821Y-89842567D01*
X143605144Y-89860568D01*
X143568604Y-89871653D01*
X143524462Y-89876000D01*
X141175538Y-89876000D01*
X141131396Y-89871653D01*
X141094856Y-89860568D01*
X141061179Y-89842567D01*
X141031659Y-89818341D01*
X141007433Y-89788821D01*
X140989432Y-89755144D01*
X140978347Y-89718604D01*
X140974000Y-89674462D01*
X140974000Y-88725538D01*
X140978347Y-88681396D01*
X140989432Y-88644856D01*
X141007433Y-88611179D01*
X141031659Y-88581659D01*
X141061179Y-88557433D01*
X141094856Y-88539432D01*
X141131396Y-88528347D01*
X141175538Y-88524000D01*
X143524462Y-88524000D01*
X143568604Y-88528347D01*
X143568604Y-88528347D01*
G37*
G36*
X139668604Y-88528347D02*
G01*
X139705144Y-88539432D01*
X139738821Y-88557433D01*
X139768341Y-88581659D01*
X139792567Y-88611179D01*
X139810568Y-88644856D01*
X139821653Y-88681396D01*
X139826000Y-88725538D01*
X139826000Y-89674462D01*
X139821653Y-89718604D01*
X139810568Y-89755144D01*
X139792567Y-89788821D01*
X139768341Y-89818341D01*
X139738821Y-89842567D01*
X139705144Y-89860568D01*
X139668604Y-89871653D01*
X139624462Y-89876000D01*
X137275538Y-89876000D01*
X137231396Y-89871653D01*
X137194856Y-89860568D01*
X137161179Y-89842567D01*
X137131659Y-89818341D01*
X137107433Y-89788821D01*
X137089432Y-89755144D01*
X137078347Y-89718604D01*
X137074000Y-89674462D01*
X137074000Y-88725538D01*
X137078347Y-88681396D01*
X137089432Y-88644856D01*
X137107433Y-88611179D01*
X137131659Y-88581659D01*
X137161179Y-88557433D01*
X137194856Y-88539432D01*
X137231396Y-88528347D01*
X137275538Y-88524000D01*
X139624462Y-88524000D01*
X139668604Y-88528347D01*
X139668604Y-88528347D01*
G37*
G36*
X175218604Y-85028347D02*
G01*
X175255144Y-85039432D01*
X175288821Y-85057433D01*
X175318341Y-85081659D01*
X175342567Y-85111179D01*
X175360568Y-85144856D01*
X175371653Y-85181396D01*
X175376000Y-85225538D01*
X175376000Y-87574462D01*
X175371653Y-87618604D01*
X175360568Y-87655144D01*
X175342567Y-87688821D01*
X175318341Y-87718341D01*
X175288821Y-87742567D01*
X175255144Y-87760568D01*
X175218604Y-87771653D01*
X175174462Y-87776000D01*
X174225538Y-87776000D01*
X174181396Y-87771653D01*
X174144856Y-87760568D01*
X174111179Y-87742567D01*
X174081659Y-87718341D01*
X174057433Y-87688821D01*
X174039432Y-87655144D01*
X174028347Y-87618604D01*
X174024000Y-87574462D01*
X174024000Y-85225538D01*
X174028347Y-85181396D01*
X174039432Y-85144856D01*
X174057433Y-85111179D01*
X174081659Y-85081659D01*
X174111179Y-85057433D01*
X174144856Y-85039432D01*
X174181396Y-85028347D01*
X174225538Y-85024000D01*
X175174462Y-85024000D01*
X175218604Y-85028347D01*
X175218604Y-85028347D01*
G37*
G36*
X178018604Y-85028347D02*
G01*
X178055144Y-85039432D01*
X178088821Y-85057433D01*
X178118341Y-85081659D01*
X178142567Y-85111179D01*
X178160568Y-85144856D01*
X178171653Y-85181396D01*
X178176000Y-85225538D01*
X178176000Y-87574462D01*
X178171653Y-87618604D01*
X178160568Y-87655144D01*
X178142567Y-87688821D01*
X178118341Y-87718341D01*
X178088821Y-87742567D01*
X178055144Y-87760568D01*
X178018604Y-87771653D01*
X177974462Y-87776000D01*
X177025538Y-87776000D01*
X176981396Y-87771653D01*
X176944856Y-87760568D01*
X176911179Y-87742567D01*
X176881659Y-87718341D01*
X176857433Y-87688821D01*
X176839432Y-87655144D01*
X176828347Y-87618604D01*
X176824000Y-87574462D01*
X176824000Y-85225538D01*
X176828347Y-85181396D01*
X176839432Y-85144856D01*
X176857433Y-85111179D01*
X176881659Y-85081659D01*
X176911179Y-85057433D01*
X176944856Y-85039432D01*
X176981396Y-85028347D01*
X177025538Y-85024000D01*
X177974462Y-85024000D01*
X178018604Y-85028347D01*
X178018604Y-85028347D01*
G37*
G36*
X143568604Y-85728347D02*
G01*
X143605144Y-85739432D01*
X143638821Y-85757433D01*
X143668341Y-85781659D01*
X143692567Y-85811179D01*
X143710568Y-85844856D01*
X143721653Y-85881396D01*
X143726000Y-85925538D01*
X143726000Y-86874462D01*
X143721653Y-86918604D01*
X143710568Y-86955144D01*
X143692567Y-86988821D01*
X143668341Y-87018341D01*
X143638821Y-87042567D01*
X143605144Y-87060568D01*
X143568604Y-87071653D01*
X143524462Y-87076000D01*
X141175538Y-87076000D01*
X141131396Y-87071653D01*
X141094856Y-87060568D01*
X141061179Y-87042567D01*
X141031659Y-87018341D01*
X141007433Y-86988821D01*
X140989432Y-86955144D01*
X140978347Y-86918604D01*
X140974000Y-86874462D01*
X140974000Y-85925538D01*
X140978347Y-85881396D01*
X140989432Y-85844856D01*
X141007433Y-85811179D01*
X141031659Y-85781659D01*
X141061179Y-85757433D01*
X141094856Y-85739432D01*
X141131396Y-85728347D01*
X141175538Y-85724000D01*
X143524462Y-85724000D01*
X143568604Y-85728347D01*
X143568604Y-85728347D01*
G37*
G36*
X139668604Y-85728347D02*
G01*
X139705144Y-85739432D01*
X139738821Y-85757433D01*
X139768341Y-85781659D01*
X139792567Y-85811179D01*
X139810568Y-85844856D01*
X139821653Y-85881396D01*
X139826000Y-85925538D01*
X139826000Y-86874462D01*
X139821653Y-86918604D01*
X139810568Y-86955144D01*
X139792567Y-86988821D01*
X139768341Y-87018341D01*
X139738821Y-87042567D01*
X139705144Y-87060568D01*
X139668604Y-87071653D01*
X139624462Y-87076000D01*
X137275538Y-87076000D01*
X137231396Y-87071653D01*
X137194856Y-87060568D01*
X137161179Y-87042567D01*
X137131659Y-87018341D01*
X137107433Y-86988821D01*
X137089432Y-86955144D01*
X137078347Y-86918604D01*
X137074000Y-86874462D01*
X137074000Y-85925538D01*
X137078347Y-85881396D01*
X137089432Y-85844856D01*
X137107433Y-85811179D01*
X137131659Y-85781659D01*
X137161179Y-85757433D01*
X137194856Y-85739432D01*
X137231396Y-85728347D01*
X137275538Y-85724000D01*
X139624462Y-85724000D01*
X139668604Y-85728347D01*
X139668604Y-85728347D01*
G37*
G36*
X193551000Y-85351000D02*
G01*
X183949000Y-85351000D01*
X183949000Y-74349000D01*
X193551000Y-74349000D01*
X193551000Y-85351000D01*
X193551000Y-85351000D01*
G37*
G36*
X155068604Y-83078347D02*
G01*
X155105144Y-83089432D01*
X155138821Y-83107433D01*
X155168341Y-83131659D01*
X155192567Y-83161179D01*
X155210568Y-83194856D01*
X155221653Y-83231396D01*
X155226000Y-83275538D01*
X155226000Y-84224462D01*
X155221653Y-84268604D01*
X155210568Y-84305144D01*
X155192567Y-84338821D01*
X155168341Y-84368341D01*
X155138821Y-84392567D01*
X155105144Y-84410568D01*
X155068604Y-84421653D01*
X155024462Y-84426000D01*
X152675538Y-84426000D01*
X152631396Y-84421653D01*
X152594856Y-84410568D01*
X152561179Y-84392567D01*
X152531659Y-84368341D01*
X152507433Y-84338821D01*
X152489432Y-84305144D01*
X152478347Y-84268604D01*
X152474000Y-84224462D01*
X152474000Y-83275538D01*
X152478347Y-83231396D01*
X152489432Y-83194856D01*
X152507433Y-83161179D01*
X152531659Y-83131659D01*
X152561179Y-83107433D01*
X152594856Y-83089432D01*
X152631396Y-83078347D01*
X152675538Y-83074000D01*
X155024462Y-83074000D01*
X155068604Y-83078347D01*
X155068604Y-83078347D01*
G37*
G36*
X160754591Y-83328085D02*
G01*
X160788569Y-83338393D01*
X160819890Y-83355134D01*
X160847339Y-83377661D01*
X160869866Y-83405110D01*
X160886607Y-83436431D01*
X160896915Y-83470409D01*
X160901000Y-83511890D01*
X160901000Y-84188110D01*
X160896915Y-84229591D01*
X160886607Y-84263569D01*
X160869866Y-84294890D01*
X160847339Y-84322339D01*
X160819890Y-84344866D01*
X160788569Y-84361607D01*
X160754591Y-84371915D01*
X160713110Y-84376000D01*
X160111890Y-84376000D01*
X160070409Y-84371915D01*
X160036431Y-84361607D01*
X160005110Y-84344866D01*
X159977661Y-84322339D01*
X159955134Y-84294890D01*
X159938393Y-84263569D01*
X159928085Y-84229591D01*
X159924000Y-84188110D01*
X159924000Y-83511890D01*
X159928085Y-83470409D01*
X159938393Y-83436431D01*
X159955134Y-83405110D01*
X159977661Y-83377661D01*
X160005110Y-83355134D01*
X160036431Y-83338393D01*
X160070409Y-83328085D01*
X160111890Y-83324000D01*
X160713110Y-83324000D01*
X160754591Y-83328085D01*
X160754591Y-83328085D01*
G37*
G36*
X162329591Y-83328085D02*
G01*
X162363569Y-83338393D01*
X162394890Y-83355134D01*
X162422339Y-83377661D01*
X162444866Y-83405110D01*
X162461607Y-83436431D01*
X162471915Y-83470409D01*
X162476000Y-83511890D01*
X162476000Y-84188110D01*
X162471915Y-84229591D01*
X162461607Y-84263569D01*
X162444866Y-84294890D01*
X162422339Y-84322339D01*
X162394890Y-84344866D01*
X162363569Y-84361607D01*
X162329591Y-84371915D01*
X162288110Y-84376000D01*
X161686890Y-84376000D01*
X161645409Y-84371915D01*
X161611431Y-84361607D01*
X161580110Y-84344866D01*
X161552661Y-84322339D01*
X161530134Y-84294890D01*
X161513393Y-84263569D01*
X161503085Y-84229591D01*
X161499000Y-84188110D01*
X161499000Y-83511890D01*
X161503085Y-83470409D01*
X161513393Y-83436431D01*
X161530134Y-83405110D01*
X161552661Y-83377661D01*
X161580110Y-83355134D01*
X161611431Y-83338393D01*
X161645409Y-83328085D01*
X161686890Y-83324000D01*
X162288110Y-83324000D01*
X162329591Y-83328085D01*
X162329591Y-83328085D01*
G37*
G36*
X140101000Y-83651000D02*
G01*
X137999000Y-83651000D01*
X137999000Y-82049000D01*
X140101000Y-82049000D01*
X140101000Y-83651000D01*
X140101000Y-83651000D01*
G37*
G36*
X167768604Y-81978347D02*
G01*
X167805144Y-81989432D01*
X167838821Y-82007433D01*
X167868341Y-82031659D01*
X167892567Y-82061179D01*
X167910568Y-82094856D01*
X167921653Y-82131396D01*
X167926000Y-82175538D01*
X167926000Y-83124462D01*
X167921653Y-83168604D01*
X167910568Y-83205144D01*
X167892567Y-83238821D01*
X167868341Y-83268341D01*
X167838821Y-83292567D01*
X167805144Y-83310568D01*
X167768604Y-83321653D01*
X167724462Y-83326000D01*
X165375538Y-83326000D01*
X165331396Y-83321653D01*
X165294856Y-83310568D01*
X165261179Y-83292567D01*
X165231659Y-83268341D01*
X165207433Y-83238821D01*
X165189432Y-83205144D01*
X165178347Y-83168604D01*
X165174000Y-83124462D01*
X165174000Y-82175538D01*
X165178347Y-82131396D01*
X165189432Y-82094856D01*
X165207433Y-82061179D01*
X165231659Y-82031659D01*
X165261179Y-82007433D01*
X165294856Y-81989432D01*
X165331396Y-81978347D01*
X165375538Y-81974000D01*
X167724462Y-81974000D01*
X167768604Y-81978347D01*
X167768604Y-81978347D01*
G37*
G36*
X181951000Y-83116000D02*
G01*
X177249000Y-83116000D01*
X177249000Y-81664000D01*
X181951000Y-81664000D01*
X181951000Y-83116000D01*
X181951000Y-83116000D01*
G37*
G36*
X146401000Y-82501000D02*
G01*
X144299000Y-82501000D01*
X144299000Y-78599000D01*
X146401000Y-78599000D01*
X146401000Y-82501000D01*
X146401000Y-82501000D01*
G37*
G36*
X159016000Y-81971000D02*
G01*
X157364000Y-81971000D01*
X157364000Y-79469000D01*
X159016000Y-79469000D01*
X159016000Y-81971000D01*
X159016000Y-81971000D01*
G37*
G36*
X162379591Y-80953085D02*
G01*
X162413569Y-80963393D01*
X162444890Y-80980134D01*
X162472339Y-81002661D01*
X162494866Y-81030110D01*
X162511607Y-81061431D01*
X162521915Y-81095409D01*
X162526000Y-81136890D01*
X162526000Y-81738110D01*
X162521915Y-81779591D01*
X162511607Y-81813569D01*
X162494866Y-81844890D01*
X162472339Y-81872339D01*
X162444890Y-81894866D01*
X162413569Y-81911607D01*
X162379591Y-81921915D01*
X162338110Y-81926000D01*
X161661890Y-81926000D01*
X161620409Y-81921915D01*
X161586431Y-81911607D01*
X161555110Y-81894866D01*
X161527661Y-81872339D01*
X161505134Y-81844890D01*
X161488393Y-81813569D01*
X161478085Y-81779591D01*
X161474000Y-81738110D01*
X161474000Y-81136890D01*
X161478085Y-81095409D01*
X161488393Y-81061431D01*
X161505134Y-81030110D01*
X161527661Y-81002661D01*
X161555110Y-80980134D01*
X161586431Y-80963393D01*
X161620409Y-80953085D01*
X161661890Y-80949000D01*
X162338110Y-80949000D01*
X162379591Y-80953085D01*
X162379591Y-80953085D01*
G37*
G36*
X157016000Y-81921000D02*
G01*
X156264000Y-81921000D01*
X156264000Y-79519000D01*
X157016000Y-79519000D01*
X157016000Y-81921000D01*
X157016000Y-81921000D01*
G37*
G36*
X160116000Y-81921000D02*
G01*
X159364000Y-81921000D01*
X159364000Y-79519000D01*
X160116000Y-79519000D01*
X160116000Y-81921000D01*
X160116000Y-81921000D01*
G37*
G36*
X155068604Y-80278347D02*
G01*
X155105144Y-80289432D01*
X155138821Y-80307433D01*
X155168341Y-80331659D01*
X155192567Y-80361179D01*
X155210568Y-80394856D01*
X155221653Y-80431396D01*
X155226000Y-80475538D01*
X155226000Y-81424462D01*
X155221653Y-81468604D01*
X155210568Y-81505144D01*
X155192567Y-81538821D01*
X155168341Y-81568341D01*
X155138821Y-81592567D01*
X155105144Y-81610568D01*
X155068604Y-81621653D01*
X155024462Y-81626000D01*
X152675538Y-81626000D01*
X152631396Y-81621653D01*
X152594856Y-81610568D01*
X152561179Y-81592567D01*
X152531659Y-81568341D01*
X152507433Y-81538821D01*
X152489432Y-81505144D01*
X152478347Y-81468604D01*
X152474000Y-81424462D01*
X152474000Y-80475538D01*
X152478347Y-80431396D01*
X152489432Y-80394856D01*
X152507433Y-80361179D01*
X152531659Y-80331659D01*
X152561179Y-80307433D01*
X152594856Y-80289432D01*
X152631396Y-80278347D01*
X152675538Y-80274000D01*
X155024462Y-80274000D01*
X155068604Y-80278347D01*
X155068604Y-80278347D01*
G37*
G36*
X140101000Y-81351000D02*
G01*
X137999000Y-81351000D01*
X137999000Y-79749000D01*
X140101000Y-79749000D01*
X140101000Y-81351000D01*
X140101000Y-81351000D01*
G37*
G36*
X164381938Y-80641716D02*
G01*
X164402557Y-80647971D01*
X164421553Y-80658124D01*
X164438208Y-80671792D01*
X164451876Y-80688447D01*
X164462029Y-80707443D01*
X164468284Y-80728062D01*
X164471000Y-80755640D01*
X164471000Y-81214360D01*
X164468284Y-81241938D01*
X164462029Y-81262557D01*
X164451876Y-81281553D01*
X164438208Y-81298208D01*
X164421553Y-81311876D01*
X164402557Y-81322029D01*
X164381938Y-81328284D01*
X164354360Y-81331000D01*
X163845640Y-81331000D01*
X163818062Y-81328284D01*
X163797443Y-81322029D01*
X163778447Y-81311876D01*
X163761792Y-81298208D01*
X163748124Y-81281553D01*
X163737971Y-81262557D01*
X163731716Y-81241938D01*
X163729000Y-81214360D01*
X163729000Y-80755640D01*
X163731716Y-80728062D01*
X163737971Y-80707443D01*
X163748124Y-80688447D01*
X163761792Y-80671792D01*
X163778447Y-80658124D01*
X163797443Y-80647971D01*
X163818062Y-80641716D01*
X163845640Y-80639000D01*
X164354360Y-80639000D01*
X164381938Y-80641716D01*
X164381938Y-80641716D01*
G37*
G36*
X167768604Y-79178347D02*
G01*
X167805144Y-79189432D01*
X167838821Y-79207433D01*
X167868341Y-79231659D01*
X167892567Y-79261179D01*
X167910568Y-79294856D01*
X167921653Y-79331396D01*
X167926000Y-79375538D01*
X167926000Y-80324462D01*
X167921653Y-80368604D01*
X167910568Y-80405144D01*
X167892567Y-80438821D01*
X167868341Y-80468341D01*
X167838821Y-80492567D01*
X167805144Y-80510568D01*
X167768604Y-80521653D01*
X167724462Y-80526000D01*
X165375538Y-80526000D01*
X165331396Y-80521653D01*
X165294856Y-80510568D01*
X165261179Y-80492567D01*
X165231659Y-80468341D01*
X165207433Y-80438821D01*
X165189432Y-80405144D01*
X165178347Y-80368604D01*
X165174000Y-80324462D01*
X165174000Y-79375538D01*
X165178347Y-79331396D01*
X165189432Y-79294856D01*
X165207433Y-79261179D01*
X165231659Y-79231659D01*
X165261179Y-79207433D01*
X165294856Y-79189432D01*
X165331396Y-79178347D01*
X165375538Y-79174000D01*
X167724462Y-79174000D01*
X167768604Y-79178347D01*
X167768604Y-79178347D01*
G37*
G36*
X164381938Y-79671716D02*
G01*
X164402557Y-79677971D01*
X164421553Y-79688124D01*
X164438208Y-79701792D01*
X164451876Y-79718447D01*
X164462029Y-79737443D01*
X164468284Y-79758062D01*
X164471000Y-79785640D01*
X164471000Y-80244360D01*
X164468284Y-80271938D01*
X164462029Y-80292557D01*
X164451876Y-80311553D01*
X164438208Y-80328208D01*
X164421553Y-80341876D01*
X164402557Y-80352029D01*
X164381938Y-80358284D01*
X164354360Y-80361000D01*
X163845640Y-80361000D01*
X163818062Y-80358284D01*
X163797443Y-80352029D01*
X163778447Y-80341876D01*
X163761792Y-80328208D01*
X163748124Y-80311553D01*
X163737971Y-80292557D01*
X163731716Y-80271938D01*
X163729000Y-80244360D01*
X163729000Y-79785640D01*
X163731716Y-79758062D01*
X163737971Y-79737443D01*
X163748124Y-79718447D01*
X163761792Y-79701792D01*
X163778447Y-79688124D01*
X163797443Y-79677971D01*
X163818062Y-79671716D01*
X163845640Y-79669000D01*
X164354360Y-79669000D01*
X164381938Y-79671716D01*
X164381938Y-79671716D01*
G37*
G36*
X162379591Y-79378085D02*
G01*
X162413569Y-79388393D01*
X162444890Y-79405134D01*
X162472339Y-79427661D01*
X162494866Y-79455110D01*
X162511607Y-79486431D01*
X162521915Y-79520409D01*
X162526000Y-79561890D01*
X162526000Y-80163110D01*
X162521915Y-80204591D01*
X162511607Y-80238569D01*
X162494866Y-80269890D01*
X162472339Y-80297339D01*
X162444890Y-80319866D01*
X162413569Y-80336607D01*
X162379591Y-80346915D01*
X162338110Y-80351000D01*
X161661890Y-80351000D01*
X161620409Y-80346915D01*
X161586431Y-80336607D01*
X161555110Y-80319866D01*
X161527661Y-80297339D01*
X161505134Y-80269890D01*
X161488393Y-80238569D01*
X161478085Y-80204591D01*
X161474000Y-80163110D01*
X161474000Y-79561890D01*
X161478085Y-79520409D01*
X161488393Y-79486431D01*
X161505134Y-79455110D01*
X161527661Y-79427661D01*
X161555110Y-79405134D01*
X161586431Y-79388393D01*
X161620409Y-79378085D01*
X161661890Y-79374000D01*
X162338110Y-79374000D01*
X162379591Y-79378085D01*
X162379591Y-79378085D01*
G37*
G36*
X140101000Y-79051000D02*
G01*
X137999000Y-79051000D01*
X137999000Y-77449000D01*
X140101000Y-77449000D01*
X140101000Y-79051000D01*
X140101000Y-79051000D01*
G37*
G36*
X181951000Y-78036000D02*
G01*
X177249000Y-78036000D01*
X177249000Y-76584000D01*
X181951000Y-76584000D01*
X181951000Y-78036000D01*
X181951000Y-78036000D01*
G37*
G36*
X153604591Y-76328085D02*
G01*
X153638569Y-76338393D01*
X153669890Y-76355134D01*
X153697339Y-76377661D01*
X153719866Y-76405110D01*
X153736607Y-76436431D01*
X153746915Y-76470409D01*
X153751000Y-76511890D01*
X153751000Y-77188110D01*
X153746915Y-77229591D01*
X153736607Y-77263569D01*
X153719866Y-77294890D01*
X153697339Y-77322339D01*
X153669890Y-77344866D01*
X153638569Y-77361607D01*
X153604591Y-77371915D01*
X153563110Y-77376000D01*
X152961890Y-77376000D01*
X152920409Y-77371915D01*
X152886431Y-77361607D01*
X152855110Y-77344866D01*
X152827661Y-77322339D01*
X152805134Y-77294890D01*
X152788393Y-77263569D01*
X152778085Y-77229591D01*
X152774000Y-77188110D01*
X152774000Y-76511890D01*
X152778085Y-76470409D01*
X152788393Y-76436431D01*
X152805134Y-76405110D01*
X152827661Y-76377661D01*
X152855110Y-76355134D01*
X152886431Y-76338393D01*
X152920409Y-76328085D01*
X152961890Y-76324000D01*
X153563110Y-76324000D01*
X153604591Y-76328085D01*
X153604591Y-76328085D01*
G37*
G36*
X155179591Y-76328085D02*
G01*
X155213569Y-76338393D01*
X155244890Y-76355134D01*
X155272339Y-76377661D01*
X155294866Y-76405110D01*
X155311607Y-76436431D01*
X155321915Y-76470409D01*
X155326000Y-76511890D01*
X155326000Y-77188110D01*
X155321915Y-77229591D01*
X155311607Y-77263569D01*
X155294866Y-77294890D01*
X155272339Y-77322339D01*
X155244890Y-77344866D01*
X155213569Y-77361607D01*
X155179591Y-77371915D01*
X155138110Y-77376000D01*
X154536890Y-77376000D01*
X154495409Y-77371915D01*
X154461431Y-77361607D01*
X154430110Y-77344866D01*
X154402661Y-77322339D01*
X154380134Y-77294890D01*
X154363393Y-77263569D01*
X154353085Y-77229591D01*
X154349000Y-77188110D01*
X154349000Y-76511890D01*
X154353085Y-76470409D01*
X154363393Y-76436431D01*
X154380134Y-76405110D01*
X154402661Y-76377661D01*
X154430110Y-76355134D01*
X154461431Y-76338393D01*
X154495409Y-76328085D01*
X154536890Y-76324000D01*
X155138110Y-76324000D01*
X155179591Y-76328085D01*
X155179591Y-76328085D01*
G37*
G36*
X142618604Y-73078347D02*
G01*
X142655144Y-73089432D01*
X142688821Y-73107433D01*
X142718341Y-73131659D01*
X142742567Y-73161179D01*
X142760568Y-73194856D01*
X142771653Y-73231396D01*
X142776000Y-73275538D01*
X142776000Y-75624462D01*
X142771653Y-75668604D01*
X142760568Y-75705144D01*
X142742567Y-75738821D01*
X142718341Y-75768341D01*
X142688821Y-75792567D01*
X142655144Y-75810568D01*
X142618604Y-75821653D01*
X142574462Y-75826000D01*
X141625538Y-75826000D01*
X141581396Y-75821653D01*
X141544856Y-75810568D01*
X141511179Y-75792567D01*
X141481659Y-75768341D01*
X141457433Y-75738821D01*
X141439432Y-75705144D01*
X141428347Y-75668604D01*
X141424000Y-75624462D01*
X141424000Y-73275538D01*
X141428347Y-73231396D01*
X141439432Y-73194856D01*
X141457433Y-73161179D01*
X141481659Y-73131659D01*
X141511179Y-73107433D01*
X141544856Y-73089432D01*
X141581396Y-73078347D01*
X141625538Y-73074000D01*
X142574462Y-73074000D01*
X142618604Y-73078347D01*
X142618604Y-73078347D01*
G37*
G36*
X139818604Y-73078347D02*
G01*
X139855144Y-73089432D01*
X139888821Y-73107433D01*
X139918341Y-73131659D01*
X139942567Y-73161179D01*
X139960568Y-73194856D01*
X139971653Y-73231396D01*
X139976000Y-73275538D01*
X139976000Y-75624462D01*
X139971653Y-75668604D01*
X139960568Y-75705144D01*
X139942567Y-75738821D01*
X139918341Y-75768341D01*
X139888821Y-75792567D01*
X139855144Y-75810568D01*
X139818604Y-75821653D01*
X139774462Y-75826000D01*
X138825538Y-75826000D01*
X138781396Y-75821653D01*
X138744856Y-75810568D01*
X138711179Y-75792567D01*
X138681659Y-75768341D01*
X138657433Y-75738821D01*
X138639432Y-75705144D01*
X138628347Y-75668604D01*
X138624000Y-75624462D01*
X138624000Y-73275538D01*
X138628347Y-73231396D01*
X138639432Y-73194856D01*
X138657433Y-73161179D01*
X138681659Y-73131659D01*
X138711179Y-73107433D01*
X138744856Y-73089432D01*
X138781396Y-73078347D01*
X138825538Y-73074000D01*
X139774462Y-73074000D01*
X139818604Y-73078347D01*
X139818604Y-73078347D01*
G37*
G36*
X175818604Y-72228347D02*
G01*
X175855144Y-72239432D01*
X175888821Y-72257433D01*
X175918341Y-72281659D01*
X175942567Y-72311179D01*
X175960568Y-72344856D01*
X175971653Y-72381396D01*
X175976000Y-72425538D01*
X175976000Y-74774462D01*
X175971653Y-74818604D01*
X175960568Y-74855144D01*
X175942567Y-74888821D01*
X175918341Y-74918341D01*
X175888821Y-74942567D01*
X175855144Y-74960568D01*
X175818604Y-74971653D01*
X175774462Y-74976000D01*
X174825538Y-74976000D01*
X174781396Y-74971653D01*
X174744856Y-74960568D01*
X174711179Y-74942567D01*
X174681659Y-74918341D01*
X174657433Y-74888821D01*
X174639432Y-74855144D01*
X174628347Y-74818604D01*
X174624000Y-74774462D01*
X174624000Y-72425538D01*
X174628347Y-72381396D01*
X174639432Y-72344856D01*
X174657433Y-72311179D01*
X174681659Y-72281659D01*
X174711179Y-72257433D01*
X174744856Y-72239432D01*
X174781396Y-72228347D01*
X174825538Y-72224000D01*
X175774462Y-72224000D01*
X175818604Y-72228347D01*
X175818604Y-72228347D01*
G37*
G36*
X178618604Y-72228347D02*
G01*
X178655144Y-72239432D01*
X178688821Y-72257433D01*
X178718341Y-72281659D01*
X178742567Y-72311179D01*
X178760568Y-72344856D01*
X178771653Y-72381396D01*
X178776000Y-72425538D01*
X178776000Y-74774462D01*
X178771653Y-74818604D01*
X178760568Y-74855144D01*
X178742567Y-74888821D01*
X178718341Y-74918341D01*
X178688821Y-74942567D01*
X178655144Y-74960568D01*
X178618604Y-74971653D01*
X178574462Y-74976000D01*
X177625538Y-74976000D01*
X177581396Y-74971653D01*
X177544856Y-74960568D01*
X177511179Y-74942567D01*
X177481659Y-74918341D01*
X177457433Y-74888821D01*
X177439432Y-74855144D01*
X177428347Y-74818604D01*
X177424000Y-74774462D01*
X177424000Y-72425538D01*
X177428347Y-72381396D01*
X177439432Y-72344856D01*
X177457433Y-72311179D01*
X177481659Y-72281659D01*
X177511179Y-72257433D01*
X177544856Y-72239432D01*
X177581396Y-72228347D01*
X177625538Y-72224000D01*
X178574462Y-72224000D01*
X178618604Y-72228347D01*
X178618604Y-72228347D01*
G37*
G36*
X162291000Y-74856000D02*
G01*
X158989000Y-74856000D01*
X158989000Y-73484000D01*
X162291000Y-73484000D01*
X162291000Y-74856000D01*
X162291000Y-74856000D01*
G37*
G36*
X156001000Y-74251000D02*
G01*
X154999000Y-74251000D01*
X154999000Y-73349000D01*
X156001000Y-73349000D01*
X156001000Y-74251000D01*
X156001000Y-74251000D01*
G37*
G36*
X154001000Y-73301000D02*
G01*
X152999000Y-73301000D01*
X152999000Y-72399000D01*
X154001000Y-72399000D01*
X154001000Y-73301000D01*
X154001000Y-73301000D01*
G37*
G36*
X156001000Y-72351000D02*
G01*
X154999000Y-72351000D01*
X154999000Y-71449000D01*
X156001000Y-71449000D01*
X156001000Y-72351000D01*
X156001000Y-72351000D01*
G37*
G36*
X162291000Y-72316000D02*
G01*
X158989000Y-72316000D01*
X158989000Y-70944000D01*
X162291000Y-70944000D01*
X162291000Y-72316000D01*
X162291000Y-72316000D01*
G37*
G36*
X156416000Y-68998400D02*
G01*
X154684000Y-68998400D01*
X154684000Y-66716000D01*
X156416000Y-66716000D01*
X156416000Y-68998400D01*
X156416000Y-68998400D01*
G37*
G36*
X156416000Y-65284000D02*
G01*
X154684000Y-65284000D01*
X154684000Y-63001600D01*
X156416000Y-63001600D01*
X156416000Y-65284000D01*
X156416000Y-65284000D01*
G37*
G36*
X188226000Y-64361000D02*
G01*
X181774000Y-64361000D01*
X181774000Y-56639000D01*
X188226000Y-56639000D01*
X188226000Y-64361000D01*
X188226000Y-64361000D01*
G37*
G36*
X169226000Y-64361000D02*
G01*
X162774000Y-64361000D01*
X162774000Y-56639000D01*
X169226000Y-56639000D01*
X169226000Y-64361000D01*
X169226000Y-64361000D01*
G37*
G36*
X150166000Y-64261000D02*
G01*
X143714000Y-64261000D01*
X143714000Y-56539000D01*
X150166000Y-56539000D01*
X150166000Y-64261000D01*
X150166000Y-64261000D01*
G37*
G36*
X140244098Y-57047033D02*
G01*
X140708350Y-57239332D01*
X140708352Y-57239333D01*
X141126168Y-57518509D01*
X141481491Y-57873832D01*
X141760667Y-58291648D01*
X141760668Y-58291650D01*
X141952967Y-58755902D01*
X142051000Y-59248747D01*
X142051000Y-59751253D01*
X141952967Y-60244098D01*
X141760668Y-60708350D01*
X141760667Y-60708352D01*
X141481491Y-61126168D01*
X141126168Y-61481491D01*
X140708352Y-61760667D01*
X140708351Y-61760668D01*
X140708350Y-61760668D01*
X140244098Y-61952967D01*
X139751253Y-62051000D01*
X139248747Y-62051000D01*
X138755902Y-61952967D01*
X138291650Y-61760668D01*
X138291649Y-61760668D01*
X138291648Y-61760667D01*
X137873832Y-61481491D01*
X137518509Y-61126168D01*
X137239333Y-60708352D01*
X137239332Y-60708350D01*
X137047033Y-60244098D01*
X136949000Y-59751253D01*
X136949000Y-59248747D01*
X137047033Y-58755902D01*
X137239332Y-58291650D01*
X137239333Y-58291648D01*
X137518509Y-57873832D01*
X137873832Y-57518509D01*
X138291648Y-57239333D01*
X138291650Y-57239332D01*
X138755902Y-57047033D01*
X139248747Y-56949000D01*
X139751253Y-56949000D01*
X140244098Y-57047033D01*
X140244098Y-57047033D01*
G37*
G36*
X193244098Y-57047033D02*
G01*
X193708350Y-57239332D01*
X193708352Y-57239333D01*
X194126168Y-57518509D01*
X194481491Y-57873832D01*
X194760667Y-58291648D01*
X194760668Y-58291650D01*
X194952967Y-58755902D01*
X195051000Y-59248747D01*
X195051000Y-59751253D01*
X194952967Y-60244098D01*
X194760668Y-60708350D01*
X194760667Y-60708352D01*
X194481491Y-61126168D01*
X194126168Y-61481491D01*
X193708352Y-61760667D01*
X193708351Y-61760668D01*
X193708350Y-61760668D01*
X193244098Y-61952967D01*
X192751253Y-62051000D01*
X192248747Y-62051000D01*
X191755902Y-61952967D01*
X191291650Y-61760668D01*
X191291649Y-61760668D01*
X191291648Y-61760667D01*
X190873832Y-61481491D01*
X190518509Y-61126168D01*
X190239333Y-60708352D01*
X190239332Y-60708350D01*
X190047033Y-60244098D01*
X189949000Y-59751253D01*
X189949000Y-59248747D01*
X190047033Y-58755902D01*
X190239332Y-58291650D01*
X190239333Y-58291648D01*
X190518509Y-57873832D01*
X190873832Y-57518509D01*
X191291648Y-57239333D01*
X191291650Y-57239332D01*
X191755902Y-57047033D01*
X192248747Y-56949000D01*
X192751253Y-56949000D01*
X193244098Y-57047033D01*
X193244098Y-57047033D01*
G37*
M02*
